STARTFONT 2.1
COMMENT 
COMMENT Copyright (C) 2012-2015 Uwe Waldmann
COMMENT 
COMMENT Permission is hereby granted, free of charge, to any person obtaining
COMMENT a copy of this font software and associated files (the "Software"),
COMMENT to deal in the Software without restriction, including without
COMMENT limitation the rights to use, copy, modify, merge, publish,
COMMENT distribute, embed, sublicense, and/or sell copies of the Software,
COMMENT and to permit persons to whom the Software is furnished to do so,
COMMENT subject to the following conditions:
COMMENT 
COMMENT (1) The above copyright notice, this permission notice, and the
COMMENT     disclaimer below shall be included in all copies or substantial
COMMENT     portions of the Software.
COMMENT 
COMMENT (2) If the design of any glyphs in the fonts that are contained in the
COMMENT     Software or generated during the installation process is modified
COMMENT     or if additional glyphs are added to the fonts, the fonts
COMMENT     must be renamed. The new names may not contain the word "UW",
COMMENT     irrespective of capitalisation; the new names may contain the word
COMMENT     "ttyp0", irrespective of capitalisation, only if preceded by a
COMMENT     foundry name different from "UW".
COMMENT 
COMMENT THE SOFTWARE IS PROVIDED "AS IS", WITHOUT WARRANTY OF ANY KIND, EXPRESS
COMMENT OR IMPLIED, INCLUDING BUT NOT LIMITED TO THE WARRANTIES OF
COMMENT MERCHANTABILITY, FITNESS FOR A PARTICULAR PURPOSE AND NONINFRINGEMENT.
COMMENT IN NO EVENT SHALL THE AUTHORS OR COPYRIGHT HOLDERS BE LIABLE FOR ANY
COMMENT CLAIM, DAMAGES OR OTHER LIABILITY, WHETHER IN AN ACTION OF CONTRACT,
COMMENT TORT OR OTHERWISE, ARISING FROM, OUT OF OR IN CONNECTION WITH THE
COMMENT SOFTWARE OR THE USE OR OTHER DEALINGS IN THE SOFTWARE.
COMMENT 
FONT -UW-Ttyp0-Bold-R-Normal--22-200-75-75-C-110-ISO10646-1
SIZE 22 75 75
FONTBOUNDINGBOX 11 22 0 -5
STARTPROPERTIES 20
FONTNAME_REGISTRY ""
FOUNDRY "UW"
FAMILY_NAME "Ttyp0"
WEIGHT_NAME "Bold"

STARTCHAR DDefaultChar
ENCODING 0
SWIDTH 1320 0
DWIDTH 11 0
BBX 11 22 0 -5
BITMAP
0000
0000
0000
6ec0
6ec0
6ec0
0000
71c0
71c0
0000
71c0
71c0
71c0
0000
6ec0
6ec0
6ec0
0000
0000
0000
0000
0000
ENDCHAR
STARTCHAR Space
ENCODING 32
SWIDTH 1320 0
DWIDTH 11 0
BBX 11 22 0 -5
BITMAP
0000
0000
0000
0000
0000
0000
0000
0000
0000
0000
0000
0000
0000
0000
0000
0000
0000
0000
0000
0000
0000
0000
ENDCHAR
STARTCHAR PExclam
ENCODING 33
SWIDTH 1320 0
DWIDTH 11 0
BBX 11 22 0 -5
BITMAP
0000
0000
0000
0e00
0e00
0e00
0e00
0e00
0e00
0e00
0e00
0e00
0000
0000
0e00
0e00
0e00
0000
0000
0000
0000
0000
ENDCHAR
STARTCHAR PQuote2Ascii
ENCODING 34
SWIDTH 1320 0
DWIDTH 11 0
BBX 11 22 0 -5
BITMAP
0000
0000
3b80
3b80
3b80
3b80
3b80
1100
0000
0000
0000
0000
0000
0000
0000
0000
0000
0000
0000
0000
0000
0000
ENDCHAR
STARTCHAR SNumberSign
ENCODING 35
SWIDTH 1320 0
DWIDTH 11 0
BBX 11 22 0 -5
BITMAP
0000
0000
0000
0000
0000
0000
3b80
3b80
7fc0
7fc0
3b80
3b80
7fc0
7fc0
3b80
3b80
0000
0000
0000
0000
0000
0000
ENDCHAR
STARTCHAR CurrDollar
ENCODING 36
SWIDTH 1320 0
DWIDTH 11 0
BBX 11 22 0 -5
BITMAP
0000
0000
0000
0600
0600
3fc0
76c0
66c0
7600
7e00
3f00
1f80
0fc0
0dc0
6cc0
6dc0
7f80
0c00
0c00
0000
0000
0000
ENDCHAR
STARTCHAR SPercent
ENCODING 37
SWIDTH 1320 0
DWIDTH 11 0
BBX 11 22 0 -5
BITMAP
0000
0000
0000
7800
ec00
ec40
ecc0
ed80
7b00
0e00
1c00
3780
6ec0
cec0
8ec0
0ec0
0780
0000
0000
0000
0000
0000
ENDCHAR
STARTCHAR SAmpersand
ENCODING 38
SWIDTH 1320 0
DWIDTH 11 0
BBX 11 22 0 -5
BITMAP
0000
0000
0000
0000
3c00
7600
7600
7600
7c00
3800
3cc0
6dc0
ef80
e700
e700
ff80
79c0
0000
0000
0000
0000
0000
ENDCHAR
STARTCHAR PApostropheAscii
ENCODING 39
SWIDTH 1320 0
DWIDTH 11 0
BBX 11 22 0 -5
BITMAP
0000
0000
0700
0700
0700
0e00
0c00
0000
0000
0000
0000
0000
0000
0000
0000
0000
0000
0000
0000
0000
0000
0000
ENDCHAR
STARTCHAR PParenL
ENCODING 40
SWIDTH 1320 0
DWIDTH 11 0
BBX 11 22 0 -5
BITMAP
0000
0000
0300
0e00
0c00
1c00
1800
3800
3800
3800
3800
3800
3800
1800
1c00
0c00
0e00
0300
0000
0000
0000
0000
ENDCHAR
STARTCHAR PParenR
ENCODING 41
SWIDTH 1320 0
DWIDTH 11 0
BBX 11 22 0 -5
BITMAP
0000
0000
3000
1c00
0c00
0e00
0600
0700
0700
0700
0700
0700
0700
0600
0e00
0c00
1c00
3000
0000
0000
0000
0000
ENDCHAR
STARTCHAR SAsterisk
ENCODING 42
SWIDTH 1320 0
DWIDTH 11 0
BBX 11 22 0 -5
BITMAP
0000
0000
0000
0000
0000
0000
0000
3b80
1b00
0e00
7fc0
7fc0
0e00
1b00
3b80
0000
0000
0000
0000
0000
0000
0000
ENDCHAR
STARTCHAR MPlus
ENCODING 43
SWIDTH 1320 0
DWIDTH 11 0
BBX 11 22 0 -5
BITMAP
0000
0000
0000
0000
0000
0000
0000
0e00
0e00
0e00
7fc0
7fc0
7fc0
0e00
0e00
0e00
0000
0000
0000
0000
0000
0000
ENDCHAR
STARTCHAR PComma
ENCODING 44
SWIDTH 1320 0
DWIDTH 11 0
BBX 11 22 0 -5
BITMAP
0000
0000
0000
0000
0000
0000
0000
0000
0000
0000
0000
0000
0000
0000
0e00
0e00
0e00
1c00
1800
0000
0000
0000
ENDCHAR
STARTCHAR PHyphenMinus
ENCODING 45
SWIDTH 1320 0
DWIDTH 11 0
BBX 11 22 0 -5
BITMAP
0000
0000
0000
0000
0000
0000
0000
0000
0000
0000
7f80
7f80
7f80
0000
0000
0000
0000
0000
0000
0000
0000
0000
ENDCHAR
STARTCHAR PFullStop
ENCODING 46
SWIDTH 1320 0
DWIDTH 11 0
BBX 11 22 0 -5
BITMAP
0000
0000
0000
0000
0000
0000
0000
0000
0000
0000
0000
0000
0000
0000
0e00
0e00
0e00
0000
0000
0000
0000
0000
ENDCHAR
STARTCHAR PSolidus
ENCODING 47
SWIDTH 1320 0
DWIDTH 11 0
BBX 11 22 0 -5
BITMAP
0000
0000
01c0
01c0
0380
0380
0300
0700
0700
0e00
0e00
1c00
1c00
1800
3800
3800
7000
7000
0000
0000
0000
0000
ENDCHAR
STARTCHAR Digit0
ENCODING 48
SWIDTH 1320 0
DWIDTH 11 0
BBX 11 22 0 -5
BITMAP
0000
0000
0000
0000
0e00
3b80
3180
71c0
71c0
71c0
71c0
71c0
71c0
71c0
3180
3b80
0e00
0000
0000
0000
0000
0000
ENDCHAR
STARTCHAR Digit1
ENCODING 49
SWIDTH 1320 0
DWIDTH 11 0
BBX 11 22 0 -5
BITMAP
0000
0000
0000
0000
0700
0f00
0f00
1f00
3700
2700
0700
0700
0700
0700
0700
0700
0700
0000
0000
0000
0000
0000
ENDCHAR
STARTCHAR Digit2
ENCODING 50
SWIDTH 1320 0
DWIDTH 11 0
BBX 11 22 0 -5
BITMAP
0000
0000
0000
0000
3f80
73c0
71c0
01c0
01c0
0380
0700
0e00
1800
3040
7fc0
7fc0
7fc0
0000
0000
0000
0000
0000
ENDCHAR
STARTCHAR Digit3
ENCODING 51
SWIDTH 1320 0
DWIDTH 11 0
BBX 11 22 0 -5
BITMAP
0000
0000
0000
0000
3f00
7380
71c0
01c0
01c0
0380
0f00
0380
01c0
01c0
71c0
7380
3f00
0000
0000
0000
0000
0000
ENDCHAR
STARTCHAR Digit4
ENCODING 52
SWIDTH 1320 0
DWIDTH 11 0
BBX 11 22 0 -5
BITMAP
0000
0000
0000
0000
0780
0780
0f80
0b80
1b80
1380
3380
2380
7fc0
7fc0
0380
0380
0380
0000
0000
0000
0000
0000
ENDCHAR
STARTCHAR Digit5
ENCODING 53
SWIDTH 1320 0
DWIDTH 11 0
BBX 11 22 0 -5
BITMAP
0000
0000
0000
0000
3f80
3f80
3f80
3000
3000
3f00
3380
01c0
01c0
01c0
71c0
7380
3f00
0000
0000
0000
0000
0000
ENDCHAR
STARTCHAR Digit6
ENCODING 54
SWIDTH 1320 0
DWIDTH 11 0
BBX 11 22 0 -5
BITMAP
0000
0000
0000
0000
0700
1c00
3800
3800
7000
7700
7b80
71c0
71c0
71c0
71c0
3b80
1f00
0000
0000
0000
0000
0000
ENDCHAR
STARTCHAR Digit7
ENCODING 55
SWIDTH 1320 0
DWIDTH 11 0
BBX 11 22 0 -5
BITMAP
0000
0000
0000
0000
7fc0
7fc0
7fc0
40c0
0180
0300
0600
0e00
0e00
1c00
1c00
1c00
1c00
0000
0000
0000
0000
0000
ENDCHAR
STARTCHAR Digit8
ENCODING 56
SWIDTH 1320 0
DWIDTH 11 0
BBX 11 22 0 -5
BITMAP
0000
0000
0000
0000
1f00
3b80
71c0
71c0
7980
3f00
1f00
1f80
33c0
71c0
71c0
3b80
1f00
0000
0000
0000
0000
0000
ENDCHAR
STARTCHAR Digit9
ENCODING 57
SWIDTH 1320 0
DWIDTH 11 0
BBX 11 22 0 -5
BITMAP
0000
0000
0000
0000
1f00
3b80
71c0
71c0
71c0
71c0
3bc0
1dc0
01c0
0380
0380
0f00
3c00
0000
0000
0000
0000
0000
ENDCHAR
STARTCHAR PColon
ENCODING 58
SWIDTH 1320 0
DWIDTH 11 0
BBX 11 22 0 -5
BITMAP
0000
0000
0000
0000
0000
0000
0000
0000
0000
0e00
0e00
0e00
0000
0000
0e00
0e00
0e00
0000
0000
0000
0000
0000
ENDCHAR
STARTCHAR PSemicolon
ENCODING 59
SWIDTH 1320 0
DWIDTH 11 0
BBX 11 22 0 -5
BITMAP
0000
0000
0000
0000
0000
0000
0000
0000
0000
0e00
0e00
0e00
0000
0000
0e00
0e00
0e00
1c00
1800
0000
0000
0000
ENDCHAR
STARTCHAR MLess
ENCODING 60
SWIDTH 1320 0
DWIDTH 11 0
BBX 11 22 0 -5
BITMAP
0000
0000
0000
0000
0000
0180
0380
0700
0e00
1c00
3800
3800
1c00
0e00
0700
0380
0180
0000
0000
0000
0000
0000
ENDCHAR
STARTCHAR MEqual
ENCODING 61
SWIDTH 1320 0
DWIDTH 11 0
BBX 11 22 0 -5
BITMAP
0000
0000
0000
0000
0000
0000
0000
0000
7fc0
7fc0
7fc0
0000
7fc0
7fc0
7fc0
0000
0000
0000
0000
0000
0000
0000
ENDCHAR
STARTCHAR MGreater
ENCODING 62
SWIDTH 1320 0
DWIDTH 11 0
BBX 11 22 0 -5
BITMAP
0000
0000
0000
0000
0000
3000
3800
1c00
0e00
0700
0380
0380
0700
0e00
1c00
3800
3000
0000
0000
0000
0000
0000
ENDCHAR
STARTCHAR PQuestion
ENCODING 63
SWIDTH 1320 0
DWIDTH 11 0
BBX 11 22 0 -5
BITMAP
0000
0000
0000
3f00
7b80
71c0
71c0
0180
0380
0700
0e00
0e00
0000
0000
0e00
0e00
0e00
0000
0000
0000
0000
0000
ENDCHAR
STARTCHAR SCommercialAt
ENCODING 64
SWIDTH 1320 0
DWIDTH 11 0
BBX 11 22 0 -5
BITMAP
0000
0000
0000
0000
0000
1e00
3f00
6180
cec0
dec0
dac0
dac0
dfc0
cf80
6000
3f00
1e00
0000
0000
0000
0000
0000
ENDCHAR
STARTCHAR LtCapA
ENCODING 65
SWIDTH 1320 0
DWIDTH 11 0
BBX 11 22 0 -5
BITMAP
0000
0000
0000
0000
0c00
0e00
1e00
1e00
1f00
3700
3700
2380
7f80
6380
61c0
c1c0
c1c0
0000
0000
0000
0000
0000
ENDCHAR
STARTCHAR LtCapB
ENCODING 66
SWIDTH 1320 0
DWIDTH 11 0
BBX 11 22 0 -5
BITMAP
0000
0000
0000
0000
7f00
7380
71c0
71c0
71c0
7380
7f00
7380
71c0
71c0
71c0
7380
7f00
0000
0000
0000
0000
0000
ENDCHAR
STARTCHAR LtCapC
ENCODING 67
SWIDTH 1320 0
DWIDTH 11 0
BBX 11 22 0 -5
BITMAP
0000
0000
0000
0000
0fc0
38c0
30c0
7000
7000
7000
7000
7000
7000
7000
30c0
39c0
0f80
0000
0000
0000
0000
0000
ENDCHAR
STARTCHAR LtCapD
ENCODING 68
SWIDTH 1320 0
DWIDTH 11 0
BBX 11 22 0 -5
BITMAP
0000
0000
0000
0000
7e00
7380
7180
71c0
71c0
71c0
71c0
71c0
71c0
71c0
7180
7380
7e00
0000
0000
0000
0000
0000
ENDCHAR
STARTCHAR LtCapE
ENCODING 69
SWIDTH 1320 0
DWIDTH 11 0
BBX 11 22 0 -5
BITMAP
0000
0000
0000
0000
7fc0
70c0
70c0
7000
7000
7200
7e00
7200
7000
7000
70c0
70c0
7fc0
0000
0000
0000
0000
0000
ENDCHAR
STARTCHAR LtCapF
ENCODING 70
SWIDTH 1320 0
DWIDTH 11 0
BBX 11 22 0 -5
BITMAP
0000
0000
0000
0000
3fe0
3860
3860
3800
3800
3900
3f00
3900
3800
3800
3800
3800
3800
0000
0000
0000
0000
0000
ENDCHAR
STARTCHAR LtCapG
ENCODING 71
SWIDTH 1320 0
DWIDTH 11 0
BBX 11 22 0 -5
BITMAP
0000
0000
0000
0000
0fc0
38c0
30c0
7000
7000
7000
73c0
71c0
71c0
71c0
31c0
39c0
0fc0
0000
0000
0000
0000
0000
ENDCHAR
STARTCHAR LtCapH
ENCODING 72
SWIDTH 1320 0
DWIDTH 11 0
BBX 11 22 0 -5
BITMAP
0000
0000
0000
0000
71c0
71c0
71c0
71c0
71c0
71c0
7fc0
71c0
71c0
71c0
71c0
71c0
71c0
0000
0000
0000
0000
0000
ENDCHAR
STARTCHAR LtCapI
ENCODING 73
SWIDTH 1320 0
DWIDTH 11 0
BBX 11 22 0 -5
BITMAP
0000
0000
0000
0000
3f80
0e00
0e00
0e00
0e00
0e00
0e00
0e00
0e00
0e00
0e00
0e00
3f80
0000
0000
0000
0000
0000
ENDCHAR
STARTCHAR LtCapJ
ENCODING 74
SWIDTH 1320 0
DWIDTH 11 0
BBX 11 22 0 -5
BITMAP
0000
0000
0000
0000
07c0
0380
0380
0380
0380
0380
0380
0380
0380
6380
6380
7700
3f00
0000
0000
0000
0000
0000
ENDCHAR
STARTCHAR LtCapK
ENCODING 75
SWIDTH 1320 0
DWIDTH 11 0
BBX 11 22 0 -5
BITMAP
0000
0000
0000
0000
70c0
70c0
7180
7300
7300
7600
7e00
7f00
7700
7380
7380
71c0
71c0
0000
0000
0000
0000
0000
ENDCHAR
STARTCHAR LtCapL
ENCODING 76
SWIDTH 1320 0
DWIDTH 11 0
BBX 11 22 0 -5
BITMAP
0000
0000
0000
0000
7000
7000
7000
7000
7000
7000
7000
7000
7000
7000
70c0
70c0
7fc0
0000
0000
0000
0000
0000
ENDCHAR
STARTCHAR LtCapM
ENCODING 77
SWIDTH 1320 0
DWIDTH 11 0
BBX 11 22 0 -5
BITMAP
0000
0000
0000
0000
c0c0
c1c0
e1c0
e3c0
f3c0
f7c0
ddc0
ddc0
c9c0
c9c0
c1c0
c1c0
c1c0
0000
0000
0000
0000
0000
ENDCHAR
STARTCHAR LtCapN
ENCODING 78
SWIDTH 1320 0
DWIDTH 11 0
BBX 11 22 0 -5
BITMAP
0000
0000
0000
0000
70c0
78c0
78c0
7cc0
7cc0
6ec0
6ec0
67c0
67c0
63c0
63c0
61c0
61c0
0000
0000
0000
0000
0000
ENDCHAR
STARTCHAR LtCapO
ENCODING 79
SWIDTH 1320 0
DWIDTH 11 0
BBX 11 22 0 -5
BITMAP
0000
0000
0000
0000
1e00
7380
6180
e1c0
e1c0
e1c0
e1c0
e1c0
e1c0
e1c0
6180
7380
1e00
0000
0000
0000
0000
0000
ENDCHAR
STARTCHAR LtCapP
ENCODING 80
SWIDTH 1320 0
DWIDTH 11 0
BBX 11 22 0 -5
BITMAP
0000
0000
0000
0000
7f00
7380
71c0
71c0
71c0
71c0
7380
7f00
7000
7000
7000
7000
7000
0000
0000
0000
0000
0000
ENDCHAR
STARTCHAR LtCapQ
ENCODING 81
SWIDTH 1320 0
DWIDTH 11 0
BBX 11 22 0 -5
BITMAP
0000
0000
0000
0000
1e00
7380
6180
e1c0
e1c0
e1c0
e1c0
e1c0
e1c0
e1c0
7d80
7780
1f00
0300
01e0
00c0
0000
0000
ENDCHAR
STARTCHAR LtCapR
ENCODING 82
SWIDTH 1320 0
DWIDTH 11 0
BBX 11 22 0 -5
BITMAP
0000
0000
0000
0000
7f00
7380
71c0
71c0
71c0
7380
7f00
7600
7700
7300
7380
71c0
71c0
0000
0000
0000
0000
0000
ENDCHAR
STARTCHAR LtCapS
ENCODING 83
SWIDTH 1320 0
DWIDTH 11 0
BBX 11 22 0 -5
BITMAP
0000
0000
0000
0000
1fc0
38c0
70c0
7000
7800
3c00
1f00
0780
03c0
01c0
61c0
6380
7f00
0000
0000
0000
0000
0000
ENDCHAR
STARTCHAR LtCapT
ENCODING 84
SWIDTH 1320 0
DWIDTH 11 0
BBX 11 22 0 -5
BITMAP
0000
0000
0000
0000
ffe0
ce60
ce60
0e00
0e00
0e00
0e00
0e00
0e00
0e00
0e00
0e00
0e00
0000
0000
0000
0000
0000
ENDCHAR
STARTCHAR LtCapU
ENCODING 85
SWIDTH 1320 0
DWIDTH 11 0
BBX 11 22 0 -5
BITMAP
0000
0000
0000
0000
70c0
70c0
70c0
70c0
70c0
70c0
70c0
70c0
70c0
70c0
70c0
3980
1f00
0000
0000
0000
0000
0000
ENDCHAR
STARTCHAR LtCapV
ENCODING 86
SWIDTH 1320 0
DWIDTH 11 0
BBX 11 22 0 -5
BITMAP
0000
0000
0000
0000
e0c0
e0c0
e180
7180
7180
7300
3b00
3b00
3e00
1e00
1e00
1c00
0c00
0000
0000
0000
0000
0000
ENDCHAR
STARTCHAR LtCapW
ENCODING 87
SWIDTH 1320 0
DWIDTH 11 0
BBX 11 22 0 -5
BITMAP
0000
0000
0000
0000
e0c0
e0c0
e0c0
e4c0
e4c0
eec0
eec0
7f80
7f80
7380
7380
7380
7380
0000
0000
0000
0000
0000
ENDCHAR
STARTCHAR LtCapX
ENCODING 88
SWIDTH 1320 0
DWIDTH 11 0
BBX 11 22 0 -5
BITMAP
0000
0000
0000
0000
70c0
70c0
7980
3900
1f00
1e00
0e00
0f00
1f00
1380
33c0
61c0
61c0
0000
0000
0000
0000
0000
ENDCHAR
STARTCHAR LtCapY
ENCODING 89
SWIDTH 1320 0
DWIDTH 11 0
BBX 11 22 0 -5
BITMAP
0000
0000
0000
0000
e0c0
70c0
7180
3980
3b00
1f00
1e00
0e00
0e00
0e00
0e00
0e00
0e00
0000
0000
0000
0000
0000
ENDCHAR
STARTCHAR LtCapZ
ENCODING 90
SWIDTH 1320 0
DWIDTH 11 0
BBX 11 22 0 -5
BITMAP
0000
0000
0000
0000
7fc0
61c0
6380
0380
0700
0700
0e00
1c00
1c00
3800
38c0
70c0
7fc0
0000
0000
0000
0000
0000
ENDCHAR
STARTCHAR PSquareBrackL
ENCODING 91
SWIDTH 1320 0
DWIDTH 11 0
BBX 11 22 0 -5
BITMAP
0000
0000
1f00
1f00
1c00
1c00
1c00
1c00
1c00
1c00
1c00
1c00
1c00
1c00
1c00
1c00
1f00
1f00
0000
0000
0000
0000
ENDCHAR
STARTCHAR PRevSolidus
ENCODING 92
SWIDTH 1320 0
DWIDTH 11 0
BBX 11 22 0 -5
BITMAP
0000
0000
7000
7000
3800
3800
1800
1c00
1c00
0e00
0e00
0700
0700
0300
0380
0380
01c0
01c0
0000
0000
0000
0000
ENDCHAR
STARTCHAR PSquareBrackR
ENCODING 93
SWIDTH 1320 0
DWIDTH 11 0
BBX 11 22 0 -5
BITMAP
0000
0000
1f00
1f00
0700
0700
0700
0700
0700
0700
0700
0700
0700
0700
0700
0700
1f00
1f00
0000
0000
0000
0000
ENDCHAR
STARTCHAR AccCircumAscii
ENCODING 94
SWIDTH 1320 0
DWIDTH 11 0
BBX 11 22 0 -5
BITMAP
0000
0000
0400
0e00
1f00
3b80
71c0
60c0
0000
0000
0000
0000
0000
0000
0000
0000
0000
0000
0000
0000
0000
0000
ENDCHAR
STARTCHAR OLowline
ENCODING 95
SWIDTH 1320 0
DWIDTH 11 0
BBX 11 22 0 -5
BITMAP
0000
0000
0000
0000
0000
0000
0000
0000
0000
0000
0000
0000
0000
0000
0000
7fc0
7fc0
7fc0
0000
0000
0000
0000
ENDCHAR
STARTCHAR AccGraveAscii
ENCODING 96
SWIDTH 1320 0
DWIDTH 11 0
BBX 11 22 0 -5
BITMAP
0000
0000
1c00
1c00
1c00
0e00
0600
0000
0000
0000
0000
0000
0000
0000
0000
0000
0000
0000
0000
0000
0000
0000
ENDCHAR
STARTCHAR LtSmlA
ENCODING 97
SWIDTH 1320 0
DWIDTH 11 0
BBX 11 22 0 -5
BITMAP
0000
0000
0000
0000
0000
0000
0000
1f80
39c0
31c0
01c0
1fc0
39c0
71c0
71c0
73c0
3dc0
0000
0000
0000
0000
0000
ENDCHAR
STARTCHAR LtSmlB
ENCODING 98
SWIDTH 1320 0
DWIDTH 11 0
BBX 11 22 0 -5
BITMAP
0000
0000
0000
7000
7000
7000
7000
7700
7b80
71c0
71c0
71c0
71c0
71c0
71c0
7b80
7700
0000
0000
0000
0000
0000
ENDCHAR
STARTCHAR LtSmlC
ENCODING 99
SWIDTH 1320 0
DWIDTH 11 0
BBX 11 22 0 -5
BITMAP
0000
0000
0000
0000
0000
0000
0000
1f80
39c0
70c0
7000
7000
7000
7000
70c0
39c0
1f80
0000
0000
0000
0000
0000
ENDCHAR
STARTCHAR LtSmlD
ENCODING 100
SWIDTH 1320 0
DWIDTH 11 0
BBX 11 22 0 -5
BITMAP
0000
0000
0000
01c0
01c0
01c0
01c0
1dc0
3bc0
71c0
71c0
71c0
71c0
71c0
71c0
3bc0
1dc0
0000
0000
0000
0000
0000
ENDCHAR
STARTCHAR LtSmlE
ENCODING 101
SWIDTH 1320 0
DWIDTH 11 0
BBX 11 22 0 -5
BITMAP
0000
0000
0000
0000
0000
0000
0000
1f80
39c0
71c0
71c0
7fc0
7000
7000
70c0
39c0
1f80
0000
0000
0000
0000
0000
ENDCHAR
STARTCHAR LtSmlF
ENCODING 102
SWIDTH 1320 0
DWIDTH 11 0
BBX 11 22 0 -5
BITMAP
0000
0000
0000
0fc0
1cc0
1c00
1c00
1c00
7fc0
1c00
1c00
1c00
1c00
1c00
1c00
1c00
1c00
0000
0000
0000
0000
0000
ENDCHAR
STARTCHAR LtSmlG
ENCODING 103
SWIDTH 1320 0
DWIDTH 11 0
BBX 11 22 0 -5
BITMAP
0000
0000
0000
0000
0000
0000
0000
3ec0
7380
7380
7380
7380
3f00
3000
7000
7f80
3fc0
71c0
60c0
71c0
3f80
0000
ENDCHAR
STARTCHAR LtSmlH
ENCODING 104
SWIDTH 1320 0
DWIDTH 11 0
BBX 11 22 0 -5
BITMAP
0000
0000
0000
7000
7000
7000
7000
7780
79c0
71c0
71c0
71c0
71c0
71c0
71c0
71c0
71c0
0000
0000
0000
0000
0000
ENDCHAR
STARTCHAR LtSmlI
ENCODING 105
SWIDTH 1320 0
DWIDTH 11 0
BBX 11 22 0 -5
BITMAP
0000
0000
0400
0e00
0e00
0400
0000
3e00
0e00
0e00
0e00
0e00
0e00
0e00
0e00
0e00
3f80
0000
0000
0000
0000
0000
ENDCHAR
STARTCHAR LtSmlJ
ENCODING 106
SWIDTH 1320 0
DWIDTH 11 0
BBX 11 22 0 -5
BITMAP
0000
0000
0200
0700
0700
0200
0000
3f00
0700
0700
0700
0700
0700
0700
0700
0700
0700
0700
e700
e700
7e00
0000
ENDCHAR
STARTCHAR LtSmlK
ENCODING 107
SWIDTH 1320 0
DWIDTH 11 0
BBX 11 22 0 -5
BITMAP
0000
0000
0000
7000
7000
7000
7000
70c0
7180
7300
7600
7e00
7f00
7380
7380
71c0
71c0
0000
0000
0000
0000
0000
ENDCHAR
STARTCHAR LtSmlL
ENCODING 108
SWIDTH 1320 0
DWIDTH 11 0
BBX 11 22 0 -5
BITMAP
0000
0000
0000
3e00
0e00
0e00
0e00
0e00
0e00
0e00
0e00
0e00
0e00
0e00
0e00
0e00
3f80
0000
0000
0000
0000
0000
ENDCHAR
STARTCHAR LtSmlM
ENCODING 109
SWIDTH 1320 0
DWIDTH 11 0
BBX 11 22 0 -5
BITMAP
0000
0000
0000
0000
0000
0000
0000
db80
ffc0
edc0
edc0
edc0
edc0
edc0
edc0
edc0
edc0
0000
0000
0000
0000
0000
ENDCHAR
STARTCHAR LtSmlN
ENCODING 110
SWIDTH 1320 0
DWIDTH 11 0
BBX 11 22 0 -5
BITMAP
0000
0000
0000
0000
0000
0000
0000
7780
79c0
71c0
71c0
71c0
71c0
71c0
71c0
71c0
71c0
0000
0000
0000
0000
0000
ENDCHAR
STARTCHAR LtSmlO
ENCODING 111
SWIDTH 1320 0
DWIDTH 11 0
BBX 11 22 0 -5
BITMAP
0000
0000
0000
0000
0000
0000
0000
1f00
3b80
71c0
71c0
71c0
71c0
71c0
71c0
3b80
1f00
0000
0000
0000
0000
0000
ENDCHAR
STARTCHAR LtSmlP
ENCODING 112
SWIDTH 1320 0
DWIDTH 11 0
BBX 11 22 0 -5
BITMAP
0000
0000
0000
0000
0000
0000
0000
7700
7b80
71c0
71c0
71c0
71c0
71c0
71c0
7b80
7700
7000
7000
7000
7000
0000
ENDCHAR
STARTCHAR LtSmlQ
ENCODING 113
SWIDTH 1320 0
DWIDTH 11 0
BBX 11 22 0 -5
BITMAP
0000
0000
0000
0000
0000
0000
0000
1dc0
3bc0
71c0
71c0
71c0
71c0
71c0
71c0
3bc0
1dc0
01c0
01c0
01c0
01c0
0000
ENDCHAR
STARTCHAR LtSmlR
ENCODING 114
SWIDTH 1320 0
DWIDTH 11 0
BBX 11 22 0 -5
BITMAP
0000
0000
0000
0000
0000
0000
0000
79c0
3bc0
3cc0
3800
3800
3800
3800
3800
3800
3800
0000
0000
0000
0000
0000
ENDCHAR
STARTCHAR LtSmlS
ENCODING 115
SWIDTH 1320 0
DWIDTH 11 0
BBX 11 22 0 -5
BITMAP
0000
0000
0000
0000
0000
0000
0000
3f80
70c0
70c0
7800
3e00
0f80
03c0
61c0
61c0
3f80
0000
0000
0000
0000
0000
ENDCHAR
STARTCHAR LtSmlT
ENCODING 116
SWIDTH 1320 0
DWIDTH 11 0
BBX 11 22 0 -5
BITMAP
0000
0000
0000
0000
0c00
0c00
1c00
7f00
1c00
1c00
1c00
1c00
1c00
1c00
1cc0
1cc0
0f80
0000
0000
0000
0000
0000
ENDCHAR
STARTCHAR LtSmlU
ENCODING 117
SWIDTH 1320 0
DWIDTH 11 0
BBX 11 22 0 -5
BITMAP
0000
0000
0000
0000
0000
0000
0000
71c0
71c0
71c0
71c0
71c0
71c0
71c0
71c0
73c0
3dc0
0000
0000
0000
0000
0000
ENDCHAR
STARTCHAR LtSmlV
ENCODING 118
SWIDTH 1320 0
DWIDTH 11 0
BBX 11 22 0 -5
BITMAP
0000
0000
0000
0000
0000
0000
0000
6040
70c0
70c0
3980
3980
1d00
1f00
0e00
0e00
0400
0000
0000
0000
0000
0000
ENDCHAR
STARTCHAR LtSmlW
ENCODING 119
SWIDTH 1320 0
DWIDTH 11 0
BBX 11 22 0 -5
BITMAP
0000
0000
0000
0000
0000
0000
0000
e0c0
e0c0
e4c0
eec0
eec0
eec0
7f80
7380
7380
7380
0000
0000
0000
0000
0000
ENDCHAR
STARTCHAR LtSmlX
ENCODING 120
SWIDTH 1320 0
DWIDTH 11 0
BBX 11 22 0 -5
BITMAP
0000
0000
0000
0000
0000
0000
0000
70c0
7180
3980
1f00
1e00
0f00
1f00
3380
31c0
61c0
0000
0000
0000
0000
0000
ENDCHAR
STARTCHAR LtSmlY
ENCODING 121
SWIDTH 1320 0
DWIDTH 11 0
BBX 11 22 0 -5
BITMAP
0000
0000
0000
0000
0000
0000
0000
60c0
70c0
7080
3980
3980
1d00
1f00
0f00
0e00
0600
0600
6400
6c00
3800
0000
ENDCHAR
STARTCHAR LtSmlZ
ENCODING 122
SWIDTH 1320 0
DWIDTH 11 0
BBX 11 22 0 -5
BITMAP
0000
0000
0000
0000
0000
0000
0000
7fc0
63c0
6380
0700
0f00
1e00
1c00
38c0
78c0
7fc0
0000
0000
0000
0000
0000
ENDCHAR
STARTCHAR PCurlyBrackL
ENCODING 123
SWIDTH 1320 0
DWIDTH 11 0
BBX 11 22 0 -5
BITMAP
0000
0000
0380
0600
0e00
0e00
0e00
0e00
0c00
3800
3800
0c00
0e00
0e00
0e00
0e00
0600
0380
0000
0000
0000
0000
ENDCHAR
STARTCHAR OVertBar
ENCODING 124
SWIDTH 1320 0
DWIDTH 11 0
BBX 11 22 0 -5
BITMAP
0000
0000
0e00
0e00
0e00
0e00
0e00
0e00
0e00
0e00
0e00
0e00
0e00
0e00
0e00
0e00
0e00
0e00
0000
0000
0000
0000
ENDCHAR
STARTCHAR PCurlyBrackR
ENCODING 125
SWIDTH 1320 0
DWIDTH 11 0
BBX 11 22 0 -5
BITMAP
0000
0000
3800
0c00
0e00
0e00
0e00
0e00
0600
0380
0380
0600
0e00
0e00
0e00
0e00
0c00
3800
0000
0000
0000
0000
ENDCHAR
STARTCHAR AccTildeAscii
ENCODING 126
SWIDTH 1320 0
DWIDTH 11 0
BBX 11 22 0 -5
BITMAP
0000
0000
38c0
7dc0
77c0
6380
0000
0000
0000
0000
0000
0000
0000
0000
0000
0000
0000
0000
0000
0000
0000
0000
ENDCHAR
STARTCHAR SpaceNoBreak
ENCODING 160
SWIDTH 1320 0
DWIDTH 11 0
BBX 11 22 0 -5
BITMAP
0000
0000
0000
0000
0000
0000
0000
0000
0000
0000
0000
0000
60c0
60c0
60c0
7fc0
7fc0
7fc0
0000
0000
0000
0000
ENDCHAR
STARTCHAR PExclamInv
ENCODING 161
SWIDTH 1320 0
DWIDTH 11 0
BBX 11 22 0 -5
BITMAP
0000
0000
0000
0000
0000
0000
0000
0e00
0e00
0e00
0000
0000
0e00
0e00
0e00
0e00
0e00
0e00
0e00
0e00
0e00
0000
ENDCHAR
STARTCHAR CurrCent
ENCODING 162
SWIDTH 1320 0
DWIDTH 11 0
BBX 11 22 0 -5
BITMAP
0000
0000
0000
0000
0000
0000
00c0
1f80
39c0
71c0
7300
7300
7600
7600
7cc0
3dc0
1f80
3000
0000
0000
0000
0000
ENDCHAR
STARTCHAR CurrPound
ENCODING 163
SWIDTH 1320 0
DWIDTH 11 0
BBX 11 22 0 -5
BITMAP
0000
0000
0000
0000
0f80
1cc0
38c0
3800
3800
7e00
7e00
3800
3800
3040
7fc0
ffc0
ffc0
0000
0000
0000
0000
0000
ENDCHAR
STARTCHAR CurrGeneral
ENCODING 164
SWIDTH 1320 0
DWIDTH 11 0
BBX 11 22 0 -5
BITMAP
0000
0000
0000
0000
0000
2080
71c0
7fc0
3f80
3b80
3180
3b80
3f80
7fc0
71c0
2080
0000
0000
0000
0000
0000
0000
ENDCHAR
STARTCHAR CurrYen
ENCODING 165
SWIDTH 1320 0
DWIDTH 11 0
BBX 11 22 0 -5
BITMAP
0000
0000
0000
0000
e0c0
70c0
7180
3980
3b00
1f00
7fc0
0e00
7fc0
0e00
0e00
0e00
0e00
0000
0000
0000
0000
0000
ENDCHAR
STARTCHAR OVertBarBroken
ENCODING 166
SWIDTH 1320 0
DWIDTH 11 0
BBX 11 22 0 -5
BITMAP
0000
0000
0e00
0e00
0e00
0e00
0e00
0e00
0e00
0000
0000
0e00
0e00
0e00
0e00
0e00
0e00
0e00
0000
0000
0000
0000
ENDCHAR
STARTCHAR SParagraph
ENCODING 167
SWIDTH 1320 0
DWIDTH 11 0
BBX 11 22 0 -5
BITMAP
0000
0000
0000
1f00
3b80
3b80
3800
1c00
0e00
1f00
3b80
3b80
3b80
3b80
1f00
0e00
0700
0380
3b80
3b80
1f00
0000
ENDCHAR
STARTCHAR AccDrss
ENCODING 168
SWIDTH 1320 0
DWIDTH 11 0
BBX 11 22 0 -5
BITMAP
0000
0000
7380
7380
7380
0000
0000
0000
0000
0000
0000
0000
0000
0000
0000
0000
0000
0000
0000
0000
0000
0000
ENDCHAR
STARTCHAR SCopyright
ENCODING 169
SWIDTH 1320 0
DWIDTH 11 0
BBX 11 22 0 -5
BITMAP
0000
0000
0000
0000
0000
1f00
3b80
60c0
ce60
db60
9820
9820
db60
ce60
60c0
3b80
1f00
0000
0000
0000
0000
0000
ENDCHAR
STARTCHAR OrdFem
ENCODING 170
SWIDTH 1320 0
DWIDTH 11 0
BBX 11 22 0 -5
BITMAP
0000
0000
0000
1f00
1b80
0380
1f80
3b80
1f80
0000
3f80
3f80
0000
0000
0000
0000
0000
0000
0000
0000
0000
0000
ENDCHAR
STARTCHAR PQuoteAngle2L
ENCODING 171
SWIDTH 1320 0
DWIDTH 11 0
BBX 11 22 0 -5
BITMAP
0000
0000
0000
0000
0000
0000
0000
0cc0
1dc0
3b80
7700
7700
3b80
1dc0
0cc0
0000
0000
0000
0000
0000
0000
0000
ENDCHAR
STARTCHAR MNot
ENCODING 172
SWIDTH 1320 0
DWIDTH 11 0
BBX 11 22 0 -5
BITMAP
0000
0000
0000
0000
0000
0000
0000
0000
0000
0000
7f80
7f80
7f80
0380
0380
0380
0000
0000
0000
0000
0000
0000
ENDCHAR
STARTCHAR PHyphenSoft
ENCODING 173
SWIDTH 1320 0
DWIDTH 11 0
BBX 11 22 0 -5
BITMAP
0000
0000
0000
0000
0000
0000
0000
0000
0000
0000
3f00
3f00
3f00
0000
0000
0000
0000
0000
0000
0000
0000
0000
ENDCHAR
STARTCHAR SRegistered
ENCODING 174
SWIDTH 1320 0
DWIDTH 11 0
BBX 11 22 0 -5
BITMAP
0000
0000
0000
0000
0000
1f00
3b80
60c0
de60
db60
9b20
9e20
da60
db60
60c0
3b80
1f00
0000
0000
0000
0000
0000
ENDCHAR
STARTCHAR AccMacronLong
ENCODING 175
SWIDTH 1320 0
DWIDTH 11 0
BBX 11 22 0 -5
BITMAP
0000
0000
0000
7fc0
7fc0
0000
0000
0000
0000
0000
0000
0000
0000
0000
0000
0000
0000
0000
0000
0000
0000
0000
ENDCHAR
STARTCHAR SDegree
ENCODING 176
SWIDTH 1320 0
DWIDTH 11 0
BBX 11 22 0 -5
BITMAP
0000
0000
1e00
3f00
3300
3300
3f00
1e00
0000
0000
0000
0000
0000
0000
0000
0000
0000
0000
0000
0000
0000
0000
ENDCHAR
STARTCHAR MPlusMinus
ENCODING 177
SWIDTH 1320 0
DWIDTH 11 0
BBX 11 22 0 -5
BITMAP
0000
0000
0000
0000
0000
0e00
0e00
0e00
7fc0
7fc0
7fc0
0e00
0e00
0e00
0000
7fc0
7fc0
7fc0
0000
0000
0000
0000
ENDCHAR
STARTCHAR Sup2
ENCODING 178
SWIDTH 1320 0
DWIDTH 11 0
BBX 11 22 0 -5
BITMAP
0000
0000
1f00
3b80
0380
0700
0e00
1800
3f80
3f80
0000
0000
0000
0000
0000
0000
0000
0000
0000
0000
0000
0000
ENDCHAR
STARTCHAR Sup3
ENCODING 179
SWIDTH 1320 0
DWIDTH 11 0
BBX 11 22 0 -5
BITMAP
0000
0000
1f00
3b80
0380
0700
0300
0380
3b80
1f00
0000
0000
0000
0000
0000
0000
0000
0000
0000
0000
0000
0000
ENDCHAR
STARTCHAR AccAcute
ENCODING 180
SWIDTH 1320 0
DWIDTH 11 0
BBX 11 22 0 -5
BITMAP
0000
0000
0300
0700
0e00
1c00
1800
0000
0000
0000
0000
0000
0000
0000
0000
0000
0000
0000
0000
0000
0000
0000
ENDCHAR
STARTCHAR SMicro
ENCODING 181
SWIDTH 1320 0
DWIDTH 11 0
BBX 11 22 0 -5
BITMAP
0000
0000
0000
0000
0000
0000
0000
71c0
71c0
71c0
71c0
71c0
71c0
71c0
71c0
7fc0
76c0
7000
7000
7000
7000
0000
ENDCHAR
STARTCHAR SPilcrow
ENCODING 182
SWIDTH 1320 0
DWIDTH 11 0
BBX 11 22 0 -5
BITMAP
0000
0000
0000
0000
3fc0
7fc0
6dc0
6dc0
6dc0
7dc0
3dc0
0dc0
0dc0
0dc0
0dc0
0dc0
0dc0
0000
0000
0000
0000
0000
ENDCHAR
STARTCHAR PMiddleDot
ENCODING 183
SWIDTH 1320 0
DWIDTH 11 0
BBX 11 22 0 -5
BITMAP
0000
0000
0000
0000
0000
0000
0000
0000
0000
0000
0e00
0e00
0e00
0000
0000
0000
0000
0000
0000
0000
0000
0000
ENDCHAR
STARTCHAR AccCedilla
ENCODING 184
SWIDTH 1320 0
DWIDTH 11 0
BBX 11 22 0 -5
BITMAP
0000
0000
0000
0000
0000
0000
0000
0000
0000
0000
0000
0000
0000
0000
0000
0000
0e00
0e00
0700
3f00
3e00
0000
ENDCHAR
STARTCHAR Sup1
ENCODING 185
SWIDTH 1320 0
DWIDTH 11 0
BBX 11 22 0 -5
BITMAP
0000
0000
0e00
1e00
3e00
2e00
0e00
0e00
0e00
0e00
0000
0000
0000
0000
0000
0000
0000
0000
0000
0000
0000
0000
ENDCHAR
STARTCHAR OrdMasc
ENCODING 186
SWIDTH 1320 0
DWIDTH 11 0
BBX 11 22 0 -5
BITMAP
0000
0000
0000
1f00
3b80
3b80
3b80
3b80
1f00
0000
3f80
3f80
0000
0000
0000
0000
0000
0000
0000
0000
0000
0000
ENDCHAR
STARTCHAR PQuoteAngle2R
ENCODING 187
SWIDTH 1320 0
DWIDTH 11 0
BBX 11 22 0 -5
BITMAP
0000
0000
0000
0000
0000
0000
0000
6600
7700
3b80
1dc0
1dc0
3b80
7700
6600
0000
0000
0000
0000
0000
0000
0000
ENDCHAR
STARTCHAR Frac14
ENCODING 188
SWIDTH 1320 0
DWIDTH 11 0
BBX 11 22 0 -5
BITMAP
0000
0000
3000
7000
f000
3000
30c0
31c0
3780
0e00
1c00
7180
e380
c380
0580
0fc0
0fc0
0180
0000
0000
0000
0000
ENDCHAR
STARTCHAR Frac12
ENCODING 189
SWIDTH 1320 0
DWIDTH 11 0
BBX 11 22 0 -5
BITMAP
0000
0000
3000
7000
f000
3000
30c0
31c0
3780
0e00
1c00
7780
edc0
c1c0
0380
0600
0fc0
0fc0
0000
0000
0000
0000
ENDCHAR
STARTCHAR Frac34
ENCODING 190
SWIDTH 1320 0
DWIDTH 11 0
BBX 11 22 0 -5
BITMAP
0000
0000
7800
dc00
1c00
3800
1cc0
ddc0
7b80
0e00
1c00
7180
e380
c380
0580
0fc0
0fc0
0180
0000
0000
0000
0000
ENDCHAR
STARTCHAR PQuestionInv
ENCODING 191
SWIDTH 1320 0
DWIDTH 11 0
BBX 11 22 0 -5
BITMAP
0000
0000
0000
0000
0000
0000
0000
0e00
0e00
0e00
0000
0000
0e00
0e00
1c00
3800
3000
71c0
71c0
3bc0
1f80
0000
ENDCHAR
STARTCHAR LtCapAGrave
ENCODING 192
SWIDTH 1320 0
DWIDTH 11 0
BBX 11 22 0 -5
BITMAP
1c00
0c00
0600
0000
0c00
0e00
1e00
1e00
1f00
3700
3700
2380
7f80
6380
61c0
c1c0
c1c0
0000
0000
0000
0000
0000
ENDCHAR
STARTCHAR LtCapAAcute
ENCODING 193
SWIDTH 1320 0
DWIDTH 11 0
BBX 11 22 0 -5
BITMAP
0700
0600
0c00
0000
0c00
0e00
1e00
1e00
1f00
3700
3700
2380
7f80
6380
61c0
c1c0
c1c0
0000
0000
0000
0000
0000
ENDCHAR
STARTCHAR LtCapACircum
ENCODING 194
SWIDTH 1320 0
DWIDTH 11 0
BBX 11 22 0 -5
BITMAP
0c00
1e00
3300
0000
0c00
0e00
1e00
1e00
1f00
3700
3700
2380
7f80
6380
61c0
c1c0
c1c0
0000
0000
0000
0000
0000
ENDCHAR
STARTCHAR LtCapATilde
ENCODING 195
SWIDTH 1320 0
DWIDTH 11 0
BBX 11 22 0 -5
BITMAP
1900
3f00
2600
0000
0c00
0e00
1e00
1e00
1f00
3700
3700
2380
7f80
6380
61c0
c1c0
c1c0
0000
0000
0000
0000
0000
ENDCHAR
STARTCHAR LtCapADrss
ENCODING 196
SWIDTH 1320 0
DWIDTH 11 0
BBX 11 22 0 -5
BITMAP
3300
3300
3300
0000
0c00
0e00
1e00
1e00
1f00
3700
3700
2380
7f80
6380
61c0
c1c0
c1c0
0000
0000
0000
0000
0000
ENDCHAR
STARTCHAR LtCapARing
ENCODING 197
SWIDTH 1320 0
DWIDTH 11 0
BBX 11 22 0 -5
BITMAP
0e00
1b00
1b00
0e00
0400
0e00
0e00
1e00
1f00
3700
3700
2380
7f80
6380
61c0
c1c0
c1c0
0000
0000
0000
0000
0000
ENDCHAR
STARTCHAR LtCapAE
ENCODING 198
SWIDTH 1320 0
DWIDTH 11 0
BBX 11 22 0 -5
BITMAP
0000
0000
0000
0000
0fc0
1ec0
1ec0
1e00
3e00
3e80
2f80
6e80
7e00
6e00
cec0
cec0
cfc0
0000
0000
0000
0000
0000
ENDCHAR
STARTCHAR LtCapCCedilla
ENCODING 199
SWIDTH 1320 0
DWIDTH 11 0
BBX 11 22 0 -5
BITMAP
0000
0000
0000
0000
0fc0
38c0
30c0
7000
7000
7000
7000
7000
7000
7000
30c0
39c0
0f80
0400
0600
0700
1e00
0000
ENDCHAR
STARTCHAR LtCapEGrave
ENCODING 200
SWIDTH 1320 0
DWIDTH 11 0
BBX 11 22 0 -5
BITMAP
1c00
0c00
0600
0000
7fc0
70c0
70c0
7000
7000
7200
7e00
7200
7000
7000
70c0
70c0
7fc0
0000
0000
0000
0000
0000
ENDCHAR
STARTCHAR LtCapEAcute
ENCODING 201
SWIDTH 1320 0
DWIDTH 11 0
BBX 11 22 0 -5
BITMAP
0700
0600
0c00
0000
7fc0
70c0
70c0
7000
7000
7200
7e00
7200
7000
7000
70c0
70c0
7fc0
0000
0000
0000
0000
0000
ENDCHAR
STARTCHAR LtCapECircum
ENCODING 202
SWIDTH 1320 0
DWIDTH 11 0
BBX 11 22 0 -5
BITMAP
0c00
1e00
3300
0000
7fc0
70c0
70c0
7000
7000
7200
7e00
7200
7000
7000
70c0
70c0
7fc0
0000
0000
0000
0000
0000
ENDCHAR
STARTCHAR LtCapEDrss
ENCODING 203
SWIDTH 1320 0
DWIDTH 11 0
BBX 11 22 0 -5
BITMAP
1980
1980
1980
0000
7fc0
70c0
70c0
7000
7000
7200
7e00
7200
7000
7000
70c0
70c0
7fc0
0000
0000
0000
0000
0000
ENDCHAR
STARTCHAR LtCapIGrave
ENCODING 204
SWIDTH 1320 0
DWIDTH 11 0
BBX 11 22 0 -5
BITMAP
1c00
0c00
0600
0000
3f80
0e00
0e00
0e00
0e00
0e00
0e00
0e00
0e00
0e00
0e00
0e00
3f80
0000
0000
0000
0000
0000
ENDCHAR
STARTCHAR LtCapIAcute
ENCODING 205
SWIDTH 1320 0
DWIDTH 11 0
BBX 11 22 0 -5
BITMAP
0700
0600
0c00
0000
3f80
0e00
0e00
0e00
0e00
0e00
0e00
0e00
0e00
0e00
0e00
0e00
3f80
0000
0000
0000
0000
0000
ENDCHAR
STARTCHAR LtCapICircum
ENCODING 206
SWIDTH 1320 0
DWIDTH 11 0
BBX 11 22 0 -5
BITMAP
0600
0f00
1980
0000
3f80
0e00
0e00
0e00
0e00
0e00
0e00
0e00
0e00
0e00
0e00
0e00
3f80
0000
0000
0000
0000
0000
ENDCHAR
STARTCHAR LtCapIDrss
ENCODING 207
SWIDTH 1320 0
DWIDTH 11 0
BBX 11 22 0 -5
BITMAP
1980
1980
1980
0000
3f80
0e00
0e00
0e00
0e00
0e00
0e00
0e00
0e00
0e00
0e00
0e00
3f80
0000
0000
0000
0000
0000
ENDCHAR
STARTCHAR LtCapEth
ENCODING 208
SWIDTH 1320 0
DWIDTH 11 0
BBX 11 22 0 -5
BITMAP
0000
0000
0000
0000
7e00
7380
7180
71c0
71c0
fdc0
fdc0
71c0
71c0
71c0
7180
7380
7e00
0000
0000
0000
0000
0000
ENDCHAR
STARTCHAR LtCapNTilde
ENCODING 209
SWIDTH 1320 0
DWIDTH 11 0
BBX 11 22 0 -5
BITMAP
0c80
1f80
1300
0000
70c0
78c0
78c0
7cc0
7cc0
6ec0
6ec0
67c0
67c0
63c0
63c0
61c0
61c0
0000
0000
0000
0000
0000
ENDCHAR
STARTCHAR LtCapOGrave
ENCODING 210
SWIDTH 1320 0
DWIDTH 11 0
BBX 11 22 0 -5
BITMAP
3800
1800
0c00
0000
1e00
7380
6180
e1c0
e1c0
e1c0
e1c0
e1c0
e1c0
e1c0
6180
7380
1e00
0000
0000
0000
0000
0000
ENDCHAR
STARTCHAR LtCapOAcute
ENCODING 211
SWIDTH 1320 0
DWIDTH 11 0
BBX 11 22 0 -5
BITMAP
0700
0600
0c00
0000
1e00
7380
6180
e1c0
e1c0
e1c0
e1c0
e1c0
e1c0
e1c0
6180
7380
1e00
0000
0000
0000
0000
0000
ENDCHAR
STARTCHAR LtCapOCircum
ENCODING 212
SWIDTH 1320 0
DWIDTH 11 0
BBX 11 22 0 -5
BITMAP
0c00
1e00
3300
0000
1e00
7380
6180
e1c0
e1c0
e1c0
e1c0
e1c0
e1c0
e1c0
6180
7380
1e00
0000
0000
0000
0000
0000
ENDCHAR
STARTCHAR LtCapOTilde
ENCODING 213
SWIDTH 1320 0
DWIDTH 11 0
BBX 11 22 0 -5
BITMAP
1900
3f00
2600
0000
1e00
7380
6180
e1c0
e1c0
e1c0
e1c0
e1c0
e1c0
e1c0
6180
7380
1e00
0000
0000
0000
0000
0000
ENDCHAR
STARTCHAR LtCapODrss
ENCODING 214
SWIDTH 1320 0
DWIDTH 11 0
BBX 11 22 0 -5
BITMAP
3300
3300
3300
0000
1e00
7380
6180
e1c0
e1c0
e1c0
e1c0
e1c0
e1c0
e1c0
6180
7380
1e00
0000
0000
0000
0000
0000
ENDCHAR
STARTCHAR MMultiply
ENCODING 215
SWIDTH 1320 0
DWIDTH 11 0
BBX 11 22 0 -5
BITMAP
0000
0000
0000
0000
0000
0000
0000
60c0
71c0
3b80
1f00
0e00
1f00
3b80
71c0
60c0
0000
0000
0000
0000
0000
0000
ENDCHAR
STARTCHAR LtCapOStroke
ENCODING 216
SWIDTH 1320 0
DWIDTH 11 0
BBX 11 22 0 -5
BITMAP
0000
0000
0000
0080
1e80
7380
6380
e3c0
e7c0
e5c0
edc0
e9c0
f9c0
f1c0
7180
7380
5e00
4000
0000
0000
0000
0000
ENDCHAR
STARTCHAR LtCapUGrave
ENCODING 217
SWIDTH 1320 0
DWIDTH 11 0
BBX 11 22 0 -5
BITMAP
1c00
0c00
0600
0000
70c0
70c0
70c0
70c0
70c0
70c0
70c0
70c0
70c0
70c0
70c0
3980
1f00
0000
0000
0000
0000
0000
ENDCHAR
STARTCHAR LtCapUAcute
ENCODING 218
SWIDTH 1320 0
DWIDTH 11 0
BBX 11 22 0 -5
BITMAP
0380
0300
0600
0000
70c0
70c0
70c0
70c0
70c0
70c0
70c0
70c0
70c0
70c0
70c0
3980
1f00
0000
0000
0000
0000
0000
ENDCHAR
STARTCHAR LtCapUCircum
ENCODING 219
SWIDTH 1320 0
DWIDTH 11 0
BBX 11 22 0 -5
BITMAP
0600
0f00
1980
0000
70c0
70c0
70c0
70c0
70c0
70c0
70c0
70c0
70c0
70c0
70c0
3980
1f00
0000
0000
0000
0000
0000
ENDCHAR
STARTCHAR LtCapUDrss
ENCODING 220
SWIDTH 1320 0
DWIDTH 11 0
BBX 11 22 0 -5
BITMAP
1980
1980
1980
0000
70c0
70c0
70c0
70c0
70c0
70c0
70c0
70c0
70c0
70c0
70c0
3980
1f00
0000
0000
0000
0000
0000
ENDCHAR
STARTCHAR LtCapYAcute
ENCODING 221
SWIDTH 1320 0
DWIDTH 11 0
BBX 11 22 0 -5
BITMAP
0700
0600
0c00
0000
e0c0
70c0
7180
3980
3b00
1f00
1e00
0e00
0e00
0e00
0e00
0e00
0e00
0000
0000
0000
0000
0000
ENDCHAR
STARTCHAR LtCapThorn
ENCODING 222
SWIDTH 1320 0
DWIDTH 11 0
BBX 11 22 0 -5
BITMAP
0000
0000
0000
0000
7000
7000
7000
7f00
7380
71c0
71c0
71c0
7380
7f00
7000
7000
7000
0000
0000
0000
0000
0000
ENDCHAR
STARTCHAR LtSmlSz
ENCODING 223
SWIDTH 1320 0
DWIDTH 11 0
BBX 11 22 0 -5
BITMAP
0000
0000
0000
3f00
7380
7380
7380
7300
7600
7700
7380
71c0
71c0
71c0
71c0
75c0
7780
0000
0000
0000
0000
0000
ENDCHAR
STARTCHAR LtSmlAGrave
ENCODING 224
SWIDTH 1320 0
DWIDTH 11 0
BBX 11 22 0 -5
BITMAP
0000
0000
1c00
0c00
0600
0200
0000
1f80
39c0
31c0
01c0
1fc0
39c0
71c0
71c0
73c0
3dc0
0000
0000
0000
0000
0000
ENDCHAR
STARTCHAR LtSmlAAcute
ENCODING 225
SWIDTH 1320 0
DWIDTH 11 0
BBX 11 22 0 -5
BITMAP
0000
0000
0380
0300
0600
0400
0000
1f80
39c0
31c0
01c0
1fc0
39c0
71c0
71c0
73c0
3dc0
0000
0000
0000
0000
0000
ENDCHAR
STARTCHAR LtSmlACircum
ENCODING 226
SWIDTH 1320 0
DWIDTH 11 0
BBX 11 22 0 -5
BITMAP
0000
0000
0600
0f00
1980
0000
0000
1f80
39c0
31c0
01c0
1fc0
39c0
71c0
71c0
73c0
3dc0
0000
0000
0000
0000
0000
ENDCHAR
STARTCHAR LtSmlATilde
ENCODING 227
SWIDTH 1320 0
DWIDTH 11 0
BBX 11 22 0 -5
BITMAP
0000
0000
0000
0c80
1f80
1300
0000
1f80
39c0
31c0
01c0
1fc0
39c0
71c0
71c0
73c0
3dc0
0000
0000
0000
0000
0000
ENDCHAR
STARTCHAR LtSmlADrss
ENCODING 228
SWIDTH 1320 0
DWIDTH 11 0
BBX 11 22 0 -5
BITMAP
0000
0000
1980
1980
1980
0000
0000
1f80
39c0
31c0
01c0
1fc0
39c0
71c0
71c0
73c0
3dc0
0000
0000
0000
0000
0000
ENDCHAR
STARTCHAR LtSmlARing
ENCODING 229
SWIDTH 1320 0
DWIDTH 11 0
BBX 11 22 0 -5
BITMAP
0000
0e00
1b00
1100
1b00
0e00
0000
1f80
39c0
31c0
01c0
1fc0
39c0
71c0
71c0
73c0
3dc0
0000
0000
0000
0000
0000
ENDCHAR
STARTCHAR LtSmlAE
ENCODING 230
SWIDTH 1320 0
DWIDTH 11 0
BBX 11 22 0 -5
BITMAP
0000
0000
0000
0000
0000
0000
0000
7b80
6ec0
0ec0
0ec0
3fc0
6e00
ce00
cec0
fec0
7b80
0000
0000
0000
0000
0000
ENDCHAR
STARTCHAR LtSmlCCedilla
ENCODING 231
SWIDTH 1320 0
DWIDTH 11 0
BBX 11 22 0 -5
BITMAP
0000
0000
0000
0000
0000
0000
0000
1f80
39c0
70c0
7000
7000
7000
7000
70c0
39c0
1f80
0400
0600
0700
1e00
0000
ENDCHAR
STARTCHAR LtSmlEGrave
ENCODING 232
SWIDTH 1320 0
DWIDTH 11 0
BBX 11 22 0 -5
BITMAP
0000
0000
1c00
0c00
0600
0200
0000
1f80
39c0
71c0
71c0
7fc0
7000
7000
70c0
39c0
1f80
0000
0000
0000
0000
0000
ENDCHAR
STARTCHAR LtSmlEAcute
ENCODING 233
SWIDTH 1320 0
DWIDTH 11 0
BBX 11 22 0 -5
BITMAP
0000
0000
0700
0600
0c00
0800
0000
1f80
39c0
71c0
71c0
7fc0
7000
7000
70c0
39c0
1f80
0000
0000
0000
0000
0000
ENDCHAR
STARTCHAR LtSmlECircum
ENCODING 234
SWIDTH 1320 0
DWIDTH 11 0
BBX 11 22 0 -5
BITMAP
0000
0000
0600
0f00
1980
0000
0000
1f80
39c0
71c0
71c0
7fc0
7000
7000
70c0
39c0
1f80
0000
0000
0000
0000
0000
ENDCHAR
STARTCHAR LtSmlEDrss
ENCODING 235
SWIDTH 1320 0
DWIDTH 11 0
BBX 11 22 0 -5
BITMAP
0000
0000
1980
1980
1980
0000
0000
1f80
39c0
71c0
71c0
7fc0
7000
7000
70c0
39c0
1f80
0000
0000
0000
0000
0000
ENDCHAR
STARTCHAR LtSmlIGrave
ENCODING 236
SWIDTH 1320 0
DWIDTH 11 0
BBX 11 22 0 -5
BITMAP
0000
0000
3800
1800
0c00
0400
0000
3e00
0e00
0e00
0e00
0e00
0e00
0e00
0e00
0e00
3f80
0000
0000
0000
0000
0000
ENDCHAR
STARTCHAR LtSmlIAcute
ENCODING 237
SWIDTH 1320 0
DWIDTH 11 0
BBX 11 22 0 -5
BITMAP
0000
0000
0700
0600
0c00
0800
0000
3e00
0e00
0e00
0e00
0e00
0e00
0e00
0e00
0e00
3f80
0000
0000
0000
0000
0000
ENDCHAR
STARTCHAR LtSmlICircum
ENCODING 238
SWIDTH 1320 0
DWIDTH 11 0
BBX 11 22 0 -5
BITMAP
0000
0000
0c00
1e00
3300
0000
0000
3e00
0e00
0e00
0e00
0e00
0e00
0e00
0e00
0e00
3f80
0000
0000
0000
0000
0000
ENDCHAR
STARTCHAR LtSmlIDrss
ENCODING 239
SWIDTH 1320 0
DWIDTH 11 0
BBX 11 22 0 -5
BITMAP
0000
0000
3300
3300
3300
0000
0000
3e00
0e00
0e00
0e00
0e00
0e00
0e00
0e00
0e00
3f80
0000
0000
0000
0000
0000
ENDCHAR
STARTCHAR LtSmlEth
ENCODING 240
SWIDTH 1320 0
DWIDTH 11 0
BBX 11 22 0 -5
BITMAP
0000
0000
0000
3b00
1e00
3700
0380
1f80
3bc0
71c0
71c0
71c0
71c0
71c0
71c0
3b80
1f00
0000
0000
0000
0000
0000
ENDCHAR
STARTCHAR LtSmlNTilde
ENCODING 241
SWIDTH 1320 0
DWIDTH 11 0
BBX 11 22 0 -5
BITMAP
0000
0000
0000
0c80
1f80
1300
0000
7780
79c0
71c0
71c0
71c0
71c0
71c0
71c0
71c0
71c0
0000
0000
0000
0000
0000
ENDCHAR
STARTCHAR LtSmlOGrave
ENCODING 242
SWIDTH 1320 0
DWIDTH 11 0
BBX 11 22 0 -5
BITMAP
0000
0000
3800
1800
0c00
0400
0000
1f00
3b80
71c0
71c0
71c0
71c0
71c0
71c0
3b80
1f00
0000
0000
0000
0000
0000
ENDCHAR
STARTCHAR LtSmlOAcute
ENCODING 243
SWIDTH 1320 0
DWIDTH 11 0
BBX 11 22 0 -5
BITMAP
0000
0000
0380
0300
0600
0400
0000
1f00
3b80
71c0
71c0
71c0
71c0
71c0
71c0
3b80
1f00
0000
0000
0000
0000
0000
ENDCHAR
STARTCHAR LtSmlOCircum
ENCODING 244
SWIDTH 1320 0
DWIDTH 11 0
BBX 11 22 0 -5
BITMAP
0000
0000
0600
0f00
1980
0000
0000
1f00
3b80
71c0
71c0
71c0
71c0
71c0
71c0
3b80
1f00
0000
0000
0000
0000
0000
ENDCHAR
STARTCHAR LtSmlOTilde
ENCODING 245
SWIDTH 1320 0
DWIDTH 11 0
BBX 11 22 0 -5
BITMAP
0000
0000
0000
0c80
1f80
1300
0000
1f00
3b80
71c0
71c0
71c0
71c0
71c0
71c0
3b80
1f00
0000
0000
0000
0000
0000
ENDCHAR
STARTCHAR LtSmlODrss
ENCODING 246
SWIDTH 1320 0
DWIDTH 11 0
BBX 11 22 0 -5
BITMAP
0000
0000
1980
1980
1980
0000
0000
1f00
3b80
71c0
71c0
71c0
71c0
71c0
71c0
3b80
1f00
0000
0000
0000
0000
0000
ENDCHAR
STARTCHAR MDivision
ENCODING 247
SWIDTH 1320 0
DWIDTH 11 0
BBX 11 22 0 -5
BITMAP
0000
0000
0000
0000
0000
0000
0e00
0e00
0e00
0000
7fc0
7fc0
0000
0e00
0e00
0e00
0000
0000
0000
0000
0000
0000
ENDCHAR
STARTCHAR LtSmlOStroke
ENCODING 248
SWIDTH 1320 0
DWIDTH 11 0
BBX 11 22 0 -5
BITMAP
0000
0000
0000
0000
0000
0000
00c0
1f80
3b80
73c0
77c0
75c0
75c0
7dc0
79c0
3b80
3f00
6000
0000
0000
0000
0000
ENDCHAR
STARTCHAR LtSmlUGrave
ENCODING 249
SWIDTH 1320 0
DWIDTH 11 0
BBX 11 22 0 -5
BITMAP
0000
0000
3800
1800
0c00
0400
0000
71c0
71c0
71c0
71c0
71c0
71c0
71c0
71c0
73c0
3dc0
0000
0000
0000
0000
0000
ENDCHAR
STARTCHAR LtSmlUAcute
ENCODING 250
SWIDTH 1320 0
DWIDTH 11 0
BBX 11 22 0 -5
BITMAP
0000
0000
0380
0300
0600
0400
0000
71c0
71c0
71c0
71c0
71c0
71c0
71c0
71c0
73c0
3dc0
0000
0000
0000
0000
0000
ENDCHAR
STARTCHAR LtSmlUCircum
ENCODING 251
SWIDTH 1320 0
DWIDTH 11 0
BBX 11 22 0 -5
BITMAP
0000
0000
0600
0f00
1980
0000
0000
71c0
71c0
71c0
71c0
71c0
71c0
71c0
71c0
73c0
3dc0
0000
0000
0000
0000
0000
ENDCHAR
STARTCHAR LtSmlUDrss
ENCODING 252
SWIDTH 1320 0
DWIDTH 11 0
BBX 11 22 0 -5
BITMAP
0000
0000
1980
1980
1980
0000
0000
71c0
71c0
71c0
71c0
71c0
71c0
71c0
71c0
73c0
3dc0
0000
0000
0000
0000
0000
ENDCHAR
STARTCHAR LtSmlYAcute
ENCODING 253
SWIDTH 1320 0
DWIDTH 11 0
BBX 11 22 0 -5
BITMAP
0000
0000
0380
0300
0600
0400
0000
60c0
70c0
7080
3980
3980
1d00
1f00
0f00
0e00
0600
0600
6400
6c00
3800
0000
ENDCHAR
STARTCHAR LtSmlThorn
ENCODING 254
SWIDTH 1320 0
DWIDTH 11 0
BBX 11 22 0 -5
BITMAP
0000
0000
0000
7000
7000
7000
7000
7700
7b80
71c0
71c0
71c0
71c0
71c0
71c0
7b80
7700
7000
7000
7000
7000
0000
ENDCHAR
STARTCHAR LtSmlYDrss
ENCODING 255
SWIDTH 1320 0
DWIDTH 11 0
BBX 11 22 0 -5
BITMAP
0000
0000
1980
1980
1980
0000
0000
60c0
70c0
7080
3980
3980
1d00
1f00
0f00
0e00
0600
0600
6400
6c00
3800
0000
ENDCHAR
STARTCHAR LtCapAMacron
ENCODING 256
SWIDTH 1320 0
DWIDTH 11 0
BBX 11 22 0 -5
BITMAP
1f00
1f00
0000
0000
0c00
0e00
1e00
1e00
1f00
3700
3700
2380
7f80
6380
61c0
c1c0
c1c0
0000
0000
0000
0000
0000
ENDCHAR
STARTCHAR LtSmlAMacron
ENCODING 257
SWIDTH 1320 0
DWIDTH 11 0
BBX 11 22 0 -5
BITMAP
0000
0000
0000
1f00
1f00
0000
0000
1f80
39c0
31c0
01c0
1fc0
39c0
71c0
71c0
73c0
3dc0
0000
0000
0000
0000
0000
ENDCHAR
STARTCHAR LtCapABreve
ENCODING 258
SWIDTH 1320 0
DWIDTH 11 0
BBX 11 22 0 -5
BITMAP
1100
1b00
0e00
0000
0c00
0e00
1e00
1e00
1f00
3700
3700
2380
7f80
6380
61c0
c1c0
c1c0
0000
0000
0000
0000
0000
ENDCHAR
STARTCHAR LtSmlABreve
ENCODING 259
SWIDTH 1320 0
DWIDTH 11 0
BBX 11 22 0 -5
BITMAP
0000
0000
0000
1100
1b00
0e00
0000
1f80
39c0
31c0
01c0
1fc0
39c0
71c0
71c0
73c0
3dc0
0000
0000
0000
0000
0000
ENDCHAR
STARTCHAR LtCapAOgonek
ENCODING 260
SWIDTH 1320 0
DWIDTH 11 0
BBX 11 22 0 -5
BITMAP
0000
0000
0000
0000
0c00
0e00
1e00
1e00
1f00
3700
3700
2380
7f80
6380
61c0
c1c0
c1c0
0380
0300
0300
01c0
0000
ENDCHAR
STARTCHAR LtSmlAOgonek
ENCODING 261
SWIDTH 1320 0
DWIDTH 11 0
BBX 11 22 0 -5
BITMAP
0000
0000
0000
0000
0000
0000
0000
1f80
39c0
31c0
01c0
1fc0
39c0
71c0
71c0
73c0
3dc0
0380
0300
0300
01c0
0000
ENDCHAR
STARTCHAR LtCapCAcute
ENCODING 262
SWIDTH 1320 0
DWIDTH 11 0
BBX 11 22 0 -5
BITMAP
0380
0300
0600
0000
0fc0
38c0
30c0
7000
7000
7000
7000
7000
7000
7000
30c0
39c0
0f80
0000
0000
0000
0000
0000
ENDCHAR
STARTCHAR LtSmlCAcute
ENCODING 263
SWIDTH 1320 0
DWIDTH 11 0
BBX 11 22 0 -5
BITMAP
0000
0000
0380
0300
0600
0400
0000
1f80
39c0
70c0
7000
7000
7000
7000
70c0
39c0
1f80
0000
0000
0000
0000
0000
ENDCHAR
STARTCHAR LtCapCCircum
ENCODING 264
SWIDTH 1320 0
DWIDTH 11 0
BBX 11 22 0 -5
BITMAP
0600
0f00
1980
0000
0fc0
38c0
30c0
7000
7000
7000
7000
7000
7000
7000
30c0
39c0
0f80
0000
0000
0000
0000
0000
ENDCHAR
STARTCHAR LtSmlCCircum
ENCODING 265
SWIDTH 1320 0
DWIDTH 11 0
BBX 11 22 0 -5
BITMAP
0000
0000
0600
0f00
1980
0000
0000
1f80
39c0
70c0
7000
7000
7000
7000
70c0
39c0
1f80
0000
0000
0000
0000
0000
ENDCHAR
STARTCHAR LtCapCDot
ENCODING 266
SWIDTH 1320 0
DWIDTH 11 0
BBX 11 22 0 -5
BITMAP
0600
0f00
0600
0000
0fc0
38c0
30c0
7000
7000
7000
7000
7000
7000
7000
30c0
39c0
0f80
0000
0000
0000
0000
0000
ENDCHAR
STARTCHAR LtSmlCDot
ENCODING 267
SWIDTH 1320 0
DWIDTH 11 0
BBX 11 22 0 -5
BITMAP
0000
0000
0400
0e00
0e00
0400
0000
1f80
39c0
70c0
7000
7000
7000
7000
70c0
39c0
1f80
0000
0000
0000
0000
0000
ENDCHAR
STARTCHAR LtCapCCaron
ENCODING 268
SWIDTH 1320 0
DWIDTH 11 0
BBX 11 22 0 -5
BITMAP
1980
0f00
0600
0000
0fc0
38c0
30c0
7000
7000
7000
7000
7000
7000
7000
30c0
39c0
0f80
0000
0000
0000
0000
0000
ENDCHAR
STARTCHAR LtSmlCCaron
ENCODING 269
SWIDTH 1320 0
DWIDTH 11 0
BBX 11 22 0 -5
BITMAP
0000
0000
0000
1980
0f00
0600
0000
1f80
39c0
70c0
7000
7000
7000
7000
70c0
39c0
1f80
0000
0000
0000
0000
0000
ENDCHAR
STARTCHAR LtCapDCaron
ENCODING 270
SWIDTH 1320 0
DWIDTH 11 0
BBX 11 22 0 -5
BITMAP
3300
1e00
0c00
0000
7e00
7380
7180
71c0
71c0
71c0
71c0
71c0
71c0
71c0
7180
7380
7e00
0000
0000
0000
0000
0000
ENDCHAR
STARTCHAR LtSmlDCaron
ENCODING 271
SWIDTH 1320 0
DWIDTH 11 0
BBX 11 22 0 -5
BITMAP
0000
0000
00e0
0760
0760
07c0
0700
3700
6f00
e700
e700
e700
e700
e700
e700
6f00
3700
0000
0000
0000
0000
0000
ENDCHAR
STARTCHAR LtCapDStroke
ENCODING 272
SWIDTH 1320 0
DWIDTH 11 0
BBX 11 22 0 -5
BITMAP
0000
0000
0000
0000
7e00
7380
7180
71c0
71c0
fdc0
fdc0
71c0
71c0
71c0
7180
7380
7e00
0000
0000
0000
0000
0000
ENDCHAR
STARTCHAR LtSmlDStroke
ENCODING 273
SWIDTH 1320 0
DWIDTH 11 0
BBX 11 22 0 -5
BITMAP
0000
0000
0000
01c0
0fe0
0fe0
01c0
1dc0
3bc0
71c0
71c0
71c0
71c0
71c0
71c0
3bc0
1dc0
0000
0000
0000
0000
0000
ENDCHAR
STARTCHAR LtCapEMacron
ENCODING 274
SWIDTH 1320 0
DWIDTH 11 0
BBX 11 22 0 -5
BITMAP
1f00
1f00
0000
0000
7fc0
70c0
70c0
7000
7000
7200
7e00
7200
7000
7000
70c0
70c0
7fc0
0000
0000
0000
0000
0000
ENDCHAR
STARTCHAR LtSmlEMacron
ENCODING 275
SWIDTH 1320 0
DWIDTH 11 0
BBX 11 22 0 -5
BITMAP
0000
0000
0000
1f00
1f00
0000
0000
1f80
39c0
71c0
71c0
7fc0
7000
7000
70c0
39c0
1f80
0000
0000
0000
0000
0000
ENDCHAR
STARTCHAR LtCapEBreve
ENCODING 276
SWIDTH 1320 0
DWIDTH 11 0
BBX 11 22 0 -5
BITMAP
1100
1b00
0e00
0000
7fc0
70c0
70c0
7000
7000
7200
7e00
7200
7000
7000
70c0
70c0
7fc0
0000
0000
0000
0000
0000
ENDCHAR
STARTCHAR LtSmlEBreve
ENCODING 277
SWIDTH 1320 0
DWIDTH 11 0
BBX 11 22 0 -5
BITMAP
0000
0000
0000
1100
1b00
0e00
0000
1f80
39c0
71c0
71c0
7fc0
7000
7000
70c0
39c0
1f80
0000
0000
0000
0000
0000
ENDCHAR
STARTCHAR LtCapEDot
ENCODING 278
SWIDTH 1320 0
DWIDTH 11 0
BBX 11 22 0 -5
BITMAP
0c00
1e00
0c00
0000
7fc0
70c0
70c0
7000
7000
7200
7e00
7200
7000
7000
70c0
70c0
7fc0
0000
0000
0000
0000
0000
ENDCHAR
STARTCHAR LtSmlEDot
ENCODING 279
SWIDTH 1320 0
DWIDTH 11 0
BBX 11 22 0 -5
BITMAP
0000
0000
0400
0e00
0e00
0400
0000
1f80
39c0
71c0
71c0
7fc0
7000
7000
70c0
39c0
1f80
0000
0000
0000
0000
0000
ENDCHAR
STARTCHAR LtCapEOgonek
ENCODING 280
SWIDTH 1320 0
DWIDTH 11 0
BBX 11 22 0 -5
BITMAP
0000
0000
0000
0000
7fc0
70c0
70c0
7000
7000
7200
7e00
7200
7000
7000
70c0
70c0
7fc0
0380
0300
0300
01c0
0000
ENDCHAR
STARTCHAR LtSmlEOgonek
ENCODING 281
SWIDTH 1320 0
DWIDTH 11 0
BBX 11 22 0 -5
BITMAP
0000
0000
0000
0000
0000
0000
0000
1f80
39c0
71c0
71c0
7fc0
7000
7000
70c0
39c0
1f80
0700
0600
0600
0380
0000
ENDCHAR
STARTCHAR LtCapECaron
ENCODING 282
SWIDTH 1320 0
DWIDTH 11 0
BBX 11 22 0 -5
BITMAP
1980
0f00
0600
0000
7fc0
70c0
70c0
7000
7000
7200
7e00
7200
7000
7000
70c0
70c0
7fc0
0000
0000
0000
0000
0000
ENDCHAR
STARTCHAR LtSmlECaron
ENCODING 283
SWIDTH 1320 0
DWIDTH 11 0
BBX 11 22 0 -5
BITMAP
0000
0000
0000
1980
0f00
0600
0000
1f80
39c0
71c0
71c0
7fc0
7000
7000
70c0
39c0
1f80
0000
0000
0000
0000
0000
ENDCHAR
STARTCHAR LtCapGCircum
ENCODING 284
SWIDTH 1320 0
DWIDTH 11 0
BBX 11 22 0 -5
BITMAP
0600
0f00
1980
0000
0fc0
38c0
30c0
7000
7000
7000
73c0
71c0
71c0
71c0
31c0
39c0
0fc0
0000
0000
0000
0000
0000
ENDCHAR
STARTCHAR LtSmlGCircum
ENCODING 285
SWIDTH 1320 0
DWIDTH 11 0
BBX 11 22 0 -5
BITMAP
0000
0000
0600
0f00
1980
0000
0000
3ec0
7380
7380
7380
7380
3f00
3000
7000
7f80
3fc0
71c0
60c0
71c0
3f80
0000
ENDCHAR
STARTCHAR LtCapGBreve
ENCODING 286
SWIDTH 1320 0
DWIDTH 11 0
BBX 11 22 0 -5
BITMAP
0880
0d80
0700
0000
0fc0
38c0
30c0
7000
7000
7000
73c0
71c0
71c0
71c0
31c0
39c0
0fc0
0000
0000
0000
0000
0000
ENDCHAR
STARTCHAR LtSmlGBreve
ENCODING 287
SWIDTH 1320 0
DWIDTH 11 0
BBX 11 22 0 -5
BITMAP
0000
0000
0000
1100
1b00
0e00
0000
3ec0
7380
7380
7380
7380
3f00
3000
7000
7f80
3fc0
71c0
60c0
71c0
3f80
0000
ENDCHAR
STARTCHAR LtCapGDot
ENCODING 288
SWIDTH 1320 0
DWIDTH 11 0
BBX 11 22 0 -5
BITMAP
0600
0f00
0600
0000
0fc0
38c0
30c0
7000
7000
7000
73c0
71c0
71c0
71c0
31c0
39c0
0fc0
0000
0000
0000
0000
0000
ENDCHAR
STARTCHAR LtSmlGDot
ENCODING 289
SWIDTH 1320 0
DWIDTH 11 0
BBX 11 22 0 -5
BITMAP
0000
0000
0400
0e00
0e00
0400
0000
3ec0
7380
7380
7380
7380
3f00
3000
7000
7f80
3fc0
71c0
60c0
71c0
3f80
0000
ENDCHAR
STARTCHAR LtCapGComma
ENCODING 290
SWIDTH 1320 0
DWIDTH 11 0
BBX 11 22 0 -5
BITMAP
0000
0000
0000
0000
0fc0
38c0
30c0
7000
7000
7000
73c0
71c0
71c0
71c0
31c0
39c0
0fc0
0000
0600
0700
0e00
0000
ENDCHAR
STARTCHAR LtSmlGComma
ENCODING 291
SWIDTH 1320 0
DWIDTH 11 0
BBX 11 22 0 -5
BITMAP
0000
0000
0000
0e00
1c00
0c00
0000
3ec0
7380
7380
7380
7380
3f00
3000
7000
7f80
3fc0
71c0
60c0
71c0
3f80
0000
ENDCHAR
STARTCHAR LtCapHCircum
ENCODING 292
SWIDTH 1320 0
DWIDTH 11 0
BBX 11 22 0 -5
BITMAP
0600
0f00
1980
0000
71c0
71c0
71c0
71c0
71c0
71c0
7fc0
71c0
71c0
71c0
71c0
71c0
71c0
0000
0000
0000
0000
0000
ENDCHAR
STARTCHAR LtSmlHCircum
ENCODING 293
SWIDTH 1320 0
DWIDTH 11 0
BBX 11 22 0 -5
BITMAP
0600
0f00
1980
6000
7000
7000
7000
7780
79c0
71c0
71c0
71c0
71c0
71c0
71c0
71c0
71c0
0000
0000
0000
0000
0000
ENDCHAR
STARTCHAR LtCapHStroke
ENCODING 294
SWIDTH 1320 0
DWIDTH 11 0
BBX 11 22 0 -5
BITMAP
0000
0000
0000
0000
71c0
71c0
71c0
ffe0
71c0
71c0
7fc0
71c0
71c0
71c0
71c0
71c0
71c0
0000
0000
0000
0000
0000
ENDCHAR
STARTCHAR LtSmlHStroke
ENCODING 295
SWIDTH 1320 0
DWIDTH 11 0
BBX 11 22 0 -5
BITMAP
0000
0000
0000
7000
fe00
fe00
7000
7780
79c0
71c0
71c0
71c0
71c0
71c0
71c0
71c0
71c0
0000
0000
0000
0000
0000
ENDCHAR
STARTCHAR LtCapITilde
ENCODING 296
SWIDTH 1320 0
DWIDTH 11 0
BBX 11 22 0 -5
BITMAP
0c80
1f80
1300
0000
3f80
0e00
0e00
0e00
0e00
0e00
0e00
0e00
0e00
0e00
0e00
0e00
3f80
0000
0000
0000
0000
0000
ENDCHAR
STARTCHAR LtSmlITilde
ENCODING 297
SWIDTH 1320 0
DWIDTH 11 0
BBX 11 22 0 -5
BITMAP
0000
0000
0000
1900
3f00
2600
0000
3e00
0e00
0e00
0e00
0e00
0e00
0e00
0e00
0e00
3f80
0000
0000
0000
0000
0000
ENDCHAR
STARTCHAR LtCapIMacron
ENCODING 298
SWIDTH 1320 0
DWIDTH 11 0
BBX 11 22 0 -5
BITMAP
1f00
1f00
0000
0000
3f80
0e00
0e00
0e00
0e00
0e00
0e00
0e00
0e00
0e00
0e00
0e00
3f80
0000
0000
0000
0000
0000
ENDCHAR
STARTCHAR LtSmlIMacron
ENCODING 299
SWIDTH 1320 0
DWIDTH 11 0
BBX 11 22 0 -5
BITMAP
0000
0000
0000
1f00
1f00
0000
0000
3e00
0e00
0e00
0e00
0e00
0e00
0e00
0e00
0e00
3f80
0000
0000
0000
0000
0000
ENDCHAR
STARTCHAR LtCapIBreve
ENCODING 300
SWIDTH 1320 0
DWIDTH 11 0
BBX 11 22 0 -5
BITMAP
1100
1b00
0e00
0000
3f80
0e00
0e00
0e00
0e00
0e00
0e00
0e00
0e00
0e00
0e00
0e00
3f80
0000
0000
0000
0000
0000
ENDCHAR
STARTCHAR LtSmlIBreve
ENCODING 301
SWIDTH 1320 0
DWIDTH 11 0
BBX 11 22 0 -5
BITMAP
0000
0000
0000
1100
1b00
0e00
0000
3e00
0e00
0e00
0e00
0e00
0e00
0e00
0e00
0e00
3f80
0000
0000
0000
0000
0000
ENDCHAR
STARTCHAR LtCapIOgonek
ENCODING 302
SWIDTH 1320 0
DWIDTH 11 0
BBX 11 22 0 -5
BITMAP
0000
0000
0000
0000
3f80
0e00
0e00
0e00
0e00
0e00
0e00
0e00
0e00
0e00
0e00
0e00
3f80
0600
0c00
0c00
0700
0000
ENDCHAR
STARTCHAR LtSmlIOgonek
ENCODING 303
SWIDTH 1320 0
DWIDTH 11 0
BBX 11 22 0 -5
BITMAP
0000
0000
0400
0e00
0e00
0400
0000
3e00
0e00
0e00
0e00
0e00
0e00
0e00
0e00
0e00
3f80
0600
0c00
0c00
0700
0000
ENDCHAR
STARTCHAR LtCapIDot
ENCODING 304
SWIDTH 1320 0
DWIDTH 11 0
BBX 11 22 0 -5
BITMAP
0600
0f00
0600
0000
3f80
0e00
0e00
0e00
0e00
0e00
0e00
0e00
0e00
0e00
0e00
0e00
3f80
0000
0000
0000
0000
0000
ENDCHAR
STARTCHAR LtSmlIDotless
ENCODING 305
SWIDTH 1320 0
DWIDTH 11 0
BBX 11 22 0 -5
BITMAP
0000
0000
0000
0000
0000
0000
0000
3e00
0e00
0e00
0e00
0e00
0e00
0e00
0e00
0e00
3f80
0000
0000
0000
0000
0000
ENDCHAR
STARTCHAR LtCapIJ
ENCODING 306
SWIDTH 1320 0
DWIDTH 11 0
BBX 11 22 0 -5
BITMAP
0000
0000
0000
0000
fbe0
70c0
70c0
70c0
70c0
70c0
70c0
70c0
70c0
76c0
76c0
76c0
fb80
0000
0000
0000
0000
0000
ENDCHAR
STARTCHAR LtSmlIJ
ENCODING 307
SWIDTH 1320 0
DWIDTH 11 0
BBX 11 22 0 -5
BITMAP
0000
0000
2080
71c0
71c0
2080
0000
f3c0
71c0
71c0
71c0
71c0
71c0
71c0
71c0
71c0
f9c0
01c0
01c0
1dc0
0f80
0000
ENDCHAR
STARTCHAR LtCapJCircum
ENCODING 308
SWIDTH 1320 0
DWIDTH 11 0
BBX 11 22 0 -5
BITMAP
0300
0780
0cc0
0000
07c0
0380
0380
0380
0380
0380
0380
0380
0380
6380
6380
7700
3f00
0000
0000
0000
0000
0000
ENDCHAR
STARTCHAR LtSmlJCircum
ENCODING 309
SWIDTH 1320 0
DWIDTH 11 0
BBX 11 22 0 -5
BITMAP
0000
0000
0600
0f00
1980
0000
0000
3f00
0700
0700
0700
0700
0700
0700
0700
0700
0700
0700
e700
e700
7e00
0000
ENDCHAR
STARTCHAR LtCapKComma
ENCODING 310
SWIDTH 1320 0
DWIDTH 11 0
BBX 11 22 0 -5
BITMAP
0000
0000
0000
0000
70c0
70c0
7180
7300
7300
7600
7e00
7f00
7700
7380
7380
71c0
71c0
0000
0600
0700
0e00
0000
ENDCHAR
STARTCHAR LtSmlKComma
ENCODING 311
SWIDTH 1320 0
DWIDTH 11 0
BBX 11 22 0 -5
BITMAP
0000
0000
0000
7000
7000
7000
7000
70c0
7180
7300
7600
7e00
7f00
7380
7380
71c0
71c0
0000
0600
0700
0e00
0000
ENDCHAR
STARTCHAR LtSmlKra
ENCODING 312
SWIDTH 1320 0
DWIDTH 11 0
BBX 11 22 0 -5
BITMAP
0000
0000
0000
0000
0000
0000
0000
70c0
7180
7300
7600
7e00
7f00
7380
7380
71c0
71c0
0000
0000
0000
0000
0000
ENDCHAR
STARTCHAR LtCapLAcute
ENCODING 313
SWIDTH 1320 0
DWIDTH 11 0
BBX 11 22 0 -5
BITMAP
0e00
0c00
1800
0000
7000
7000
7000
7000
7000
7000
7000
7000
7000
7000
70c0
70c0
7fc0
0000
0000
0000
0000
0000
ENDCHAR
STARTCHAR LtSmlLAcute
ENCODING 314
SWIDTH 1320 0
DWIDTH 11 0
BBX 11 22 0 -5
BITMAP
0700
0c00
0000
3e00
0e00
0e00
0e00
0e00
0e00
0e00
0e00
0e00
0e00
0e00
0e00
0e00
3f80
0000
0000
0000
0000
0000
ENDCHAR
STARTCHAR LtCapLComma
ENCODING 315
SWIDTH 1320 0
DWIDTH 11 0
BBX 11 22 0 -5
BITMAP
0000
0000
0000
0000
7000
7000
7000
7000
7000
7000
7000
7000
7000
7000
70c0
70c0
7fc0
0000
0600
0700
0e00
0000
ENDCHAR
STARTCHAR LtSmlLComma
ENCODING 316
SWIDTH 1320 0
DWIDTH 11 0
BBX 11 22 0 -5
BITMAP
0000
0000
0000
3e00
0e00
0e00
0e00
0e00
0e00
0e00
0e00
0e00
0e00
0e00
0e00
0e00
3f80
0000
0c00
0e00
1c00
0000
ENDCHAR
STARTCHAR LtCapLCaron
ENCODING 317
SWIDTH 1320 0
DWIDTH 11 0
BBX 11 22 0 -5
BITMAP
0000
0000
01c0
01c0
70c0
7180
7000
7000
7000
7000
7000
7000
7000
7000
70c0
70c0
7fc0
0000
0000
0000
0000
0000
ENDCHAR
STARTCHAR LtSmlLCaron
ENCODING 318
SWIDTH 1320 0
DWIDTH 11 0
BBX 11 22 0 -5
BITMAP
0000
0000
00e0
7ce0
1c60
1cc0
1c00
1c00
1c00
1c00
1c00
1c00
1c00
1c00
1c00
1c00
7f00
0000
0000
0000
0000
0000
ENDCHAR
STARTCHAR LtCapLMdot
ENCODING 319
SWIDTH 1320 0
DWIDTH 11 0
BBX 11 22 0 -5
BITMAP
0000
0000
0000
0000
7000
7000
7000
7000
70c0
70c0
70c0
7000
7000
7000
70c0
70c0
7fc0
0000
0000
0000
0000
0000
ENDCHAR
STARTCHAR LtSmlLMdot
ENCODING 320
SWIDTH 1320 0
DWIDTH 11 0
BBX 11 22 0 -5
BITMAP
0000
0000
0000
f800
3800
3800
3800
3800
3860
3860
3860
3800
3800
3800
3800
3800
fe00
0000
0000
0000
0000
0000
ENDCHAR
STARTCHAR LtCapLStroke
ENCODING 321
SWIDTH 1320 0
DWIDTH 11 0
BBX 11 22 0 -5
BITMAP
0000
0000
0000
0000
7000
7000
7000
7000
7600
7e00
7800
f000
f000
7000
70c0
70c0
7fc0
0000
0000
0000
0000
0000
ENDCHAR
STARTCHAR LtSmlLStroke
ENCODING 322
SWIDTH 1320 0
DWIDTH 11 0
BBX 11 22 0 -5
BITMAP
0000
0000
0000
3e00
0e00
0e00
0e00
0e00
0f80
0f00
1e00
3e00
0e00
0e00
0e00
0e00
3f80
0000
0000
0000
0000
0000
ENDCHAR
STARTCHAR LtCapNAcute
ENCODING 323
SWIDTH 1320 0
DWIDTH 11 0
BBX 11 22 0 -5
BITMAP
0700
0600
0c00
0000
70c0
78c0
78c0
7cc0
7cc0
6ec0
6ec0
67c0
67c0
63c0
63c0
61c0
61c0
0000
0000
0000
0000
0000
ENDCHAR
STARTCHAR LtSmlNAcute
ENCODING 324
SWIDTH 1320 0
DWIDTH 11 0
BBX 11 22 0 -5
BITMAP
0000
0000
0700
0600
0c00
0800
0000
7780
79c0
71c0
71c0
71c0
71c0
71c0
71c0
71c0
71c0
0000
0000
0000
0000
0000
ENDCHAR
STARTCHAR LtCapNComma
ENCODING 325
SWIDTH 1320 0
DWIDTH 11 0
BBX 11 22 0 -5
BITMAP
0000
0000
0000
0000
70c0
78c0
78c0
7cc0
7cc0
6ec0
6ec0
67c0
67c0
63c0
63c0
61c0
61c0
0000
0600
0700
0e00
0000
ENDCHAR
STARTCHAR LtSmlNComma
ENCODING 326
SWIDTH 1320 0
DWIDTH 11 0
BBX 11 22 0 -5
BITMAP
0000
0000
0000
0000
0000
0000
0000
7780
79c0
71c0
71c0
71c0
71c0
71c0
71c0
71c0
71c0
0000
0600
0700
0e00
0000
ENDCHAR
STARTCHAR LtCapNCaron
ENCODING 327
SWIDTH 1320 0
DWIDTH 11 0
BBX 11 22 0 -5
BITMAP
1980
0f00
0600
0000
70c0
78c0
78c0
7cc0
7cc0
6ec0
6ec0
67c0
67c0
63c0
63c0
61c0
61c0
0000
0000
0000
0000
0000
ENDCHAR
STARTCHAR LtSmlNCaron
ENCODING 328
SWIDTH 1320 0
DWIDTH 11 0
BBX 11 22 0 -5
BITMAP
0000
0000
0000
1980
0f00
0600
0000
7780
79c0
71c0
71c0
71c0
71c0
71c0
71c0
71c0
71c0
0000
0000
0000
0000
0000
ENDCHAR
STARTCHAR LtSmlNApostr
ENCODING 329
SWIDTH 1320 0
DWIDTH 11 0
BBX 11 22 0 -5
BITMAP
0000
0000
e000
e000
6000
c000
0000
7780
79c0
71c0
71c0
71c0
71c0
71c0
71c0
71c0
71c0
0000
0000
0000
0000
0000
ENDCHAR
STARTCHAR LtCapEng
ENCODING 330
SWIDTH 1320 0
DWIDTH 11 0
BBX 11 22 0 -5
BITMAP
0000
0000
0000
0000
7780
79c0
71c0
71c0
71c0
71c0
71c0
71c0
71c0
71c0
75c0
7780
7300
0000
0000
0000
0000
0000
ENDCHAR
STARTCHAR LtSmlEng
ENCODING 331
SWIDTH 1320 0
DWIDTH 11 0
BBX 11 22 0 -5
BITMAP
0000
0000
0000
0000
0000
0000
0000
7780
79c0
71c0
71c0
71c0
71c0
71c0
71c0
71c0
71c0
01c0
01c0
19c0
0f80
0000
ENDCHAR
STARTCHAR LtCapOMacron
ENCODING 332
SWIDTH 1320 0
DWIDTH 11 0
BBX 11 22 0 -5
BITMAP
1f00
1f00
0000
0000
1e00
7380
6180
e1c0
e1c0
e1c0
e1c0
e1c0
e1c0
e1c0
6180
7380
1e00
0000
0000
0000
0000
0000
ENDCHAR
STARTCHAR LtSmlOMacron
ENCODING 333
SWIDTH 1320 0
DWIDTH 11 0
BBX 11 22 0 -5
BITMAP
0000
0000
0000
1f00
1f00
0000
0000
1f00
3b80
71c0
71c0
71c0
71c0
71c0
71c0
3b80
1f00
0000
0000
0000
0000
0000
ENDCHAR
STARTCHAR LtCapOBreve
ENCODING 334
SWIDTH 1320 0
DWIDTH 11 0
BBX 11 22 0 -5
BITMAP
1100
1b00
0e00
0000
1e00
7380
6180
e1c0
e1c0
e1c0
e1c0
e1c0
e1c0
e1c0
6180
7380
1e00
0000
0000
0000
0000
0000
ENDCHAR
STARTCHAR LtSmlOBreve
ENCODING 335
SWIDTH 1320 0
DWIDTH 11 0
BBX 11 22 0 -5
BITMAP
0000
0000
0000
1100
1b00
0e00
0000
1f00
3b80
71c0
71c0
71c0
71c0
71c0
71c0
3b80
1f00
0000
0000
0000
0000
0000
ENDCHAR
STARTCHAR LtCapOAcute2
ENCODING 336
SWIDTH 1320 0
DWIDTH 11 0
BBX 11 22 0 -5
BITMAP
06c0
0d80
1b00
0000
1e00
7380
6180
e1c0
e1c0
e1c0
e1c0
e1c0
e1c0
e1c0
6180
7380
1e00
0000
0000
0000
0000
0000
ENDCHAR
STARTCHAR LtSmlOAcute2
ENCODING 337
SWIDTH 1320 0
DWIDTH 11 0
BBX 11 22 0 -5
BITMAP
0000
0000
06c0
0d80
1b00
1200
0000
1f00
3b80
71c0
71c0
71c0
71c0
71c0
71c0
3b80
1f00
0000
0000
0000
0000
0000
ENDCHAR
STARTCHAR LtCapOE
ENCODING 338
SWIDTH 1320 0
DWIDTH 11 0
BBX 11 22 0 -5
BITMAP
0000
0000
0000
0000
3fc0
6ec0
eec0
ee00
ee00
ee80
ef80
ee80
ee00
ee00
eec0
6ec0
3fc0
0000
0000
0000
0000
0000
ENDCHAR
STARTCHAR LtSmlOE
ENCODING 339
SWIDTH 1320 0
DWIDTH 11 0
BBX 11 22 0 -5
BITMAP
0000
0000
0000
0000
0000
0000
0000
7b80
eec0
eec0
eec0
efc0
ee00
ee00
eec0
eec0
7b80
0000
0000
0000
0000
0000
ENDCHAR
STARTCHAR LtCapRAcute
ENCODING 340
SWIDTH 1320 0
DWIDTH 11 0
BBX 11 22 0 -5
BITMAP
0700
0600
0c00
0000
7f00
7380
71c0
71c0
71c0
7380
7f00
7600
7700
7300
7380
71c0
71c0
0000
0000
0000
0000
0000
ENDCHAR
STARTCHAR LtSmlRAcute
ENCODING 341
SWIDTH 1320 0
DWIDTH 11 0
BBX 11 22 0 -5
BITMAP
0000
0000
0380
0300
0600
0400
0000
79c0
3bc0
3cc0
3800
3800
3800
3800
3800
3800
3800
0000
0000
0000
0000
0000
ENDCHAR
STARTCHAR LtCapRComma
ENCODING 342
SWIDTH 1320 0
DWIDTH 11 0
BBX 11 22 0 -5
BITMAP
0000
0000
0000
0000
7f00
7380
71c0
71c0
71c0
7380
7f00
7600
7700
7300
7380
71c0
71c0
0000
0600
0700
0e00
0000
ENDCHAR
STARTCHAR LtSmlRComma
ENCODING 343
SWIDTH 1320 0
DWIDTH 11 0
BBX 11 22 0 -5
BITMAP
0000
0000
0000
0000
0000
0000
0000
79c0
3bc0
3cc0
3800
3800
3800
3800
3800
3800
3800
0000
1800
1c00
3800
0000
ENDCHAR
STARTCHAR LtCapRCaron
ENCODING 344
SWIDTH 1320 0
DWIDTH 11 0
BBX 11 22 0 -5
BITMAP
3300
1e00
0c00
0000
7f00
7380
71c0
71c0
71c0
7380
7f00
7600
7700
7300
7380
71c0
71c0
0000
0000
0000
0000
0000
ENDCHAR
STARTCHAR LtSmlRCaron
ENCODING 345
SWIDTH 1320 0
DWIDTH 11 0
BBX 11 22 0 -5
BITMAP
0000
0000
0000
1980
0f00
0600
0000
79c0
3bc0
3cc0
3800
3800
3800
3800
3800
3800
3800
0000
0000
0000
0000
0000
ENDCHAR
STARTCHAR LtCapSAcute
ENCODING 346
SWIDTH 1320 0
DWIDTH 11 0
BBX 11 22 0 -5
BITMAP
0380
0300
0600
0000
1fc0
38c0
70c0
7000
7800
3c00
1f00
0780
03c0
01c0
61c0
6380
7f00
0000
0000
0000
0000
0000
ENDCHAR
STARTCHAR LtSmlSAcute
ENCODING 347
SWIDTH 1320 0
DWIDTH 11 0
BBX 11 22 0 -5
BITMAP
0000
0000
0380
0300
0600
0400
0000
3f80
70c0
70c0
7800
3e00
0f80
03c0
61c0
61c0
3f80
0000
0000
0000
0000
0000
ENDCHAR
STARTCHAR LtCapSCircum
ENCODING 348
SWIDTH 1320 0
DWIDTH 11 0
BBX 11 22 0 -5
BITMAP
0600
0f00
1980
0000
1fc0
38c0
70c0
7000
7800
3c00
1f00
0780
03c0
01c0
61c0
6380
7f00
0000
0000
0000
0000
0000
ENDCHAR
STARTCHAR LtSmlSCircum
ENCODING 349
SWIDTH 1320 0
DWIDTH 11 0
BBX 11 22 0 -5
BITMAP
0000
0000
0600
0f00
1980
0000
0000
3f80
70c0
70c0
7800
3e00
0f80
03c0
61c0
61c0
3f80
0000
0000
0000
0000
0000
ENDCHAR
STARTCHAR LtCapSCedilla
ENCODING 350
SWIDTH 1320 0
DWIDTH 11 0
BBX 11 22 0 -5
BITMAP
0000
0000
0000
0000
1fc0
38c0
70c0
7000
7800
3c00
1f00
0780
03c0
01c0
61c0
6380
7f00
0800
0c00
0e00
3c00
0000
ENDCHAR
STARTCHAR LtSmlSCedilla
ENCODING 351
SWIDTH 1320 0
DWIDTH 11 0
BBX 11 22 0 -5
BITMAP
0000
0000
0000
0000
0000
0000
0000
3f80
70c0
70c0
7800
3e00
0f80
03c0
61c0
61c0
3f80
0800
0c00
0e00
3c00
0000
ENDCHAR
STARTCHAR LtCapSCaron
ENCODING 352
SWIDTH 1320 0
DWIDTH 11 0
BBX 11 22 0 -5
BITMAP
1980
0f00
0600
0000
1fc0
38c0
70c0
7000
7800
3c00
1f00
0780
03c0
01c0
61c0
6380
7f00
0000
0000
0000
0000
0000
ENDCHAR
STARTCHAR LtSmlSCaron
ENCODING 353
SWIDTH 1320 0
DWIDTH 11 0
BBX 11 22 0 -5
BITMAP
0000
0000
0000
1980
0f00
0600
0000
3f80
70c0
70c0
7800
3e00
0f80
03c0
61c0
61c0
3f80
0000
0000
0000
0000
0000
ENDCHAR
STARTCHAR LtCapTCedilla
ENCODING 354
SWIDTH 1320 0
DWIDTH 11 0
BBX 11 22 0 -5
BITMAP
0000
0000
0000
0000
ffe0
ce60
ce60
0e00
0e00
0e00
0e00
0e00
0e00
0e00
0e00
0e00
0e00
0400
0600
0700
1e00
0000
ENDCHAR
STARTCHAR LtSmlTCedilla
ENCODING 355
SWIDTH 1320 0
DWIDTH 11 0
BBX 11 22 0 -5
BITMAP
0000
0000
0000
0000
0c00
0c00
1c00
7f00
1c00
1c00
1c00
1c00
1c00
1c00
1cc0
1cc0
0f80
0400
0600
0700
1e00
0000
ENDCHAR
STARTCHAR LtCapTCaron
ENCODING 356
SWIDTH 1320 0
DWIDTH 11 0
BBX 11 22 0 -5
BITMAP
1980
0f00
0600
0000
ffe0
ce60
ce60
0e00
0e00
0e00
0e00
0e00
0e00
0e00
0e00
0e00
0e00
0000
0000
0000
0000
0000
ENDCHAR
STARTCHAR LtSmlTCaron
ENCODING 357
SWIDTH 1320 0
DWIDTH 11 0
BBX 11 22 0 -5
BITMAP
0000
0000
00e0
00e0
0c60
0cc0
1c00
7f00
1c00
1c00
1c00
1c00
1c00
1c00
1cc0
1cc0
0f80
0000
0000
0000
0000
0000
ENDCHAR
STARTCHAR LtCapTStroke
ENCODING 358
SWIDTH 1320 0
DWIDTH 11 0
BBX 11 22 0 -5
BITMAP
0000
0000
0000
0000
ffe0
ce60
ce60
0e00
0e00
3f80
3f80
0e00
0e00
0e00
0e00
0e00
0e00
0000
0000
0000
0000
0000
ENDCHAR
STARTCHAR LtSmlTStroke
ENCODING 359
SWIDTH 1320 0
DWIDTH 11 0
BBX 11 22 0 -5
BITMAP
0000
0000
0000
0000
0c00
0c00
1c00
7f00
1c00
1c00
7f00
1c00
1c00
1c00
1cc0
1cc0
0f80
0000
0000
0000
0000
0000
ENDCHAR
STARTCHAR LtCapUTilde
ENCODING 360
SWIDTH 1320 0
DWIDTH 11 0
BBX 11 22 0 -5
BITMAP
0c80
1f80
1300
0000
70c0
70c0
70c0
70c0
70c0
70c0
70c0
70c0
70c0
70c0
70c0
3980
1f00
0000
0000
0000
0000
0000
ENDCHAR
STARTCHAR LtSmlUTilde
ENCODING 361
SWIDTH 1320 0
DWIDTH 11 0
BBX 11 22 0 -5
BITMAP
0000
0000
0000
0c80
1f80
1300
0000
71c0
71c0
71c0
71c0
71c0
71c0
71c0
71c0
73c0
3dc0
0000
0000
0000
0000
0000
ENDCHAR
STARTCHAR LtCapUMacron
ENCODING 362
SWIDTH 1320 0
DWIDTH 11 0
BBX 11 22 0 -5
BITMAP
1f00
1f00
0000
0000
70c0
70c0
70c0
70c0
70c0
70c0
70c0
70c0
70c0
70c0
70c0
3980
1f00
0000
0000
0000
0000
0000
ENDCHAR
STARTCHAR LtSmlUMacron
ENCODING 363
SWIDTH 1320 0
DWIDTH 11 0
BBX 11 22 0 -5
BITMAP
0000
0000
0000
1f00
1f00
0000
0000
71c0
71c0
71c0
71c0
71c0
71c0
71c0
71c0
73c0
3dc0
0000
0000
0000
0000
0000
ENDCHAR
STARTCHAR LtCapUBreve
ENCODING 364
SWIDTH 1320 0
DWIDTH 11 0
BBX 11 22 0 -5
BITMAP
1100
1b00
0e00
0000
70c0
70c0
70c0
70c0
70c0
70c0
70c0
70c0
70c0
70c0
70c0
3980
1f00
0000
0000
0000
0000
0000
ENDCHAR
STARTCHAR LtSmlUBreve
ENCODING 365
SWIDTH 1320 0
DWIDTH 11 0
BBX 11 22 0 -5
BITMAP
0000
0000
0000
1100
1b00
0e00
0000
71c0
71c0
71c0
71c0
71c0
71c0
71c0
71c0
73c0
3dc0
0000
0000
0000
0000
0000
ENDCHAR
STARTCHAR LtCapURing
ENCODING 366
SWIDTH 1320 0
DWIDTH 11 0
BBX 11 22 0 -5
BITMAP
0e00
1b00
1b00
0e00
70c0
70c0
70c0
70c0
70c0
70c0
70c0
70c0
70c0
70c0
70c0
3980
1f00
0000
0000
0000
0000
0000
ENDCHAR
STARTCHAR LtSmlURing
ENCODING 367
SWIDTH 1320 0
DWIDTH 11 0
BBX 11 22 0 -5
BITMAP
0000
0e00
1b00
1100
1b00
0e00
0000
71c0
71c0
71c0
71c0
71c0
71c0
71c0
71c0
73c0
3dc0
0000
0000
0000
0000
0000
ENDCHAR
STARTCHAR LtCapUAcute2
ENCODING 368
SWIDTH 1320 0
DWIDTH 11 0
BBX 11 22 0 -5
BITMAP
06c0
0d80
1b00
0000
70c0
70c0
70c0
70c0
70c0
70c0
70c0
70c0
70c0
70c0
70c0
3980
1f00
0000
0000
0000
0000
0000
ENDCHAR
STARTCHAR LtSmlUAcute2
ENCODING 369
SWIDTH 1320 0
DWIDTH 11 0
BBX 11 22 0 -5
BITMAP
0000
0000
06c0
0d80
1b00
1200
0000
71c0
71c0
71c0
71c0
71c0
71c0
71c0
71c0
73c0
3dc0
0000
0000
0000
0000
0000
ENDCHAR
STARTCHAR LtCapUOgonek
ENCODING 370
SWIDTH 1320 0
DWIDTH 11 0
BBX 11 22 0 -5
BITMAP
0000
0000
0000
0000
70c0
70c0
70c0
70c0
70c0
70c0
70c0
70c0
70c0
70c0
70c0
3980
1f00
0700
0600
0600
0380
0000
ENDCHAR
STARTCHAR LtSmlUOgonek
ENCODING 371
SWIDTH 1320 0
DWIDTH 11 0
BBX 11 22 0 -5
BITMAP
0000
0000
0000
0000
0000
0000
0000
71c0
71c0
71c0
71c0
71c0
71c0
71c0
71c0
73c0
3dc0
00c0
0180
0180
00e0
0000
ENDCHAR
STARTCHAR LtCapWCircum
ENCODING 372
SWIDTH 1320 0
DWIDTH 11 0
BBX 11 22 0 -5
BITMAP
0c00
1e00
3300
0000
e0c0
e0c0
e0c0
e4c0
e4c0
eec0
eec0
7f80
7f80
7380
7380
7380
7380
0000
0000
0000
0000
0000
ENDCHAR
STARTCHAR LtSmlWCircum
ENCODING 373
SWIDTH 1320 0
DWIDTH 11 0
BBX 11 22 0 -5
BITMAP
0000
0000
0c00
1e00
3300
0000
0000
e0c0
e0c0
e4c0
eec0
eec0
eec0
7f80
7380
7380
7380
0000
0000
0000
0000
0000
ENDCHAR
STARTCHAR LtCapYCircum
ENCODING 374
SWIDTH 1320 0
DWIDTH 11 0
BBX 11 22 0 -5
BITMAP
0c00
1e00
3300
0000
e0c0
70c0
7180
3980
3b00
1f00
1e00
0e00
0e00
0e00
0e00
0e00
0e00
0000
0000
0000
0000
0000
ENDCHAR
STARTCHAR LtSmlYCircum
ENCODING 375
SWIDTH 1320 0
DWIDTH 11 0
BBX 11 22 0 -5
BITMAP
0000
0000
0600
0f00
1980
0000
0000
60c0
70c0
7080
3980
3980
1d00
1f00
0f00
0e00
0600
0600
6400
6c00
3800
0000
ENDCHAR
STARTCHAR LtCapYDrss
ENCODING 376
SWIDTH 1320 0
DWIDTH 11 0
BBX 11 22 0 -5
BITMAP
3300
3300
3300
0000
e0c0
70c0
7180
3980
3b00
1f00
1e00
0e00
0e00
0e00
0e00
0e00
0e00
0000
0000
0000
0000
0000
ENDCHAR
STARTCHAR LtCapZAcute
ENCODING 377
SWIDTH 1320 0
DWIDTH 11 0
BBX 11 22 0 -5
BITMAP
0700
0600
0c00
0000
7fc0
61c0
6380
0380
0700
0700
0e00
1c00
1c00
3800
38c0
70c0
7fc0
0000
0000
0000
0000
0000
ENDCHAR
STARTCHAR LtSmlZAcute
ENCODING 378
SWIDTH 1320 0
DWIDTH 11 0
BBX 11 22 0 -5
BITMAP
0000
0000
0380
0300
0600
0400
0000
7fc0
63c0
6380
0700
0f00
1e00
1c00
38c0
78c0
7fc0
0000
0000
0000
0000
0000
ENDCHAR
STARTCHAR LtCapZDot
ENCODING 379
SWIDTH 1320 0
DWIDTH 11 0
BBX 11 22 0 -5
BITMAP
0c00
1e00
0c00
0000
7fc0
61c0
6380
0380
0700
0700
0e00
1c00
1c00
3800
38c0
70c0
7fc0
0000
0000
0000
0000
0000
ENDCHAR
STARTCHAR LtSmlZDot
ENCODING 380
SWIDTH 1320 0
DWIDTH 11 0
BBX 11 22 0 -5
BITMAP
0000
0000
0400
0e00
0e00
0400
0000
7fc0
63c0
6380
0700
0f00
1e00
1c00
38c0
78c0
7fc0
0000
0000
0000
0000
0000
ENDCHAR
STARTCHAR LtCapZCaron
ENCODING 381
SWIDTH 1320 0
DWIDTH 11 0
BBX 11 22 0 -5
BITMAP
1980
0f00
0600
0000
7fc0
61c0
6380
0380
0700
0700
0e00
1c00
1c00
3800
38c0
70c0
7fc0
0000
0000
0000
0000
0000
ENDCHAR
STARTCHAR LtSmlZCaron
ENCODING 382
SWIDTH 1320 0
DWIDTH 11 0
BBX 11 22 0 -5
BITMAP
0000
0000
0000
1980
0f00
0600
0000
7fc0
63c0
6380
0700
0f00
1e00
1c00
38c0
78c0
7fc0
0000
0000
0000
0000
0000
ENDCHAR
STARTCHAR LtSmlSLong
ENCODING 383
SWIDTH 1320 0
DWIDTH 11 0
BBX 11 22 0 -5
BITMAP
0000
0000
0000
07c0
0cc0
1c00
1c00
1c00
3c00
1c00
1c00
1c00
1c00
1c00
1c00
1c00
1c00
0000
0000
0000
0000
0000
ENDCHAR
STARTCHAR LtSmlBStroke
ENCODING 384
SWIDTH 1320 0
DWIDTH 11 0
BBX 11 22 0 -5
BITMAP
0000
0000
0000
7000
fe00
fe00
7000
7700
7b80
71c0
71c0
71c0
71c0
71c0
71c0
7b80
7700
0000
0000
0000
0000
0000
ENDCHAR
STARTCHAR LtCapBHook
ENCODING 385
SWIDTH 1320 0
DWIDTH 11 0
BBX 11 22 0 -5
BITMAP
0000
0000
0000
0000
7f00
dd80
ddc0
ddc0
5dc0
1d80
1f00
1d80
1dc0
1dc0
1dc0
1d80
1f00
0000
0000
0000
0000
0000
ENDCHAR
STARTCHAR LtCapBTopbar
ENCODING 386
SWIDTH 1320 0
DWIDTH 11 0
BBX 11 22 0 -5
BITMAP
0000
0000
0000
0000
7f80
7180
7180
7000
7000
7000
7f00
7380
71c0
71c0
71c0
7380
7f00
0000
0000
0000
0000
0000
ENDCHAR
STARTCHAR LtSmlBTopbar
ENCODING 387
SWIDTH 1320 0
DWIDTH 11 0
BBX 11 22 0 -5
BITMAP
0000
0000
0000
7f80
7180
7000
7000
7700
7b80
71c0
71c0
71c0
71c0
71c0
71c0
7b80
7700
0000
0000
0000
0000
0000
ENDCHAR
STARTCHAR LtCapTone6
ENCODING 388
SWIDTH 1320 0
DWIDTH 11 0
BBX 11 22 0 -5
BITMAP
0000
0000
0000
0000
7000
f000
f000
f000
7000
7000
7f00
7380
71c0
71c0
71c0
7380
7f00
0000
0000
0000
0000
0000
ENDCHAR
STARTCHAR LtSmlTone6
ENCODING 389
SWIDTH 1320 0
DWIDTH 11 0
BBX 11 22 0 -5
BITMAP
0000
0000
0000
0000
0000
0000
0000
7000
f000
f000
7000
7f00
7380
71c0
71c0
7380
7f00
0000
0000
0000
0000
0000
ENDCHAR
STARTCHAR LtCapCTrnd
ENCODING 390
SWIDTH 1320 0
DWIDTH 11 0
BBX 11 22 0 -5
BITMAP
0000
0000
0000
0000
3e00
7380
6180
01c0
01c0
01c0
01c0
01c0
01c0
01c0
6180
7380
3e00
0000
0000
0000
0000
0000
ENDCHAR
STARTCHAR LtCapCHook
ENCODING 391
SWIDTH 1320 0
DWIDTH 11 0
BBX 11 22 0 -5
BITMAP
0000
01c0
0340
0300
0f80
38c0
30c0
7000
7000
7000
7000
7000
7000
7000
30c0
39c0
0f80
0000
0000
0000
0000
0000
ENDCHAR
STARTCHAR LtSmlCHook
ENCODING 392
SWIDTH 1320 0
DWIDTH 11 0
BBX 11 22 0 -5
BITMAP
0000
0000
0000
0000
01c0
0340
0300
1f80
39c0
70c0
7000
7000
7000
7000
70c0
39c0
1f80
0000
0000
0000
0000
0000
ENDCHAR
STARTCHAR LtCapDStrokeAfr
ENCODING 393
SWIDTH 1320 0
DWIDTH 11 0
BBX 11 22 0 -5
BITMAP
0000
0000
0000
0000
7e00
7380
7180
71c0
71c0
fdc0
fdc0
71c0
71c0
71c0
7180
7380
7e00
0000
0000
0000
0000
0000
ENDCHAR
STARTCHAR LtCapDHook
ENCODING 394
SWIDTH 1320 0
DWIDTH 11 0
BBX 11 22 0 -5
BITMAP
0000
0000
0000
0000
7e00
dd80
dd80
ddc0
5dc0
1dc0
1dc0
1dc0
1dc0
1dc0
1d80
1d80
1e00
0000
0000
0000
0000
0000
ENDCHAR
STARTCHAR LtCapDTopbar
ENCODING 395
SWIDTH 1320 0
DWIDTH 11 0
BBX 11 22 0 -5
BITMAP
0000
0000
0000
0000
3fc0
31c0
31c0
01c0
01c0
01c0
1fc0
39c0
71c0
71c0
71c0
39c0
1fc0
0000
0000
0000
0000
0000
ENDCHAR
STARTCHAR LtSmlDTopbar
ENCODING 396
SWIDTH 1320 0
DWIDTH 11 0
BBX 11 22 0 -5
BITMAP
0000
0000
0000
3fc0
31c0
01c0
01c0
1dc0
3bc0
71c0
71c0
71c0
71c0
71c0
71c0
3bc0
1dc0
0000
0000
0000
0000
0000
ENDCHAR
STARTCHAR LtSmlDelTrnd
ENCODING 397
SWIDTH 1320 0
DWIDTH 11 0
BBX 11 22 0 -5
BITMAP
0000
0000
0000
0000
0000
0000
0000
1f00
3b80
71c0
71c0
71c0
71c0
7180
3b00
1e00
0e00
0700
0380
0780
3f00
0000
ENDCHAR
STARTCHAR LtCapERev
ENCODING 398
SWIDTH 1320 0
DWIDTH 11 0
BBX 11 22 0 -5
BITMAP
0000
0000
0000
0000
7fc0
61c0
61c0
01c0
01c0
09c0
0fc0
09c0
01c0
01c0
61c0
61c0
7fc0
0000
0000
0000
0000
0000
ENDCHAR
STARTCHAR LtCapSchwa
ENCODING 399
SWIDTH 1320 0
DWIDTH 11 0
BBX 11 22 0 -5
BITMAP
0000
0000
0000
0000
3e00
3380
3180
01c0
01c0
01c0
7fc0
71c0
71c0
71c0
3180
3b80
0e00
0000
0000
0000
0000
0000
ENDCHAR
STARTCHAR LtCapEps
ENCODING 400
SWIDTH 1320 0
DWIDTH 11 0
BBX 11 22 0 -5
BITMAP
0000
0000
0000
0000
1f80
39c0
70c0
7000
7000
3800
1e00
3800
7000
7000
70c0
39c0
1f80
0000
0000
0000
0000
0000
ENDCHAR
STARTCHAR LtCapFLhook
ENCODING 401
SWIDTH 1320 0
DWIDTH 11 0
BBX 11 22 0 -5
BITMAP
0000
0000
0000
0000
1fe0
1c60
1c60
1c00
1c00
1c80
1f80
1c80
1c00
5c00
dc00
dc00
7800
0000
0000
0000
0000
0000
ENDCHAR
STARTCHAR LtSmlFLhook
ENCODING 402
SWIDTH 1320 0
DWIDTH 11 0
BBX 11 22 0 -5
BITMAP
0000
0000
0000
07e0
0e60
0e00
0e00
0e00
7fc0
0e00
0e00
0e00
0e00
0e00
0e00
0e00
0e00
0e00
0e00
ce00
fc00
0000
ENDCHAR
STARTCHAR LtCapGHook
ENCODING 403
SWIDTH 1320 0
DWIDTH 11 0
BBX 11 22 0 -5
BITMAP
0000
01c0
0340
0300
0f00
39c0
30c0
7000
7000
7000
73c0
71c0
71c0
71c0
31c0
39c0
0fc0
0000
0000
0000
0000
0000
ENDCHAR
STARTCHAR LtCapGam
ENCODING 404
SWIDTH 1320 0
DWIDTH 11 0
BBX 11 22 0 -5
BITMAP
0000
0000
0000
0000
70c0
3980
3980
1d00
1f00
0e00
0e00
1f00
3380
3380
3380
3f80
1f00
0000
0000
0000
0000
0000
ENDCHAR
STARTCHAR LtSmlHwair
ENCODING 405
SWIDTH 1320 0
DWIDTH 11 0
BBX 11 22 0 -5
BITMAP
0000
0000
0000
e000
e000
e000
e000
fcc0
eec0
eec0
eec0
eec0
eec0
eec0
eec0
eec0
e780
0000
0000
0000
0000
0000
ENDCHAR
STARTCHAR LtCapIot
ENCODING 406
SWIDTH 1320 0
DWIDTH 11 0
BBX 11 22 0 -5
BITMAP
0000
0000
0000
0000
7c00
3800
3800
3800
3800
3800
3800
3800
3800
38c0
38c0
1dc0
1f80
0000
0000
0000
0000
0000
ENDCHAR
STARTCHAR LtCapIStroke
ENCODING 407
SWIDTH 1320 0
DWIDTH 11 0
BBX 11 22 0 -5
BITMAP
0000
0000
0000
0000
3f80
0e00
0e00
0e00
0e00
3f80
3f80
0e00
0e00
0e00
0e00
0e00
3f80
0000
0000
0000
0000
0000
ENDCHAR
STARTCHAR LtCapKHook
ENCODING 408
SWIDTH 1320 0
DWIDTH 11 0
BBX 11 22 0 -5
BITMAP
0000
0000
0000
0000
e380
e7c0
e6c0
ecc0
ec00
e800
fc00
fc00
ee00
e700
e700
e380
e380
0000
0000
0000
0000
0000
ENDCHAR
STARTCHAR LtSmlKHook
ENCODING 409
SWIDTH 1320 0
DWIDTH 11 0
BBX 11 22 0 -5
BITMAP
0000
0000
0000
3e00
7300
7000
7000
70c0
7180
7300
7600
7e00
7f00
7380
7380
71c0
71c0
0000
0000
0000
0000
0000
ENDCHAR
STARTCHAR LtSmlLStrokeH
ENCODING 410
SWIDTH 1320 0
DWIDTH 11 0
BBX 11 22 0 -5
BITMAP
0000
0000
0000
3e00
0e00
0e00
0e00
0e00
0e00
3f80
3f80
0e00
0e00
0e00
0e00
0e00
3f80
0000
0000
0000
0000
0000
ENDCHAR
STARTCHAR LtSmlLamStroke
ENCODING 411
SWIDTH 1320 0
DWIDTH 11 0
BBX 11 22 0 -5
BITMAP
0000
0000
0000
7300
7e00
0c00
1c00
3600
2600
0f00
0f00
1f00
1d80
3980
38c0
70c0
70c0
0000
0000
0000
0000
0000
ENDCHAR
STARTCHAR LtCapMTrnd
ENCODING 412
SWIDTH 1320 0
DWIDTH 11 0
BBX 11 22 0 -5
BITMAP
0000
0000
0000
0000
edc0
edc0
edc0
edc0
edc0
edc0
edc0
edc0
edc0
edc0
edc0
edc0
76c0
0000
0000
0000
0000
0000
ENDCHAR
STARTCHAR LtCapNLhookL
ENCODING 413
SWIDTH 1320 0
DWIDTH 11 0
BBX 11 22 0 -5
BITMAP
0000
0000
0000
0000
18c0
18c0
1cc0
1cc0
1ec0
1ec0
1fc0
1bc0
1bc0
59c0
d9c0
d8c0
70c0
0000
0000
0000
0000
0000
ENDCHAR
STARTCHAR LtSmlNLongleg
ENCODING 414
SWIDTH 1320 0
DWIDTH 11 0
BBX 11 22 0 -5
BITMAP
0000
0000
0000
0000
0000
0000
0000
7780
79c0
71c0
71c0
71c0
71c0
71c0
71c0
71c0
71c0
01c0
01c0
01c0
01c0
0000
ENDCHAR
STARTCHAR LtCapOStrokeH
ENCODING 415
SWIDTH 1320 0
DWIDTH 11 0
BBX 11 22 0 -5
BITMAP
0000
0000
0000
0000
1e00
7380
6180
e1c0
e1c0
ffc0
ffc0
e1c0
e1c0
e1c0
6180
7380
1e00
0000
0000
0000
0000
0000
ENDCHAR
STARTCHAR LtCapOHorn
ENCODING 416
SWIDTH 1320 0
DWIDTH 11 0
BBX 11 22 0 -5
BITMAP
0000
0000
00e0
0060
1e60
73c0
6180
e1c0
e1c0
e1c0
e1c0
e1c0
e1c0
e1c0
6180
7380
1e00
0000
0000
0000
0000
0000
ENDCHAR
STARTCHAR LtSmlOHorn
ENCODING 417
SWIDTH 1320 0
DWIDTH 11 0
BBX 11 22 0 -5
BITMAP
0000
0000
0000
0000
00e0
0060
0060
1fc0
3b80
71c0
71c0
71c0
71c0
71c0
71c0
3b80
1f00
0000
0000
0000
0000
0000
ENDCHAR
STARTCHAR LtCapOi
ENCODING 418
SWIDTH 1320 0
DWIDTH 11 0
BBX 11 22 0 -5
BITMAP
0000
0000
0000
0000
39c0
6fc0
6dc0
6dc0
6dc0
6dc0
6dc0
6dc0
6dc0
6dc0
6dc0
6dc0
39c0
01c0
01c0
01c0
01c0
0000
ENDCHAR
STARTCHAR LtSmlOi
ENCODING 419
SWIDTH 1320 0
DWIDTH 11 0
BBX 11 22 0 -5
BITMAP
0000
0000
0000
0000
0000
0000
0000
39c0
6fc0
6dc0
6dc0
6dc0
6dc0
6dc0
6dc0
6dc0
39c0
01c0
01c0
01c0
01c0
0000
ENDCHAR
STARTCHAR LtCapPHook
ENCODING 420
SWIDTH 1320 0
DWIDTH 11 0
BBX 11 22 0 -5
BITMAP
0000
0000
0000
0000
7f00
dd80
ddc0
ddc0
5dc0
1dc0
1d80
1f00
1c00
1c00
1c00
1c00
1c00
0000
0000
0000
0000
0000
ENDCHAR
STARTCHAR LtSmlPHook
ENCODING 421
SWIDTH 1320 0
DWIDTH 11 0
BBX 11 22 0 -5
BITMAP
0000
0000
0000
01c0
0340
0300
0300
7700
7b80
71c0
71c0
71c0
71c0
71c0
71c0
7b80
7700
7000
7000
7000
7000
0000
ENDCHAR
STARTCHAR LtCapYr
ENCODING 422
SWIDTH 1320 0
DWIDTH 11 0
BBX 11 22 0 -5
BITMAP
0000
0000
0000
0000
7000
7000
7000
7f00
7380
71c0
71c0
7380
7f00
7e00
7600
7300
7380
0180
01c0
01c0
0000
0000
ENDCHAR
STARTCHAR LtCapTone2
ENCODING 423
SWIDTH 1320 0
DWIDTH 11 0
BBX 11 22 0 -5
BITMAP
0000
0000
0000
0000
3f00
7380
61c0
01c0
03c0
0780
1f00
3c00
7800
7000
70c0
39c0
1f80
0000
0000
0000
0000
0000
ENDCHAR
STARTCHAR LtSmlTone2
ENCODING 424
SWIDTH 1320 0
DWIDTH 11 0
BBX 11 22 0 -5
BITMAP
0000
0000
0000
0000
0000
0000
0000
3f80
61c0
61c0
03c0
0f80
3e00
7800
70c0
70c0
3f80
0000
0000
0000
0000
0000
ENDCHAR
STARTCHAR LtCapEsh
ENCODING 425
SWIDTH 1320 0
DWIDTH 11 0
BBX 11 22 0 -5
BITMAP
0000
0000
0000
0000
7fc0
60c0
70c0
3800
1c00
0e00
0600
0c00
1800
3040
7fc0
7fc0
7fc0
0000
0000
0000
0000
0000
ENDCHAR
STARTCHAR LtSmlEshRevLoop
ENCODING 426
SWIDTH 1320 0
DWIDTH 11 0
BBX 11 22 0 -5
BITMAP
0000
0000
0000
7c00
ce00
ce00
ce00
7e00
0e00
0e00
0e00
0e00
0e00
0e00
0e00
0e00
0e00
0e00
0e60
0e60
07e0
0000
ENDCHAR
STARTCHAR LtSmlTLhookL
ENCODING 427
SWIDTH 1320 0
DWIDTH 11 0
BBX 11 22 0 -5
BITMAP
0000
0000
0000
0000
0c00
0c00
1c00
7f00
1c00
1c00
1c00
1c00
1c00
1c00
1cc0
1dc0
0fc0
01c0
01c0
0dc0
0f80
0000
ENDCHAR
STARTCHAR LtCapTHook
ENCODING 428
SWIDTH 1320 0
DWIDTH 11 0
BBX 11 22 0 -5
BITMAP
0000
0000
0000
0000
7fe0
ce60
ce60
ce00
4e00
0e00
0e00
0e00
0e00
0e00
0e00
0e00
0e00
0000
0000
0000
0000
0000
ENDCHAR
STARTCHAR LtSmlTHook
ENCODING 429
SWIDTH 1320 0
DWIDTH 11 0
BBX 11 22 0 -5
BITMAP
0000
0000
0000
0f00
1d80
1c00
1c00
7f00
1c00
1c00
1c00
1c00
1c00
1c00
1cc0
1cc0
0f80
0000
0000
0000
0000
0000
ENDCHAR
STARTCHAR LtCapTLhook
ENCODING 430
SWIDTH 1320 0
DWIDTH 11 0
BBX 11 22 0 -5
BITMAP
0000
0000
0000
0000
ffe0
ce60
ce60
0e00
0e00
0e00
0e00
0e00
0e00
0e00
0ec0
0ec0
0780
0000
0000
0000
0000
0000
ENDCHAR
STARTCHAR LtCapUHorn
ENCODING 431
SWIDTH 1320 0
DWIDTH 11 0
BBX 11 22 0 -5
BITMAP
0000
0000
00e0
0060
e160
e1c0
e180
e180
e180
e180
e180
e180
e180
e180
e180
7300
3e00
0000
0000
0000
0000
0000
ENDCHAR
STARTCHAR LtSmlUHorn
ENCODING 432
SWIDTH 1320 0
DWIDTH 11 0
BBX 11 22 0 -5
BITMAP
0000
0000
0000
0000
00e0
0060
0060
71c0
71c0
71c0
71c0
71c0
71c0
71c0
71c0
73c0
3dc0
0000
0000
0000
0000
0000
ENDCHAR
STARTCHAR LtCapUps
ENCODING 433
SWIDTH 1320 0
DWIDTH 11 0
BBX 11 22 0 -5
BITMAP
0000
0000
0000
0000
f3c0
f3c0
f3c0
1200
7380
6180
e1c0
e1c0
e1c0
e1c0
6180
7380
1e00
0000
0000
0000
0000
0000
ENDCHAR
STARTCHAR LtCapVHook
ENCODING 434
SWIDTH 1320 0
DWIDTH 11 0
BBX 11 22 0 -5
BITMAP
0000
0000
0000
0000
7300
7380
7180
71c0
71c0
71c0
71c0
71c0
71c0
71c0
7180
3b80
1e00
0000
0000
0000
0000
0000
ENDCHAR
STARTCHAR LtCapYHook
ENCODING 435
SWIDTH 1320 0
DWIDTH 11 0
BBX 11 22 0 -5
BITMAP
0000
0000
0000
0000
c1c0
e3e0
e360
7660
7600
3c00
3c00
1c00
1c00
1c00
1c00
1c00
1c00
0000
0000
0000
0000
0000
ENDCHAR
STARTCHAR LtSmlYHook
ENCODING 436
SWIDTH 1320 0
DWIDTH 11 0
BBX 11 22 0 -5
BITMAP
0000
0000
0000
0000
0000
0000
0000
c0e0
e1a0
e300
7300
7300
3a00
3e00
1e00
1c00
0c00
0c00
c800
d800
7000
0000
ENDCHAR
STARTCHAR LtCapZStroke
ENCODING 437
SWIDTH 1320 0
DWIDTH 11 0
BBX 11 22 0 -5
BITMAP
0000
0000
0000
0000
7fc0
61c0
6380
0380
0700
3f80
3f80
1c00
1c00
3800
38c0
70c0
7fc0
0000
0000
0000
0000
0000
ENDCHAR
STARTCHAR LtSmlZStroke
ENCODING 438
SWIDTH 1320 0
DWIDTH 11 0
BBX 11 22 0 -5
BITMAP
0000
0000
0000
0000
0000
0000
0000
7fc0
63c0
6380
0700
3f80
3f80
1c00
38c0
78c0
7fc0
0000
0000
0000
0000
0000
ENDCHAR
STARTCHAR LtCapEzh
ENCODING 439
SWIDTH 1320 0
DWIDTH 11 0
BBX 11 22 0 -5
BITMAP
0000
0000
0000
0000
7fc0
61c0
6180
0300
0700
0e00
1f00
0380
01c0
01c0
61c0
6380
3f00
0000
0000
0000
0000
0000
ENDCHAR
STARTCHAR LtCapEzhRev
ENCODING 440
SWIDTH 1320 0
DWIDTH 11 0
BBX 11 22 0 -5
BITMAP
0000
0000
0000
0000
7fc0
71c0
30c0
1800
1c00
0e00
1f00
3800
7000
7000
70c0
38c0
1f80
0000
0000
0000
0000
0000
ENDCHAR
STARTCHAR LtSmlEzhRev
ENCODING 441
SWIDTH 1320 0
DWIDTH 11 0
BBX 11 22 0 -5
BITMAP
0000
0000
0000
0000
0000
0000
0000
7fc0
71c0
3800
3800
1c00
0e00
1e00
3800
7000
7000
7000
70c0
38c0
1f80
0000
ENDCHAR
STARTCHAR LtSmlEzhTail
ENCODING 442
SWIDTH 1320 0
DWIDTH 11 0
BBX 11 22 0 -5
BITMAP
0000
0000
0000
0000
0000
0000
0000
7fc0
61c0
6380
0700
0f00
0380
01c0
01c0
0380
3f00
7000
70c0
70c0
3f80
0000
ENDCHAR
STARTCHAR LtSmlTwoStroke
ENCODING 443
SWIDTH 1320 0
DWIDTH 11 0
BBX 11 22 0 -5
BITMAP
0000
0000
0000
3f80
71c0
71c0
01c0
0180
0300
1f80
1f80
0c00
1800
1000
3000
7fc0
7fc0
0000
0000
0000
0000
0000
ENDCHAR
STARTCHAR LtCapTone5
ENCODING 444
SWIDTH 1320 0
DWIDTH 11 0
BBX 11 22 0 -5
BITMAP
0000
0000
0000
0000
3f80
3f80
3f80
3000
3000
3000
3f00
0380
01c0
01c0
61c0
6380
3f00
0000
0000
0000
0000
0000
ENDCHAR
STARTCHAR LtSmlTone5
ENCODING 445
SWIDTH 1320 0
DWIDTH 11 0
BBX 11 22 0 -5
BITMAP
0000
0000
0000
0000
0000
0000
0000
3f80
3f80
3000
3000
3f00
0380
01c0
61c0
6380
3f00
0000
0000
0000
0000
0000
ENDCHAR
STARTCHAR LtSmlGlotInvStroke
ENCODING 446
SWIDTH 1320 0
DWIDTH 11 0
BBX 11 22 0 -5
BITMAP
0000
0000
0000
0e00
0e00
0e00
0e00
3f80
3f80
0e00
0e00
0700
0380
71c0
71c0
71c0
3f80
0000
0000
0000
0000
0000
ENDCHAR
STARTCHAR LtSmlWynn
ENCODING 447
SWIDTH 1320 0
DWIDTH 11 0
BBX 11 22 0 -5
BITMAP
0000
0000
0000
0000
0000
0000
0000
7780
7bc0
71c0
71c0
7180
7300
7600
7400
7800
7800
7000
7000
7000
7000
0000
ENDCHAR
STARTCHAR LtSmlPipe
ENCODING 448
SWIDTH 1320 0
DWIDTH 11 0
BBX 11 22 0 -5
BITMAP
0000
0000
0000
0e00
0e00
0e00
0e00
0e00
0e00
0e00
0e00
0e00
0e00
0e00
0e00
0e00
0e00
0000
0000
0000
0000
0000
ENDCHAR
STARTCHAR LtSmlPipe2
ENCODING 449
SWIDTH 1320 0
DWIDTH 11 0
BBX 11 22 0 -5
BITMAP
0000
0000
0000
3b80
3b80
3b80
3b80
3b80
3b80
3b80
3b80
3b80
3b80
3b80
3b80
3b80
3b80
0000
0000
0000
0000
0000
ENDCHAR
STARTCHAR LtSmlPipeStroke2
ENCODING 450
SWIDTH 1320 0
DWIDTH 11 0
BBX 11 22 0 -5
BITMAP
0000
0000
0000
0e00
0e00
0e00
0e00
3f80
3f80
0e00
0e00
3f80
3f80
0e00
0e00
0e00
0e00
0000
0000
0000
0000
0000
ENDCHAR
STARTCHAR LtSmlExcl
ENCODING 451
SWIDTH 1320 0
DWIDTH 11 0
BBX 11 22 0 -5
BITMAP
0000
0000
0000
0e00
0e00
0e00
0e00
0e00
0e00
0e00
0e00
0e00
0000
0000
0e00
0e00
0e00
0000
0000
0000
0000
0000
ENDCHAR
STARTCHAR LtCapDZCaron
ENCODING 452
SWIDTH 1320 0
DWIDTH 11 0
BBX 11 22 0 -5
BITMAP
06c0
0380
0100
0000
e7c0
f4c0
d9c0
d9c0
d980
d980
db80
db80
db00
db00
df00
f640
e7c0
0000
0000
0000
0000
0000
ENDCHAR
STARTCHAR LtMixDZCaron
ENCODING 453
SWIDTH 1320 0
DWIDTH 11 0
BBX 11 22 0 -5
BITMAP
0000
0000
0000
0240
e3c0
f180
d800
dfc0
dcc0
d9c0
d9c0
db80
db80
df00
df00
f640
e7c0
0000
0000
0000
0000
0000
ENDCHAR
STARTCHAR LtSmlDZCaron
ENCODING 454
SWIDTH 1320 0
DWIDTH 11 0
BBX 11 22 0 -5
BITMAP
0000
0000
0000
1a40
1bc0
1980
1800
7bc0
fac0
d8c0
d9c0
d980
d980
db80
db00
fb40
7bc0
0000
0000
0000
0000
0000
ENDCHAR
STARTCHAR LtCapLJ
ENCODING 455
SWIDTH 1320 0
DWIDTH 11 0
BBX 11 22 0 -5
BITMAP
0000
0000
0000
0000
c1e0
c0c0
c0c0
c0c0
c0c0
c0c0
c0c0
c0c0
c0c0
c6c0
dec0
fec0
fb80
0000
0000
0000
0000
0000
ENDCHAR
STARTCHAR LtMixLJ
ENCODING 456
SWIDTH 1320 0
DWIDTH 11 0
BBX 11 22 0 -5
BITMAP
0000
0000
0080
01c0
e1c0
e080
e000
e3c0
e1c0
e1c0
e1c0
e1c0
e1c0
e1c0
edc0
edc0
fdc0
01c0
01c0
1dc0
0f80
0000
ENDCHAR
STARTCHAR LtSmlLJ
ENCODING 457
SWIDTH 1320 0
DWIDTH 11 0
BBX 11 22 0 -5
BITMAP
0000
0000
0080
f1c0
71c0
7080
7000
73c0
71c0
71c0
71c0
71c0
71c0
71c0
71c0
71c0
f9c0
01c0
01c0
1dc0
0f80
0000
ENDCHAR
STARTCHAR LtCapNJ
ENCODING 458
SWIDTH 1320 0
DWIDTH 11 0
BBX 11 22 0 -5
BITMAP
0000
0000
0000
0000
c9e0
c8c0
e8c0
e8c0
e8c0
f8c0
f8c0
b8c0
b8c0
bec0
9ec0
9ec0
9b80
0000
0000
0000
0000
0000
ENDCHAR
STARTCHAR LtMixNJ
ENCODING 459
SWIDTH 1320 0
DWIDTH 11 0
BBX 11 22 0 -5
BITMAP
0000
0000
0080
01c0
c5c0
e480
e400
e5c0
f5c0
b5c0
b5c0
bdc0
9dc0
9dc0
9dc0
8dc0
8dc0
01c0
01c0
1dc0
0f80
0000
ENDCHAR
STARTCHAR LtSmlNJ
ENCODING 460
SWIDTH 1320 0
DWIDTH 11 0
BBX 11 22 0 -5
BITMAP
0000
0000
0080
01c0
01c0
0080
0000
d9c0
fdc0
edc0
edc0
edc0
edc0
edc0
edc0
edc0
edc0
01c0
01c0
1dc0
0f80
0000
ENDCHAR
STARTCHAR LtCapACaron
ENCODING 461
SWIDTH 1320 0
DWIDTH 11 0
BBX 11 22 0 -5
BITMAP
3300
1e00
0c00
0000
0c00
0e00
1e00
1e00
1f00
3700
3700
2380
7f80
6380
61c0
c1c0
c1c0
0000
0000
0000
0000
0000
ENDCHAR
STARTCHAR LtSmlACaron
ENCODING 462
SWIDTH 1320 0
DWIDTH 11 0
BBX 11 22 0 -5
BITMAP
0000
0000
0000
1980
0f00
0600
0000
1f80
39c0
31c0
01c0
1fc0
39c0
71c0
71c0
73c0
3dc0
0000
0000
0000
0000
0000
ENDCHAR
STARTCHAR LtCapICaron
ENCODING 463
SWIDTH 1320 0
DWIDTH 11 0
BBX 11 22 0 -5
BITMAP
1980
0f00
0600
0000
3f80
0e00
0e00
0e00
0e00
0e00
0e00
0e00
0e00
0e00
0e00
0e00
3f80
0000
0000
0000
0000
0000
ENDCHAR
STARTCHAR LtSmlICaron
ENCODING 464
SWIDTH 1320 0
DWIDTH 11 0
BBX 11 22 0 -5
BITMAP
0000
0000
0000
3300
1e00
0c00
0000
3e00
0e00
0e00
0e00
0e00
0e00
0e00
0e00
0e00
3f80
0000
0000
0000
0000
0000
ENDCHAR
STARTCHAR LtCapOCaron
ENCODING 465
SWIDTH 1320 0
DWIDTH 11 0
BBX 11 22 0 -5
BITMAP
3300
1e00
0c00
0000
1e00
7380
6180
e1c0
e1c0
e1c0
e1c0
e1c0
e1c0
e1c0
6180
7380
1e00
0000
0000
0000
0000
0000
ENDCHAR
STARTCHAR LtSmlOCaron
ENCODING 466
SWIDTH 1320 0
DWIDTH 11 0
BBX 11 22 0 -5
BITMAP
0000
0000
0000
1980
0f00
0600
0000
1f00
3b80
71c0
71c0
71c0
71c0
71c0
71c0
3b80
1f00
0000
0000
0000
0000
0000
ENDCHAR
STARTCHAR LtCapUCaron
ENCODING 467
SWIDTH 1320 0
DWIDTH 11 0
BBX 11 22 0 -5
BITMAP
1980
0f00
0600
0000
70c0
70c0
70c0
70c0
70c0
70c0
70c0
70c0
70c0
70c0
70c0
3980
1f00
0000
0000
0000
0000
0000
ENDCHAR
STARTCHAR LtSmlUCaron
ENCODING 468
SWIDTH 1320 0
DWIDTH 11 0
BBX 11 22 0 -5
BITMAP
0000
0000
0000
1980
0f00
0600
0000
71c0
71c0
71c0
71c0
71c0
71c0
71c0
71c0
73c0
3dc0
0000
0000
0000
0000
0000
ENDCHAR
STARTCHAR LtCapUDrssMacron
ENCODING 469
SWIDTH 1320 0
DWIDTH 11 0
BBX 11 22 0 -5
BITMAP
3f80
0000
1980
1980
0000
70c0
70c0
70c0
70c0
70c0
70c0
70c0
70c0
70c0
70c0
3980
1f00
0000
0000
0000
0000
0000
ENDCHAR
STARTCHAR LtSmlUDrssMacron
ENCODING 470
SWIDTH 1320 0
DWIDTH 11 0
BBX 11 22 0 -5
BITMAP
0000
1f80
1f80
0000
1980
1980
0000
71c0
71c0
71c0
71c0
71c0
71c0
71c0
71c0
73c0
3dc0
0000
0000
0000
0000
0000
ENDCHAR
STARTCHAR LtCapUDrssAcute
ENCODING 471
SWIDTH 1320 0
DWIDTH 11 0
BBX 11 22 0 -5
BITMAP
0700
0c00
3180
3180
0000
70c0
70c0
70c0
70c0
70c0
70c0
70c0
70c0
70c0
70c0
3980
1f00
0000
0000
0000
0000
0000
ENDCHAR
STARTCHAR LtSmlUDrssAcute
ENCODING 472
SWIDTH 1320 0
DWIDTH 11 0
BBX 11 22 0 -5
BITMAP
0380
0300
0600
0000
1980
1980
0000
71c0
71c0
71c0
71c0
71c0
71c0
71c0
71c0
73c0
3dc0
0000
0000
0000
0000
0000
ENDCHAR
STARTCHAR LtCapUDrssCaron
ENCODING 473
SWIDTH 1320 0
DWIDTH 11 0
BBX 11 22 0 -5
BITMAP
1b00
0e00
3580
3180
0000
70c0
70c0
70c0
70c0
70c0
70c0
70c0
70c0
70c0
70c0
3980
1f00
0000
0000
0000
0000
0000
ENDCHAR
STARTCHAR LtSmlUDrssCaron
ENCODING 474
SWIDTH 1320 0
DWIDTH 11 0
BBX 11 22 0 -5
BITMAP
1b00
0e00
0400
0000
1980
1980
0000
71c0
71c0
71c0
71c0
71c0
71c0
71c0
71c0
73c0
3dc0
0000
0000
0000
0000
0000
ENDCHAR
STARTCHAR LtCapUDrssGrave
ENCODING 475
SWIDTH 1320 0
DWIDTH 11 0
BBX 11 22 0 -5
BITMAP
1c00
0600
3180
3180
0000
70c0
70c0
70c0
70c0
70c0
70c0
70c0
70c0
70c0
70c0
3980
1f00
0000
0000
0000
0000
0000
ENDCHAR
STARTCHAR LtSmlUDrssGrave
ENCODING 476
SWIDTH 1320 0
DWIDTH 11 0
BBX 11 22 0 -5
BITMAP
1c00
0c00
0600
0000
1980
1980
0000
71c0
71c0
71c0
71c0
71c0
71c0
71c0
71c0
73c0
3dc0
0000
0000
0000
0000
0000
ENDCHAR
STARTCHAR LtSmlSchwaNig
ENCODING 477
SWIDTH 1320 0
DWIDTH 11 0
BBX 11 22 0 -5
BITMAP
0000
0000
0000
0000
0000
0000
0000
3f00
7380
61c0
01c0
01c0
7fc0
71c0
71c0
7380
3f00
0000
0000
0000
0000
0000
ENDCHAR
STARTCHAR LtCapADrssMacron
ENCODING 478
SWIDTH 1320 0
DWIDTH 11 0
BBX 11 22 0 -5
BITMAP
3f80
0000
3300
3300
0000
0c00
0e00
1e00
1f00
3700
3700
2380
7f80
6380
61c0
c1c0
c1c0
0000
0000
0000
0000
0000
ENDCHAR
STARTCHAR LtSmlADrssMacron
ENCODING 479
SWIDTH 1320 0
DWIDTH 11 0
BBX 11 22 0 -5
BITMAP
0000
1f80
1f80
0000
1980
1980
0000
1f80
39c0
31c0
01c0
1fc0
39c0
71c0
71c0
73c0
3dc0
0000
0000
0000
0000
0000
ENDCHAR
STARTCHAR LtCapADotMacron
ENCODING 480
SWIDTH 1320 0
DWIDTH 11 0
BBX 11 22 0 -5
BITMAP
3f80
0000
0e00
0e00
0000
0c00
0e00
1e00
1f00
3700
3700
2380
7f80
6380
61c0
c1c0
c1c0
0000
0000
0000
0000
0000
ENDCHAR
STARTCHAR LtSmlADotMacron
ENCODING 481
SWIDTH 1320 0
DWIDTH 11 0
BBX 11 22 0 -5
BITMAP
0000
1f80
1f80
0000
0e00
0e00
0000
1f80
39c0
31c0
01c0
1fc0
39c0
71c0
71c0
73c0
3dc0
0000
0000
0000
0000
0000
ENDCHAR
STARTCHAR LtCapAEMacron
ENCODING 482
SWIDTH 1320 0
DWIDTH 11 0
BBX 11 22 0 -5
BITMAP
1f80
1f80
0000
0000
0fc0
1ec0
1ec0
1e00
3e00
3e80
2f80
6e80
7e00
6e00
cec0
cec0
cfc0
0000
0000
0000
0000
0000
ENDCHAR
STARTCHAR LtSmlAEMacron
ENCODING 483
SWIDTH 1320 0
DWIDTH 11 0
BBX 11 22 0 -5
BITMAP
0000
0000
0000
1f00
1f00
0000
0000
7b80
6ec0
0ec0
0ec0
3fc0
6e00
ce00
cec0
fec0
7b80
0000
0000
0000
0000
0000
ENDCHAR
STARTCHAR LtCapGStroke
ENCODING 484
SWIDTH 1320 0
DWIDTH 11 0
BBX 11 22 0 -5
BITMAP
0000
0000
0000
0000
1f80
7180
6180
e000
e000
e000
e780
e380
efc0
efc0
6380
7380
1f80
0000
0000
0000
0000
0000
ENDCHAR
STARTCHAR LtSmlGStroke
ENCODING 485
SWIDTH 1320 0
DWIDTH 11 0
BBX 11 22 0 -5
BITMAP
0000
0000
0000
0000
0000
0000
0000
3ec0
7380
7380
7380
7380
3f00
3000
7000
7f80
31c0
77e0
67e0
70c0
3f80
0000
ENDCHAR
STARTCHAR LtCapGCaron
ENCODING 486
SWIDTH 1320 0
DWIDTH 11 0
BBX 11 22 0 -5
BITMAP
1980
0f00
0600
0000
0fc0
38c0
30c0
7000
7000
7000
73c0
71c0
71c0
71c0
31c0
39c0
0fc0
0000
0000
0000
0000
0000
ENDCHAR
STARTCHAR LtSmlGCaron
ENCODING 487
SWIDTH 1320 0
DWIDTH 11 0
BBX 11 22 0 -5
BITMAP
0000
0000
0000
3300
1e00
0c00
0000
3ec0
7380
7380
7380
7380
3f00
3000
7000
7f80
3fc0
71c0
60c0
71c0
3f80
0000
ENDCHAR
STARTCHAR LtCapKCaron
ENCODING 488
SWIDTH 1320 0
DWIDTH 11 0
BBX 11 22 0 -5
BITMAP
1980
0f00
0600
0000
70c0
70c0
7180
7300
7300
7600
7e00
7f00
7700
7380
7380
71c0
71c0
0000
0000
0000
0000
0000
ENDCHAR
STARTCHAR LtSmlKCaron
ENCODING 489
SWIDTH 1320 0
DWIDTH 11 0
BBX 11 22 0 -5
BITMAP
1980
0f00
0600
7000
7000
7000
7000
70c0
7180
7300
7600
7e00
7f00
7380
7380
71c0
71c0
0000
0000
0000
0000
0000
ENDCHAR
STARTCHAR LtCapOOgonek
ENCODING 490
SWIDTH 1320 0
DWIDTH 11 0
BBX 11 22 0 -5
BITMAP
0000
0000
0000
0000
1e00
7380
6180
e1c0
e1c0
e1c0
e1c0
e1c0
e1c0
e1c0
6180
7380
1e00
0600
0c00
0c00
0700
0000
ENDCHAR
STARTCHAR LtSmlOOgonek
ENCODING 491
SWIDTH 1320 0
DWIDTH 11 0
BBX 11 22 0 -5
BITMAP
0000
0000
0000
0000
0000
0000
0000
1f00
3b80
71c0
71c0
71c0
71c0
71c0
71c0
3b80
1f00
0600
0c00
0c00
0700
0000
ENDCHAR
STARTCHAR LtCapOMacronOgonek
ENCODING 492
SWIDTH 1320 0
DWIDTH 11 0
BBX 11 22 0 -5
BITMAP
1f00
1f00
0000
0000
1e00
7380
6180
e1c0
e1c0
e1c0
e1c0
e1c0
e1c0
e1c0
6180
7380
1e00
0600
0c00
0c00
0700
0000
ENDCHAR
STARTCHAR LtSmlOMacronOgonek
ENCODING 493
SWIDTH 1320 0
DWIDTH 11 0
BBX 11 22 0 -5
BITMAP
0000
0000
0000
1f00
1f00
0000
0000
1f00
3b80
71c0
71c0
71c0
71c0
71c0
71c0
3b80
1f00
0600
0c00
0c00
0700
0000
ENDCHAR
STARTCHAR LtCapEzhCaron
ENCODING 494
SWIDTH 1320 0
DWIDTH 11 0
BBX 11 22 0 -5
BITMAP
1980
0f00
0600
0000
7fc0
61c0
6180
0300
0700
0e00
1f00
0380
01c0
01c0
61c0
6380
3f00
0000
0000
0000
0000
0000
ENDCHAR
STARTCHAR LtSmlEzhCaron
ENCODING 495
SWIDTH 1320 0
DWIDTH 11 0
BBX 11 22 0 -5
BITMAP
0000
0000
0000
1980
0f00
0600
0000
7fc0
61c0
6380
0380
0700
0e00
0f00
0380
01c0
01c0
01c0
61c0
6380
3f00
0000
ENDCHAR
STARTCHAR LtSmlJCaron
ENCODING 496
SWIDTH 1320 0
DWIDTH 11 0
BBX 11 22 0 -5
BITMAP
0000
0000
0000
1980
0f00
0600
0000
3f00
0700
0700
0700
0700
0700
0700
0700
0700
0700
0700
e700
e700
7e00
0000
ENDCHAR
STARTCHAR LtCapDZ
ENCODING 497
SWIDTH 1320 0
DWIDTH 11 0
BBX 11 22 0 -5
BITMAP
0000
0000
0000
0000
e7c0
f4c0
d9c0
d9c0
d980
d980
db80
db80
db00
db00
df00
f640
e7c0
0000
0000
0000
0000
0000
ENDCHAR
STARTCHAR LtMixDZ
ENCODING 498
SWIDTH 1320 0
DWIDTH 11 0
BBX 11 22 0 -5
BITMAP
0000
0000
0000
0000
e000
f000
d800
dfc0
dcc0
d9c0
d9c0
db80
db80
df00
df00
f640
e7c0
0000
0000
0000
0000
0000
ENDCHAR
STARTCHAR LtSmlDZ
ENCODING 499
SWIDTH 1320 0
DWIDTH 11 0
BBX 11 22 0 -5
BITMAP
0000
0000
0000
1800
1800
1800
1800
7bc0
fac0
d8c0
d9c0
d980
d980
db80
db00
fb40
7bc0
0000
0000
0000
0000
0000
ENDCHAR
STARTCHAR LtCapGAcute
ENCODING 500
SWIDTH 1320 0
DWIDTH 11 0
BBX 11 22 0 -5
BITMAP
0380
0300
0600
0000
0fc0
38c0
30c0
7000
7000
7000
73c0
71c0
71c0
71c0
31c0
39c0
0fc0
0000
0000
0000
0000
0000
ENDCHAR
STARTCHAR LtSmlGAcute
ENCODING 501
SWIDTH 1320 0
DWIDTH 11 0
BBX 11 22 0 -5
BITMAP
0000
0000
0700
0600
0c00
0800
0000
3ec0
7380
7380
7380
7380
3f00
3000
7000
7f80
3fc0
71c0
60c0
71c0
3f80
0000
ENDCHAR
STARTCHAR LtCapHwair
ENCODING 502
SWIDTH 1320 0
DWIDTH 11 0
BBX 11 22 0 -5
BITMAP
0000
0000
0000
0000
ee00
ee00
ee00
ee00
eec0
eec0
fec0
eec0
eec0
eec0
eec0
eec0
e780
0000
0000
0000
0000
0000
ENDCHAR
STARTCHAR LtCapWynn
ENCODING 503
SWIDTH 1320 0
DWIDTH 11 0
BBX 11 22 0 -5
BITMAP
0000
0000
0000
0000
7780
7dc0
78c0
70c0
7180
7300
7600
7c00
7800
7000
7000
7000
7000
0000
0000
0000
0000
0000
ENDCHAR
STARTCHAR LtCapNGrave
ENCODING 504
SWIDTH 1320 0
DWIDTH 11 0
BBX 11 22 0 -5
BITMAP
1c00
0c00
0600
0000
70c0
78c0
78c0
7cc0
7cc0
6ec0
6ec0
67c0
67c0
63c0
63c0
61c0
61c0
0000
0000
0000
0000
0000
ENDCHAR
STARTCHAR LtSmlNGrave
ENCODING 505
SWIDTH 1320 0
DWIDTH 11 0
BBX 11 22 0 -5
BITMAP
0000
0000
3800
1800
0c00
0400
0000
7780
79c0
71c0
71c0
71c0
71c0
71c0
71c0
71c0
71c0
0000
0000
0000
0000
0000
ENDCHAR
STARTCHAR LtCapARingAcute
ENCODING 506
SWIDTH 1320 0
DWIDTH 11 0
BBX 11 22 0 -5
BITMAP
0700
0c00
0000
0e00
1b00
0e00
0c00
0e00
1e00
1f00
3700
3380
7f80
6380
61c0
c1c0
c1c0
0000
0000
0000
0000
0000
ENDCHAR
STARTCHAR LtSmlARingAcute
ENCODING 507
SWIDTH 1320 0
DWIDTH 11 0
BBX 11 22 0 -5
BITMAP
0700
0c00
0000
0e00
1b00
0e00
0000
1f80
39c0
31c0
01c0
1fc0
39c0
71c0
71c0
73c0
3dc0
0000
0000
0000
0000
0000
ENDCHAR
STARTCHAR LtCapAEAcute
ENCODING 508
SWIDTH 1320 0
DWIDTH 11 0
BBX 11 22 0 -5
BITMAP
0380
0300
0600
0000
0fc0
1ec0
1ec0
1e00
3e00
3e80
2f80
6e80
7e00
6e00
cec0
cec0
cfc0
0000
0000
0000
0000
0000
ENDCHAR
STARTCHAR LtSmlAEAcute
ENCODING 509
SWIDTH 1320 0
DWIDTH 11 0
BBX 11 22 0 -5
BITMAP
0000
0000
0700
0600
0c00
0800
0000
7b80
6ec0
0ec0
0ec0
3fc0
6e00
ce00
cec0
fec0
7b80
0000
0000
0000
0000
0000
ENDCHAR
STARTCHAR LtCapOStrokeAcute
ENCODING 510
SWIDTH 1320 0
DWIDTH 11 0
BBX 11 22 0 -5
BITMAP
0700
0600
0c00
0080
1e80
7380
6380
e3c0
e7c0
e5c0
edc0
e9c0
f9c0
f1c0
7180
7380
5e00
4000
0000
0000
0000
0000
ENDCHAR
STARTCHAR LtSmlOStrokeAcute
ENCODING 511
SWIDTH 1320 0
DWIDTH 11 0
BBX 11 22 0 -5
BITMAP
0000
0000
0700
0600
0c00
0800
00c0
1f80
3b80
73c0
77c0
75c0
75c0
7dc0
79c0
3b80
3f00
6000
0000
0000
0000
0000
ENDCHAR
STARTCHAR LtCapAGrave2
ENCODING 512
SWIDTH 1320 0
DWIDTH 11 0
BBX 11 22 0 -5
BITMAP
6c00
3600
1b00
0000
0c00
0e00
1e00
1e00
1f00
3700
3700
2380
7f80
6380
61c0
c1c0
c1c0
0000
0000
0000
0000
0000
ENDCHAR
STARTCHAR LtSmlAGrave2
ENCODING 513
SWIDTH 1320 0
DWIDTH 11 0
BBX 11 22 0 -5
BITMAP
0000
0000
6c00
3600
1b00
0900
0000
1f80
39c0
31c0
01c0
1fc0
39c0
71c0
71c0
73c0
3dc0
0000
0000
0000
0000
0000
ENDCHAR
STARTCHAR LtCapAInvbreve
ENCODING 514
SWIDTH 1320 0
DWIDTH 11 0
BBX 11 22 0 -5
BITMAP
0e00
1b00
1100
0000
0c00
0e00
1e00
1e00
1f00
3700
3700
2380
7f80
6380
61c0
c1c0
c1c0
0000
0000
0000
0000
0000
ENDCHAR
STARTCHAR LtSmlAInvbreve
ENCODING 515
SWIDTH 1320 0
DWIDTH 11 0
BBX 11 22 0 -5
BITMAP
0000
0000
0000
0e00
1b00
1100
0000
1f80
39c0
31c0
01c0
1fc0
39c0
71c0
71c0
73c0
3dc0
0000
0000
0000
0000
0000
ENDCHAR
STARTCHAR LtCapEGrave2
ENCODING 516
SWIDTH 1320 0
DWIDTH 11 0
BBX 11 22 0 -5
BITMAP
6c00
3600
1b00
0000
7fc0
70c0
70c0
7000
7000
7200
7e00
7200
7000
7000
70c0
70c0
7fc0
0000
0000
0000
0000
0000
ENDCHAR
STARTCHAR LtSmlEGrave2
ENCODING 517
SWIDTH 1320 0
DWIDTH 11 0
BBX 11 22 0 -5
BITMAP
0000
0000
6c00
3600
1b00
0900
0000
1f80
39c0
71c0
71c0
7fc0
7000
7000
70c0
39c0
1f80
0000
0000
0000
0000
0000
ENDCHAR
STARTCHAR LtCapEInvbreve
ENCODING 518
SWIDTH 1320 0
DWIDTH 11 0
BBX 11 22 0 -5
BITMAP
0e00
1b00
1100
0000
7fc0
70c0
70c0
7000
7000
7200
7e00
7200
7000
7000
70c0
70c0
7fc0
0000
0000
0000
0000
0000
ENDCHAR
STARTCHAR LtSmlEInvbreve
ENCODING 519
SWIDTH 1320 0
DWIDTH 11 0
BBX 11 22 0 -5
BITMAP
0000
0000
0000
0e00
1b00
1100
0000
1f80
39c0
71c0
71c0
7fc0
7000
7000
70c0
39c0
1f80
0000
0000
0000
0000
0000
ENDCHAR
STARTCHAR LtCapIGrave2
ENCODING 520
SWIDTH 1320 0
DWIDTH 11 0
BBX 11 22 0 -5
BITMAP
3600
1b00
0d80
0000
3f80
0e00
0e00
0e00
0e00
0e00
0e00
0e00
0e00
0e00
0e00
0e00
3f80
0000
0000
0000
0000
0000
ENDCHAR
STARTCHAR LtSmlIGrave2
ENCODING 521
SWIDTH 1320 0
DWIDTH 11 0
BBX 11 22 0 -5
BITMAP
0000
0000
6c00
3600
1b00
0900
0000
3e00
0e00
0e00
0e00
0e00
0e00
0e00
0e00
0e00
3f80
0000
0000
0000
0000
0000
ENDCHAR
STARTCHAR LtCapIInvbreve
ENCODING 522
SWIDTH 1320 0
DWIDTH 11 0
BBX 11 22 0 -5
BITMAP
0e00
1b00
1100
0000
3f80
0e00
0e00
0e00
0e00
0e00
0e00
0e00
0e00
0e00
0e00
0e00
3f80
0000
0000
0000
0000
0000
ENDCHAR
STARTCHAR LtSmlIInvbreve
ENCODING 523
SWIDTH 1320 0
DWIDTH 11 0
BBX 11 22 0 -5
BITMAP
0000
0000
0000
0e00
1b00
1100
0000
3e00
0e00
0e00
0e00
0e00
0e00
0e00
0e00
0e00
3f80
0000
0000
0000
0000
0000
ENDCHAR
STARTCHAR LtCapOGrave2
ENCODING 524
SWIDTH 1320 0
DWIDTH 11 0
BBX 11 22 0 -5
BITMAP
6c00
3600
1b00
0000
1e00
7380
6180
e1c0
e1c0
e1c0
e1c0
e1c0
e1c0
e1c0
6180
7380
1e00
0000
0000
0000
0000
0000
ENDCHAR
STARTCHAR LtSmlOGrave2
ENCODING 525
SWIDTH 1320 0
DWIDTH 11 0
BBX 11 22 0 -5
BITMAP
0000
0000
6c00
3600
1b00
0900
0000
1f00
3b80
71c0
71c0
71c0
71c0
71c0
71c0
3b80
1f00
0000
0000
0000
0000
0000
ENDCHAR
STARTCHAR LtCapOInvbreve
ENCODING 526
SWIDTH 1320 0
DWIDTH 11 0
BBX 11 22 0 -5
BITMAP
0e00
1b00
1100
0000
1e00
7380
6180
e1c0
e1c0
e1c0
e1c0
e1c0
e1c0
e1c0
6180
7380
1e00
0000
0000
0000
0000
0000
ENDCHAR
STARTCHAR LtSmlOInvbreve
ENCODING 527
SWIDTH 1320 0
DWIDTH 11 0
BBX 11 22 0 -5
BITMAP
0000
0000
0000
0e00
1b00
1100
0000
1f00
3b80
71c0
71c0
71c0
71c0
71c0
71c0
3b80
1f00
0000
0000
0000
0000
0000
ENDCHAR
STARTCHAR LtCapRGrave2
ENCODING 528
SWIDTH 1320 0
DWIDTH 11 0
BBX 11 22 0 -5
BITMAP
6c00
3600
1b00
0000
7f00
7380
71c0
71c0
71c0
7380
7f00
7600
7700
7300
7380
71c0
71c0
0000
0000
0000
0000
0000
ENDCHAR
STARTCHAR LtSmlRGrave2
ENCODING 529
SWIDTH 1320 0
DWIDTH 11 0
BBX 11 22 0 -5
BITMAP
0000
0000
6c00
3600
1b00
0900
0000
79c0
3bc0
3cc0
3800
3800
3800
3800
3800
3800
3800
0000
0000
0000
0000
0000
ENDCHAR
STARTCHAR LtCapRInvbreve
ENCODING 530
SWIDTH 1320 0
DWIDTH 11 0
BBX 11 22 0 -5
BITMAP
0e00
1b00
1100
0000
7f00
7380
71c0
71c0
71c0
7380
7f00
7600
7700
7300
7380
71c0
71c0
0000
0000
0000
0000
0000
ENDCHAR
STARTCHAR LtSmlRInvbreve
ENCODING 531
SWIDTH 1320 0
DWIDTH 11 0
BBX 11 22 0 -5
BITMAP
0000
0000
0000
0700
0d80
0880
0000
79c0
3bc0
3cc0
3800
3800
3800
3800
3800
3800
3800
0000
0000
0000
0000
0000
ENDCHAR
STARTCHAR LtCapUGrave2
ENCODING 532
SWIDTH 1320 0
DWIDTH 11 0
BBX 11 22 0 -5
BITMAP
3600
1b00
0d80
0000
70c0
70c0
70c0
70c0
70c0
70c0
70c0
70c0
70c0
70c0
70c0
3980
1f00
0000
0000
0000
0000
0000
ENDCHAR
STARTCHAR LtSmlUGrave2
ENCODING 533
SWIDTH 1320 0
DWIDTH 11 0
BBX 11 22 0 -5
BITMAP
0000
0000
6c00
3600
1b00
0900
0000
71c0
71c0
71c0
71c0
71c0
71c0
71c0
71c0
73c0
3dc0
0000
0000
0000
0000
0000
ENDCHAR
STARTCHAR LtCapUInvbreve
ENCODING 534
SWIDTH 1320 0
DWIDTH 11 0
BBX 11 22 0 -5
BITMAP
0e00
1b00
1100
0000
70c0
70c0
70c0
70c0
70c0
70c0
70c0
70c0
70c0
70c0
70c0
3980
1f00
0000
0000
0000
0000
0000
ENDCHAR
STARTCHAR LtSmlUInvbreve
ENCODING 535
SWIDTH 1320 0
DWIDTH 11 0
BBX 11 22 0 -5
BITMAP
0000
0000
0000
0e00
1b00
1100
0000
71c0
71c0
71c0
71c0
71c0
71c0
71c0
71c0
73c0
3dc0
0000
0000
0000
0000
0000
ENDCHAR
STARTCHAR LtCapSComma
ENCODING 536
SWIDTH 1320 0
DWIDTH 11 0
BBX 11 22 0 -5
BITMAP
0000
0000
0000
0000
1fc0
38c0
70c0
7000
7800
3c00
1f00
0780
03c0
01c0
61c0
6380
7f00
0000
0c00
0e00
1c00
0000
ENDCHAR
STARTCHAR LtSmlSComma
ENCODING 537
SWIDTH 1320 0
DWIDTH 11 0
BBX 11 22 0 -5
BITMAP
0000
0000
0000
0000
0000
0000
0000
3f80
70c0
70c0
7800
3e00
0f80
03c0
61c0
61c0
3f80
0000
0c00
0e00
1c00
0000
ENDCHAR
STARTCHAR LtCapTComma
ENCODING 538
SWIDTH 1320 0
DWIDTH 11 0
BBX 11 22 0 -5
BITMAP
0000
0000
0000
0000
ffe0
ce60
ce60
0e00
0e00
0e00
0e00
0e00
0e00
0e00
0e00
0e00
0e00
0000
0600
0700
0e00
0000
ENDCHAR
STARTCHAR LtSmlTComma
ENCODING 539
SWIDTH 1320 0
DWIDTH 11 0
BBX 11 22 0 -5
BITMAP
0000
0000
0000
0000
0c00
0c00
1c00
7f00
1c00
1c00
1c00
1c00
1c00
1c00
1cc0
1cc0
0f80
0000
0600
0700
0e00
0000
ENDCHAR
STARTCHAR LtCapYogh
ENCODING 540
SWIDTH 1320 0
DWIDTH 11 0
BBX 11 22 0 -5
BITMAP
0000
0000
0000
0000
3f80
71c0
61c0
0380
0f00
1f80
19c0
01c0
01c0
0380
0f00
3c00
7000
0000
0000
0000
0000
0000
ENDCHAR
STARTCHAR LtSmlYogh
ENCODING 541
SWIDTH 1320 0
DWIDTH 11 0
BBX 11 22 0 -5
BITMAP
0000
0000
0000
0000
0000
0000
0000
3f80
71c0
61c0
01c0
0380
0f00
1d80
01c0
01c0
01c0
0380
1f00
3800
6000
0000
ENDCHAR
STARTCHAR LtCapHCaron
ENCODING 542
SWIDTH 1320 0
DWIDTH 11 0
BBX 11 22 0 -5
BITMAP
1980
0f00
0600
0000
71c0
71c0
71c0
71c0
71c0
71c0
7fc0
71c0
71c0
71c0
71c0
71c0
71c0
0000
0000
0000
0000
0000
ENDCHAR
STARTCHAR LtSmlHCaron
ENCODING 543
SWIDTH 1320 0
DWIDTH 11 0
BBX 11 22 0 -5
BITMAP
1980
0f00
0600
7000
7000
7000
7000
7780
79c0
71c0
71c0
71c0
71c0
71c0
71c0
71c0
71c0
0000
0000
0000
0000
0000
ENDCHAR
STARTCHAR LtCapNLongleg
ENCODING 544
SWIDTH 1320 0
DWIDTH 11 0
BBX 11 22 0 -5
BITMAP
0000
0000
0000
0000
7780
79c0
71c0
71c0
71c0
71c0
71c0
71c0
71c0
71c0
71c0
71c0
71c0
01c0
01c0
01c0
01c0
0000
ENDCHAR
STARTCHAR LtSmlDCurl
ENCODING 545
SWIDTH 1320 0
DWIDTH 11 0
BBX 11 22 0 -5
BITMAP
0000
0000
0000
0700
0700
0700
0700
3700
6f00
e700
e700
e700
e700
e760
e7e0
6da0
31e0
0180
0100
0000
0000
0000
ENDCHAR
STARTCHAR LtCapOu
ENCODING 546
SWIDTH 1320 0
DWIDTH 11 0
BBX 11 22 0 -5
BITMAP
0000
0000
0000
0000
3b80
71c0
71c0
71c0
3180
1b00
1f00
3b80
71c0
71c0
71c0
71c0
3f80
0000
0000
0000
0000
0000
ENDCHAR
STARTCHAR LtSmlOu
ENCODING 547
SWIDTH 1320 0
DWIDTH 11 0
BBX 11 22 0 -5
BITMAP
0000
0000
0000
1b00
3180
71c0
71c0
71c0
3b80
1f00
3b80
71c0
71c0
71c0
71c0
3180
1f00
0000
0000
0000
0000
0000
ENDCHAR
STARTCHAR LtCapZLhookL
ENCODING 548
SWIDTH 1320 0
DWIDTH 11 0
BBX 11 22 0 -5
BITMAP
0000
0000
0000
0000
7fc0
61c0
6380
0380
0700
0700
0e00
1c00
1c00
3800
3800
7000
7f80
01c0
01c0
01c0
0380
0000
ENDCHAR
STARTCHAR LtSmlZLhookL
ENCODING 549
SWIDTH 1320 0
DWIDTH 11 0
BBX 11 22 0 -5
BITMAP
0000
0000
0000
0000
0000
0000
0000
7fc0
63c0
6380
0700
0f00
1e00
1c00
3800
7800
7f80
01c0
01c0
01c0
0380
0000
ENDCHAR
STARTCHAR LtCapADot
ENCODING 550
SWIDTH 1320 0
DWIDTH 11 0
BBX 11 22 0 -5
BITMAP
0c00
1e00
0c00
0000
0c00
0e00
1e00
1e00
1f00
3700
3700
2380
7f80
6380
61c0
c1c0
c1c0
0000
0000
0000
0000
0000
ENDCHAR
STARTCHAR LtSmlADot
ENCODING 551
SWIDTH 1320 0
DWIDTH 11 0
BBX 11 22 0 -5
BITMAP
0000
0000
0400
0e00
0e00
0400
0000
1f80
39c0
31c0
01c0
1fc0
39c0
71c0
71c0
73c0
3dc0
0000
0000
0000
0000
0000
ENDCHAR
STARTCHAR LtCapECedilla
ENCODING 552
SWIDTH 1320 0
DWIDTH 11 0
BBX 11 22 0 -5
BITMAP
0000
0000
0000
0000
7fc0
70c0
70c0
7000
7000
7200
7e00
7200
7000
7000
70c0
70c0
7fc0
0400
0600
0700
1e00
0000
ENDCHAR
STARTCHAR LtSmlECedilla
ENCODING 553
SWIDTH 1320 0
DWIDTH 11 0
BBX 11 22 0 -5
BITMAP
0000
0000
0000
0000
0000
0000
0000
1f80
39c0
71c0
71c0
7fc0
7000
7000
70c0
39c0
1f80
0400
0600
0700
1e00
0000
ENDCHAR
STARTCHAR LtCapODrssMacron
ENCODING 554
SWIDTH 1320 0
DWIDTH 11 0
BBX 11 22 0 -5
BITMAP
3f80
0000
3300
3300
0000
1e00
7380
6180
e1c0
e1c0
e1c0
e1c0
e1c0
e1c0
6180
7380
1e00
0000
0000
0000
0000
0000
ENDCHAR
STARTCHAR LtSmlODrssMacron
ENCODING 555
SWIDTH 1320 0
DWIDTH 11 0
BBX 11 22 0 -5
BITMAP
0000
1f80
1f80
0000
1980
1980
0000
1f00
3b80
71c0
71c0
71c0
71c0
71c0
71c0
3b80
1f00
0000
0000
0000
0000
0000
ENDCHAR
STARTCHAR LtCapOTildeMacron
ENCODING 556
SWIDTH 1320 0
DWIDTH 11 0
BBX 11 22 0 -5
BITMAP
3f80
0000
1d80
3700
0000
1e00
7380
6180
e1c0
e1c0
e1c0
e1c0
e1c0
e1c0
6180
7380
1e00
0000
0000
0000
0000
0000
ENDCHAR
STARTCHAR LtSmlOTildeMacron
ENCODING 557
SWIDTH 1320 0
DWIDTH 11 0
BBX 11 22 0 -5
BITMAP
1f80
1f80
0000
0c80
1f80
1300
0000
1f00
3b80
71c0
71c0
71c0
71c0
71c0
71c0
3b80
1f00
0000
0000
0000
0000
0000
ENDCHAR
STARTCHAR LtCapODot
ENCODING 558
SWIDTH 1320 0
DWIDTH 11 0
BBX 11 22 0 -5
BITMAP
0c00
1e00
0c00
0000
1e00
7380
6180
e1c0
e1c0
e1c0
e1c0
e1c0
e1c0
e1c0
6180
7380
1e00
0000
0000
0000
0000
0000
ENDCHAR
STARTCHAR LtSmlODot
ENCODING 559
SWIDTH 1320 0
DWIDTH 11 0
BBX 11 22 0 -5
BITMAP
0000
0000
0400
0e00
0e00
0400
0000
1f00
3b80
71c0
71c0
71c0
71c0
71c0
71c0
3b80
1f00
0000
0000
0000
0000
0000
ENDCHAR
STARTCHAR LtCapODotMacron
ENCODING 560
SWIDTH 1320 0
DWIDTH 11 0
BBX 11 22 0 -5
BITMAP
3f80
0000
0e00
0e00
0000
1e00
7380
6180
e1c0
e1c0
e1c0
e1c0
e1c0
e1c0
6180
7380
1e00
0000
0000
0000
0000
0000
ENDCHAR
STARTCHAR LtSmlODotMacron
ENCODING 561
SWIDTH 1320 0
DWIDTH 11 0
BBX 11 22 0 -5
BITMAP
0000
1f80
1f80
0000
0e00
0e00
0000
1f00
3b80
71c0
71c0
71c0
71c0
71c0
71c0
3b80
1f00
0000
0000
0000
0000
0000
ENDCHAR
STARTCHAR LtCapYMacron
ENCODING 562
SWIDTH 1320 0
DWIDTH 11 0
BBX 11 22 0 -5
BITMAP
1f00
1f00
0000
0000
e0c0
70c0
7180
3980
3b00
1f00
1e00
0e00
0e00
0e00
0e00
0e00
0e00
0000
0000
0000
0000
0000
ENDCHAR
STARTCHAR LtSmlYMacron
ENCODING 563
SWIDTH 1320 0
DWIDTH 11 0
BBX 11 22 0 -5
BITMAP
0000
0000
0000
1f00
1f00
0000
0000
60c0
70c0
7080
3980
3980
1d00
1f00
0f00
0e00
0600
0600
6400
6c00
3800
0000
ENDCHAR
STARTCHAR LtSmlLCurl
ENCODING 564
SWIDTH 1320 0
DWIDTH 11 0
BBX 11 22 0 -5
BITMAP
0000
0000
0000
7c00
1c00
1c00
1c00
1c00
1c00
1c00
1c00
1c00
1c00
1cc0
1dc0
1d40
7fc0
0300
0200
0000
0000
0000
ENDCHAR
STARTCHAR LtSmlNCurl
ENCODING 565
SWIDTH 1320 0
DWIDTH 11 0
BBX 11 22 0 -5
BITMAP
0000
0000
0000
0000
0000
0000
0000
ee00
f700
e700
e700
e700
e700
e760
e7e0
e3a0
e1e0
0180
0100
0000
0000
0000
ENDCHAR
STARTCHAR LtSmlTCurl
ENCODING 566
SWIDTH 1320 0
DWIDTH 11 0
BBX 11 22 0 -5
BITMAP
0000
0000
0000
0000
1800
1800
3800
fe00
3800
3800
3800
3800
3800
3980
3bc0
3ac0
1f80
0600
0400
0000
0000
0000
ENDCHAR
STARTCHAR LtSmlJDotless
ENCODING 567
SWIDTH 1320 0
DWIDTH 11 0
BBX 11 22 0 -5
BITMAP
0000
0000
0000
0000
0000
0000
0000
3f00
0700
0700
0700
0700
0700
0700
0700
0700
0700
0700
e700
e700
7e00
0000
ENDCHAR
STARTCHAR LtSmlDB
ENCODING 568
SWIDTH 1320 0
DWIDTH 11 0
BBX 11 22 0 -5
BITMAP
0000
0000
0000
0c00
0c00
0c00
0c00
3f00
6d80
edc0
edc0
edc0
edc0
edc0
edc0
6d80
3f00
0000
0000
0000
0000
0000
ENDCHAR
STARTCHAR LtSmlQP
ENCODING 569
SWIDTH 1320 0
DWIDTH 11 0
BBX 11 22 0 -5
BITMAP
0000
0000
0000
0000
0000
0000
0000
3f00
6d80
edc0
edc0
edc0
edc0
edc0
edc0
6d80
3f00
0c00
0c00
0c00
0c00
0000
ENDCHAR
STARTCHAR LtCapAStroke
ENCODING 570
SWIDTH 1320 0
DWIDTH 11 0
BBX 11 22 0 -5
BITMAP
0000
0000
0000
0080
0d80
0f00
1f00
1e00
1f00
3700
3700
2b80
7f80
7380
71c0
e1c0
e1c0
4000
0000
0000
0000
0000
ENDCHAR
STARTCHAR LtCapCStroke
ENCODING 571
SWIDTH 1320 0
DWIDTH 11 0
BBX 11 22 0 -5
BITMAP
0000
0000
0000
0080
0fc0
38c0
31c0
7100
7300
7200
7600
7400
7c00
7800
38c0
39c0
2f80
2000
0000
0000
0000
0000
ENDCHAR
STARTCHAR LtSmlCStroke
ENCODING 572
SWIDTH 1320 0
DWIDTH 11 0
BBX 11 22 0 -5
BITMAP
0000
0000
0000
0000
0000
0000
0080
1f80
39c0
71c0
7300
7200
7600
7400
7cc0
39c0
1f80
1000
0000
0000
0000
0000
ENDCHAR
STARTCHAR LtCapLStrokeH
ENCODING 573
SWIDTH 1320 0
DWIDTH 11 0
BBX 11 22 0 -5
BITMAP
0000
0000
0000
0000
7000
7000
7000
7000
7000
fe00
fe00
7000
7000
7000
70c0
70c0
7fc0
0000
0000
0000
0000
0000
ENDCHAR
STARTCHAR LtCapTStrokeD
ENCODING 574
SWIDTH 1320 0
DWIDTH 11 0
BBX 11 22 0 -5
BITMAP
0000
0000
0000
0040
ffe0
cee0
cee0
0f80
0f00
0f00
0e00
0e00
1e00
1e00
3e00
2e00
6e00
4000
0000
0000
0000
0000
ENDCHAR
STARTCHAR LtSmlSSwash
ENCODING 575
SWIDTH 1320 0
DWIDTH 11 0
BBX 11 22 0 -5
BITMAP
0000
0000
0000
0000
0000
0000
0000
3f80
70c0
70c0
7800
3e00
0f80
03c0
61c0
61c0
3f80
1c00
0e40
07c0
0380
0000
ENDCHAR
STARTCHAR LtSmlZSwash
ENCODING 576
SWIDTH 1320 0
DWIDTH 11 0
BBX 11 22 0 -5
BITMAP
0000
0000
0000
0000
0000
0000
0000
7fc0
63c0
6380
0700
0f00
1e00
1c00
3800
7800
7800
1c00
0e40
07c0
0380
0000
ENDCHAR
STARTCHAR LtCapGlot1
ENCODING 577
SWIDTH 1320 0
DWIDTH 11 0
BBX 11 22 0 -5
BITMAP
0000
0000
0000
0000
3f00
7380
71c0
71c0
01c0
01c0
0380
0f00
0e00
0e00
0e00
0e00
0e00
0000
0000
0000
0000
0000
ENDCHAR
STARTCHAR LtSmlGlot1
ENCODING 578
SWIDTH 1320 0
DWIDTH 11 0
BBX 11 22 0 -5
BITMAP
0000
0000
0000
0000
0000
0000
0000
3f00
7380
71c0
01c0
01c0
0380
0f00
0e00
0e00
0e00
0000
0000
0000
0000
0000
ENDCHAR
STARTCHAR LtCapBStroke
ENCODING 579
SWIDTH 1320 0
DWIDTH 11 0
BBX 11 22 0 -5
BITMAP
0000
0000
0000
0000
7f00
7380
71c0
71c0
71c0
7380
7f00
7380
71c0
fdc0
fdc0
7380
7f00
0000
0000
0000
0000
0000
ENDCHAR
STARTCHAR LtCapUStroke
ENCODING 580
SWIDTH 1320 0
DWIDTH 11 0
BBX 11 22 0 -5
BITMAP
0000
0000
0000
0000
70c0
70c0
70c0
70c0
70c0
ffc0
ffc0
70c0
70c0
70c0
70c0
3980
1f00
0000
0000
0000
0000
0000
ENDCHAR
STARTCHAR LtCapVTrnd
ENCODING 581
SWIDTH 1320 0
DWIDTH 11 0
BBX 11 22 0 -5
BITMAP
0000
0000
0000
0000
0c00
0e00
0e00
1e00
1f00
1700
3700
3380
2380
6380
61c0
41c0
c1c0
0000
0000
0000
0000
0000
ENDCHAR
STARTCHAR LtCapEStroke
ENCODING 582
SWIDTH 1320 0
DWIDTH 11 0
BBX 11 22 0 -5
BITMAP
0000
0000
0000
0100
7fc0
73c0
72c0
7600
7400
7600
7e00
7a00
7800
7000
70c0
70c0
7fc0
4000
0000
0000
0000
0000
ENDCHAR
STARTCHAR LtSmlEStroke
ENCODING 583
SWIDTH 1320 0
DWIDTH 11 0
BBX 11 22 0 -5
BITMAP
0000
0000
0000
0000
0000
0000
0080
1f80
39c0
71c0
73c0
7fc0
7600
7400
7cc0
39c0
1f80
1000
0000
0000
0000
0000
ENDCHAR
STARTCHAR LtCapJStroke
ENCODING 584
SWIDTH 1320 0
DWIDTH 11 0
BBX 11 22 0 -5
BITMAP
0000
0000
0000
0000
07c0
0380
0380
0380
0380
1fc0
1fc0
0380
0380
6380
6380
7700
3f00
0000
0000
0000
0000
0000
ENDCHAR
STARTCHAR LtSmlJStroke
ENCODING 585
SWIDTH 1320 0
DWIDTH 11 0
BBX 11 22 0 -5
BITMAP
0000
0000
0200
0700
0700
0200
0000
3f00
0700
0700
0700
0700
3fc0
3fc0
0700
0700
0700
0700
e700
e700
7e00
0000
ENDCHAR
STARTCHAR LtCapQHooktail
ENCODING 586
SWIDTH 1320 0
DWIDTH 11 0
BBX 11 22 0 -5
BITMAP
0000
0000
0000
0000
1b80
7780
6380
e380
e380
e380
e380
e380
e380
e380
6380
7780
1b80
0380
03a0
01e0
0000
0000
ENDCHAR
STARTCHAR LtSmlQHooktail
ENCODING 587
SWIDTH 1320 0
DWIDTH 11 0
BBX 11 22 0 -5
BITMAP
0000
0000
0000
0000
0000
0000
0000
3b80
7780
e380
e380
e380
e380
e380
e380
7780
3b80
0380
0380
03a0
01e0
0000
ENDCHAR
STARTCHAR LtCapRStroke
ENCODING 588
SWIDTH 1320 0
DWIDTH 11 0
BBX 11 22 0 -5
BITMAP
0000
0000
0000
0000
7f00
7380
71c0
71c0
7180
ffc0
ffc0
7600
7700
7300
7380
71c0
71c0
0000
0000
0000
0000
0000
ENDCHAR
STARTCHAR LtSmlRStroke
ENCODING 589
SWIDTH 1320 0
DWIDTH 11 0
BBX 11 22 0 -5
BITMAP
0000
0000
0000
0000
0000
0000
0000
79c0
3bc0
3cc0
3800
7f00
7f00
3800
3800
3800
3800
0000
0000
0000
0000
0000
ENDCHAR
STARTCHAR LtCapYStroke
ENCODING 590
SWIDTH 1320 0
DWIDTH 11 0
BBX 11 22 0 -5
BITMAP
0000
0000
0000
0000
e0c0
7180
ffc0
ffc0
3b00
1f00
1e00
0e00
0e00
0e00
0e00
0e00
0e00
0000
0000
0000
0000
0000
ENDCHAR
STARTCHAR LtSmlYStroke
ENCODING 591
SWIDTH 1320 0
DWIDTH 11 0
BBX 11 22 0 -5
BITMAP
0000
0000
0000
0000
0000
0000
0000
70c0
70c0
3080
7fc0
7fc0
1d00
0f00
0f00
0e00
0600
0600
6400
6c00
3800
0000
ENDCHAR
STARTCHAR LtSmlATrnd
ENCODING 592
SWIDTH 1320 0
DWIDTH 11 0
BBX 11 22 0 -5
BITMAP
0000
0000
0000
0000
0000
0000
0000
f780
79c0
71c0
71c0
7380
7f00
7000
7180
7380
3f00
0000
0000
0000
0000
0000
ENDCHAR
STARTCHAR LtSmlAScr
ENCODING 593
SWIDTH 1320 0
DWIDTH 11 0
BBX 11 22 0 -5
BITMAP
0000
0000
0000
0000
0000
0000
0000
1d80
3f80
7380
6380
6380
6380
6380
7380
3fc0
1cc0
0000
0000
0000
0000
0000
ENDCHAR
STARTCHAR LtSmlAScrTrnd
ENCODING 594
SWIDTH 1320 0
DWIDTH 11 0
BBX 11 22 0 -5
BITMAP
0000
0000
0000
0000
0000
0000
0000
6700
7f80
39c0
38c0
38c0
38c0
38c0
39c0
3f80
3700
0000
0000
0000
0000
0000
ENDCHAR
STARTCHAR LtSmlBHook
ENCODING 595
SWIDTH 1320 0
DWIDTH 11 0
BBX 11 22 0 -5
BITMAP
0000
0000
0000
3e00
7300
7000
7000
7700
7b80
71c0
71c0
71c0
71c0
71c0
71c0
7b80
7700
0000
0000
0000
0000
0000
ENDCHAR
STARTCHAR LtSmlCTrnd
ENCODING 596
SWIDTH 1320 0
DWIDTH 11 0
BBX 11 22 0 -5
BITMAP
0000
0000
0000
0000
0000
0000
0000
3f00
7380
61c0
01c0
01c0
01c0
01c0
61c0
7380
3f00
0000
0000
0000
0000
0000
ENDCHAR
STARTCHAR LtSmlCCurl
ENCODING 597
SWIDTH 1320 0
DWIDTH 11 0
BBX 11 22 0 -5
BITMAP
0000
0000
0000
0000
0000
0000
0000
1f80
39c0
70c0
7000
7000
7000
7180
73c0
3ac0
1f80
0600
0400
0000
0000
0000
ENDCHAR
STARTCHAR LtSmlDLhook
ENCODING 598
SWIDTH 1320 0
DWIDTH 11 0
BBX 11 22 0 -5
BITMAP
0000
0000
0000
0380
0380
0380
0380
3b80
7780
e380
e380
e380
e380
e380
e380
7780
3b80
0380
0380
03a0
01e0
0000
ENDCHAR
STARTCHAR LtSmlDHook
ENCODING 599
SWIDTH 1320 0
DWIDTH 11 0
BBX 11 22 0 -5
BITMAP
0000
0000
0000
01e0
03a0
0380
0380
3b80
7780
e380
e380
e380
e380
e380
e380
7780
3b80
0000
0000
0000
0000
0000
ENDCHAR
STARTCHAR LtSmlERev
ENCODING 600
SWIDTH 1320 0
DWIDTH 11 0
BBX 11 22 0 -5
BITMAP
0000
0000
0000
0000
0000
0000
0000
3f00
7380
71c0
71c0
7fc0
01c0
01c0
61c0
7380
3f00
0000
0000
0000
0000
0000
ENDCHAR
STARTCHAR LtSmlSchwa
ENCODING 601
SWIDTH 1320 0
DWIDTH 11 0
BBX 11 22 0 -5
BITMAP
0000
0000
0000
0000
0000
0000
0000
3f00
7380
61c0
01c0
01c0
7fc0
71c0
71c0
7380
3f00
0000
0000
0000
0000
0000
ENDCHAR
STARTCHAR LtSmlSchwaHook
ENCODING 602
SWIDTH 1320 0
DWIDTH 11 0
BBX 11 22 0 -5
BITMAP
0000
0000
0000
0000
0000
0000
0000
7cc0
eec0
c7c0
0760
0700
ff00
e700
e700
ee00
7c00
0000
0000
0000
0000
0000
ENDCHAR
STARTCHAR LtSmlEps
ENCODING 603
SWIDTH 1320 0
DWIDTH 11 0
BBX 11 22 0 -5
BITMAP
0000
0000
0000
0000
0000
0000
0000
3f80
71c0
70c0
7000
3e00
3000
7000
70c0
71c0
3f80
0000
0000
0000
0000
0000
ENDCHAR
STARTCHAR LtSmlEpsRev
ENCODING 604
SWIDTH 1320 0
DWIDTH 11 0
BBX 11 22 0 -5
BITMAP
0000
0000
0000
0000
0000
0000
0000
3f80
71c0
61c0
01c0
0f80
0180
01c0
61c0
71c0
3f80
0000
0000
0000
0000
0000
ENDCHAR
STARTCHAR LtSmlEpsRevHook
ENCODING 605
SWIDTH 1320 0
DWIDTH 11 0
BBX 11 22 0 -5
BITMAP
0000
0000
0000
0000
0000
0000
0000
7ec0
e7c0
c7c0
0760
1e00
0700
0700
c700
e700
7e00
0000
0000
0000
0000
0000
ENDCHAR
STARTCHAR LtSmlEpsRevClsd
ENCODING 606
SWIDTH 1320 0
DWIDTH 11 0
BBX 11 22 0 -5
BITMAP
0000
0000
0000
0000
0000
0000
0000
1f80
39c0
71c0
61c0
6780
6180
61c0
71c0
39c0
1f80
0000
0000
0000
0000
0000
ENDCHAR
STARTCHAR LtSmlFTrnd
ENCODING 607
SWIDTH 1320 0
DWIDTH 11 0
BBX 11 22 0 -5
BITMAP
0000
0000
0000
0000
0000
0000
0000
0700
0700
0700
0700
0700
0700
0700
0700
7fc0
0700
0700
0700
6700
7e00
0000
ENDCHAR
STARTCHAR LtSmlGHook
ENCODING 608
SWIDTH 1320 0
DWIDTH 11 0
BBX 11 22 0 -5
BITMAP
0000
0000
0000
01e0
03a0
0380
0380
3b80
7780
e380
e380
e380
e380
e380
e380
7780
3b80
0380
e380
e380
7f00
0000
ENDCHAR
STARTCHAR LtSmlGScr
ENCODING 609
SWIDTH 1320 0
DWIDTH 11 0
BBX 11 22 0 -5
BITMAP
0000
0000
0000
0000
0000
0000
0000
1dc0
3bc0
71c0
71c0
71c0
71c0
71c0
71c0
3bc0
1dc0
01c0
71c0
71c0
3f80
0000
ENDCHAR
STARTCHAR LtSmlGSmc
ENCODING 610
SWIDTH 1320 0
DWIDTH 11 0
BBX 11 22 0 -5
BITMAP
0000
0000
0000
0000
0000
0000
0000
1fc0
38c0
70c0
7000
77c0
71c0
71c0
71c0
39c0
1fc0
0000
0000
0000
0000
0000
ENDCHAR
STARTCHAR LtSmlGam
ENCODING 611
SWIDTH 1320 0
DWIDTH 11 0
BBX 11 22 0 -5
BITMAP
0000
0000
0000
0000
0000
0000
0000
7040
70c0
38c0
3980
1d80
1d00
0f00
0600
0f00
0f00
1b80
1980
1b80
0f00
0000
ENDCHAR
STARTCHAR LtSmlGamSml
ENCODING 612
SWIDTH 1320 0
DWIDTH 11 0
BBX 11 22 0 -5
BITMAP
0000
0000
0000
0000
0000
0000
0000
70c0
3980
1f00
0e00
0e00
1f00
3380
3380
3f80
1f00
0000
0000
0000
0000
0000
ENDCHAR
STARTCHAR LtSmlHTrnd
ENCODING 613
SWIDTH 1320 0
DWIDTH 11 0
BBX 11 22 0 -5
BITMAP
0000
0000
0000
0000
0000
0000
0000
71c0
71c0
71c0
71c0
71c0
71c0
71c0
71c0
73c0
3dc0
01c0
01c0
01c0
01c0
0000
ENDCHAR
STARTCHAR LtSmlHHook
ENCODING 614
SWIDTH 1320 0
DWIDTH 11 0
BBX 11 22 0 -5
BITMAP
0000
0000
0000
3e00
7300
7000
7000
7780
79c0
71c0
71c0
71c0
71c0
71c0
71c0
71c0
71c0
0000
0000
0000
0000
0000
ENDCHAR
STARTCHAR LtSmlHHookLhook
ENCODING 615
SWIDTH 1320 0
DWIDTH 11 0
BBX 11 22 0 -5
BITMAP
0000
0000
0000
3e00
7300
7000
7000
7780
79c0
71c0
71c0
71c0
71c0
71c0
71c0
71c0
71c0
01c0
01c0
19c0
0f80
0000
ENDCHAR
STARTCHAR LtSmlIStroke
ENCODING 616
SWIDTH 1320 0
DWIDTH 11 0
BBX 11 22 0 -5
BITMAP
0000
0000
0400
0e00
0e00
0400
0000
3e00
0e00
0e00
0e00
3f80
3f80
0e00
0e00
0e00
3f80
0000
0000
0000
0000
0000
ENDCHAR
STARTCHAR LtSmlIot
ENCODING 617
SWIDTH 1320 0
DWIDTH 11 0
BBX 11 22 0 -5
BITMAP
0000
0000
0000
0000
0000
0000
0000
3800
3800
3800
3800
3800
3800
3800
3980
3980
1f00
0000
0000
0000
0000
0000
ENDCHAR
STARTCHAR LtSmlISmc
ENCODING 618
SWIDTH 1320 0
DWIDTH 11 0
BBX 11 22 0 -5
BITMAP
0000
0000
0000
0000
0000
0000
0000
3f80
0e00
0e00
0e00
0e00
0e00
0e00
0e00
0e00
3f80
0000
0000
0000
0000
0000
ENDCHAR
STARTCHAR LtSmlLMtilde
ENCODING 619
SWIDTH 1320 0
DWIDTH 11 0
BBX 11 22 0 -5
BITMAP
0000
0000
0000
3e00
0e00
0e00
0e00
0e00
0e00
3ec0
6f80
0e00
0e00
0e00
0e00
0e00
3f80
0000
0000
0000
0000
0000
ENDCHAR
STARTCHAR LtSmlLBelt
ENCODING 620
SWIDTH 1320 0
DWIDTH 11 0
BBX 11 22 0 -5
BITMAP
0000
0000
0000
3e00
0e00
0e00
0e00
0e00
7e00
ee00
eec0
7f80
0e00
0e00
0e00
0e00
3f80
0000
0000
0000
0000
0000
ENDCHAR
STARTCHAR LtSmlLLhook
ENCODING 621
SWIDTH 1320 0
DWIDTH 11 0
BBX 11 22 0 -5
BITMAP
0000
0000
0000
3e00
0e00
0e00
0e00
0e00
0e00
0e00
0e00
0e00
0e00
0e00
0e00
0e00
0e00
0e00
0e00
0ec0
07c0
0000
ENDCHAR
STARTCHAR LtSmlLEzh
ENCODING 622
SWIDTH 1320 0
DWIDTH 11 0
BBX 11 22 0 -5
BITMAP
0000
0000
0000
f000
7000
7000
7000
7fc0
71c0
7380
7300
7700
7600
7f00
7380
71c0
f9c0
01c0
31c0
3380
1f00
0000
ENDCHAR
STARTCHAR LtSmlMTrnd
ENCODING 623
SWIDTH 1320 0
DWIDTH 11 0
BBX 11 22 0 -5
BITMAP
0000
0000
0000
0000
0000
0000
0000
edc0
edc0
edc0
edc0
edc0
edc0
edc0
edc0
ffc0
76c0
0000
0000
0000
0000
0000
ENDCHAR
STARTCHAR LtSmlMTrndLongleg
ENCODING 624
SWIDTH 1320 0
DWIDTH 11 0
BBX 11 22 0 -5
BITMAP
0000
0000
0000
0000
0000
0000
0000
edc0
edc0
edc0
edc0
edc0
edc0
edc0
edc0
ffc0
77c0
01c0
01c0
01c0
01c0
0000
ENDCHAR
STARTCHAR LtSmlMLhook
ENCODING 625
SWIDTH 1320 0
DWIDTH 11 0
BBX 11 22 0 -5
BITMAP
0000
0000
0000
0000
0000
0000
0000
db80
ffc0
edc0
edc0
edc0
edc0
edc0
edc0
edc0
edc0
01c0
01c0
0dc0
0f80
0000
ENDCHAR
STARTCHAR LtSmlNLhookL
ENCODING 626
SWIDTH 1320 0
DWIDTH 11 0
BBX 11 22 0 -5
BITMAP
0000
0000
0000
0000
0000
0000
0000
3b80
3dc0
39c0
39c0
39c0
39c0
39c0
39c0
39c0
39c0
3800
3800
b800
f000
0000
ENDCHAR
STARTCHAR LtSmlNLhook
ENCODING 627
SWIDTH 1320 0
DWIDTH 11 0
BBX 11 22 0 -5
BITMAP
0000
0000
0000
0000
0000
0000
0000
ef00
f380
e380
e380
e380
e380
e380
e380
e380
e380
0380
0380
03a0
01e0
0000
ENDCHAR
STARTCHAR LtSmlNSmc
ENCODING 628
SWIDTH 1320 0
DWIDTH 11 0
BBX 11 22 0 -5
BITMAP
0000
0000
0000
0000
0000
0000
0000
60c0
70c0
78c0
7cc0
7ec0
6fc0
67c0
63c0
61c0
60c0
0000
0000
0000
0000
0000
ENDCHAR
STARTCHAR LtSmlOStrokeH
ENCODING 629
SWIDTH 1320 0
DWIDTH 11 0
BBX 11 22 0 -5
BITMAP
0000
0000
0000
0000
0000
0000
0000
1f00
3b80
71c0
71c0
7fc0
7fc0
71c0
71c0
3b80
1f00
0000
0000
0000
0000
0000
ENDCHAR
STARTCHAR LtSmlOESmc
ENCODING 630
SWIDTH 1320 0
DWIDTH 11 0
BBX 11 22 0 -5
BITMAP
0000
0000
0000
0000
0000
0000
0000
3fc0
6ec0
ee00
ee00
ef80
ef80
ee00
ee00
6ec0
3fc0
0000
0000
0000
0000
0000
ENDCHAR
STARTCHAR LtSmlOmeClsd
ENCODING 631
SWIDTH 1320 0
DWIDTH 11 0
BBX 11 22 0 -5
BITMAP
0000
0000
0000
0000
0000
0000
3f00
7f80
e1c0
c0c0
c0c0
ccc0
ccc0
ccc0
edc0
ffc0
7380
0000
0000
0000
0000
0000
ENDCHAR
STARTCHAR LtSmlPhi
ENCODING 632
SWIDTH 1320 0
DWIDTH 11 0
BBX 11 22 0 -5
BITMAP
0000
0000
0000
0c00
0c00
0c00
0c00
3f00
6d80
edc0
edc0
edc0
edc0
edc0
edc0
6d80
3f00
0c00
0c00
0c00
0c00
0000
ENDCHAR
STARTCHAR LtSmlRTrnd
ENCODING 633
SWIDTH 1320 0
DWIDTH 11 0
BBX 11 22 0 -5
BITMAP
0000
0000
0000
0000
0000
0000
0000
0380
0380
0380
0380
0380
0380
0380
6780
7b80
73c0
0000
0000
0000
0000
0000
ENDCHAR
STARTCHAR LtSmlRTrndLongleg
ENCODING 634
SWIDTH 1320 0
DWIDTH 11 0
BBX 11 22 0 -5
BITMAP
0000
0000
0000
0380
0380
0380
0380
0380
0380
0380
0380
0380
0380
0380
6780
7b80
73c0
0000
0000
0000
0000
0000
ENDCHAR
STARTCHAR LtSmlRTrndLhook
ENCODING 635
SWIDTH 1320 0
DWIDTH 11 0
BBX 11 22 0 -5
BITMAP
0000
0000
0000
0000
0000
0000
0000
0380
0380
0380
0380
0380
0380
0380
6780
7b80
7380
0380
0380
03a0
01e0
0000
ENDCHAR
STARTCHAR LtSmlRLongleg
ENCODING 636
SWIDTH 1320 0
DWIDTH 11 0
BBX 11 22 0 -5
BITMAP
0000
0000
0000
0000
0000
0000
0000
79c0
3bc0
3cc0
3800
3800
3800
3800
3800
3800
3800
3800
3800
3800
3800
0000
ENDCHAR
STARTCHAR LtSmlRLhook
ENCODING 637
SWIDTH 1320 0
DWIDTH 11 0
BBX 11 22 0 -5
BITMAP
0000
0000
0000
0000
0000
0000
0000
79c0
3bc0
3cc0
3800
3800
3800
3800
3800
3800
3800
3800
3800
3b00
1f00
0000
ENDCHAR
STARTCHAR LtSmlRFish
ENCODING 638
SWIDTH 1320 0
DWIDTH 11 0
BBX 11 22 0 -5
BITMAP
0000
0000
0000
0000
0000
0000
0000
1f80
39c0
71c0
7000
7000
7000
7000
7000
7000
7000
0000
0000
0000
0000
0000
ENDCHAR
STARTCHAR LtSmlRFishRev
ENCODING 639
SWIDTH 1320 0
DWIDTH 11 0
BBX 11 22 0 -5
BITMAP
0000
0000
0000
0000
0000
0000
0000
3f00
7380
71c0
01c0
01c0
01c0
01c0
01c0
01c0
01c0
0000
0000
0000
0000
0000
ENDCHAR
STARTCHAR LtSmlRSmc
ENCODING 640
SWIDTH 1320 0
DWIDTH 11 0
BBX 11 22 0 -5
BITMAP
0000
0000
0000
0000
0000
0000
0000
7f00
7380
7380
7380
7f00
7e00
7600
7700
7380
71c0
0000
0000
0000
0000
0000
ENDCHAR
STARTCHAR LtSmlRSmcInv
ENCODING 641
SWIDTH 1320 0
DWIDTH 11 0
BBX 11 22 0 -5
BITMAP
0000
0000
0000
0000
0000
0000
0000
71c0
7380
7700
7600
7e00
7f00
7380
7380
7380
7f00
0000
0000
0000
0000
0000
ENDCHAR
STARTCHAR LtSmlSLhook
ENCODING 642
SWIDTH 1320 0
DWIDTH 11 0
BBX 11 22 0 -5
BITMAP
0000
0000
0000
0000
0000
0000
0000
3f80
70c0
70c0
7800
3e00
0f80
03c0
61c0
71c0
7f80
7000
7000
7600
3c00
0000
ENDCHAR
STARTCHAR LtSmlEsh
ENCODING 643
SWIDTH 1320 0
DWIDTH 11 0
BBX 11 22 0 -5
BITMAP
0000
0000
0000
07e0
0e60
0e60
0e00
0e00
0e00
0e00
0e00
0e00
0e00
0e00
0e00
0e00
0e00
0e00
ce00
ce00
fc00
0000
ENDCHAR
STARTCHAR LtSmlFTrndHook
ENCODING 644
SWIDTH 1320 0
DWIDTH 11 0
BBX 11 22 0 -5
BITMAP
0000
0000
0000
07e0
0e60
0e00
0e00
0e00
0e00
0e00
0e00
0e00
0e00
0e00
0e00
7fc0
0e00
0e00
0e00
ce00
fc00
0000
ENDCHAR
STARTCHAR LtSmlEshSmlRev
ENCODING 645
SWIDTH 1320 0
DWIDTH 11 0
BBX 11 22 0 -5
BITMAP
0000
0000
0000
0000
0000
0000
0000
7c00
6e00
0e00
0e00
0e00
0e00
0e00
0e00
0ec0
07c0
0000
0000
0000
0000
0000
ENDCHAR
STARTCHAR LtSmlEshCurl
ENCODING 646
SWIDTH 1320 0
DWIDTH 11 0
BBX 11 22 0 -5
BITMAP
0000
0000
0000
07e0
0e60
0e60
0e00
0e00
0e00
0e00
0e00
0e00
0e00
0e00
0e00
0e00
0e00
7f80
cfc0
cec0
7c00
0000
ENDCHAR
STARTCHAR LtSmlTTrnd
ENCODING 647
SWIDTH 1320 0
DWIDTH 11 0
BBX 11 22 0 -5
BITMAP
0000
0000
0000
0000
0000
0000
0000
3e00
6700
6700
0700
0700
0700
0700
0700
0700
1fc0
0700
0600
0600
0000
0000
ENDCHAR
STARTCHAR LtSmlTLhook
ENCODING 648
SWIDTH 1320 0
DWIDTH 11 0
BBX 11 22 0 -5
BITMAP
0000
0000
0000
0000
0c00
0c00
1c00
7f00
1c00
1c00
1c00
1c00
1c00
1c00
1c00
1c00
1c00
1c00
1cc0
1cc0
0f80
0000
ENDCHAR
STARTCHAR LtSmlUStroke
ENCODING 649
SWIDTH 1320 0
DWIDTH 11 0
BBX 11 22 0 -5
BITMAP
0000
0000
0000
0000
0000
0000
0000
71c0
71c0
71c0
ffe0
ffe0
71c0
71c0
71c0
73c0
3dc0
0000
0000
0000
0000
0000
ENDCHAR
STARTCHAR LtSmlUps
ENCODING 650
SWIDTH 1320 0
DWIDTH 11 0
BBX 11 22 0 -5
BITMAP
0000
0000
0000
0000
0000
0000
0000
7bc0
1b00
3b80
71c0
71c0
71c0
71c0
71c0
3b80
1f00
0000
0000
0000
0000
0000
ENDCHAR
STARTCHAR LtSmlVHook
ENCODING 651
SWIDTH 1320 0
DWIDTH 11 0
BBX 11 22 0 -5
BITMAP
0000
0000
0000
0000
0000
0000
0000
7300
7380
71c0
71c0
71c0
71c0
71c0
7180
7380
3e00
0000
0000
0000
0000
0000
ENDCHAR
STARTCHAR LtSmlVTrnd
ENCODING 652
SWIDTH 1320 0
DWIDTH 11 0
BBX 11 22 0 -5
BITMAP
0000
0000
0000
0000
0000
0000
0000
0400
0e00
0e00
1f00
1700
3380
3380
61c0
61c0
40c0
0000
0000
0000
0000
0000
ENDCHAR
STARTCHAR LtSmlWTrnd
ENCODING 653
SWIDTH 1320 0
DWIDTH 11 0
BBX 11 22 0 -5
BITMAP
0000
0000
0000
0000
0000
0000
0000
7380
7380
7380
7f80
ddc0
ddc0
ddc0
c9c0
c1c0
c1c0
0000
0000
0000
0000
0000
ENDCHAR
STARTCHAR LtSmlYTrnd
ENCODING 654
SWIDTH 1320 0
DWIDTH 11 0
BBX 11 22 0 -5
BITMAP
0000
0000
0000
0380
06c0
04c0
0c00
0c00
0e00
1e00
1f00
1700
3380
3380
21c0
61c0
60c0
0000
0000
0000
0000
0000
ENDCHAR
STARTCHAR LtSmlYSmc
ENCODING 655
SWIDTH 1320 0
DWIDTH 11 0
BBX 11 22 0 -5
BITMAP
0000
0000
0000
0000
0000
0000
0000
70c0
71c0
3980
1b00
1f00
0e00
0e00
0e00
0e00
0e00
0000
0000
0000
0000
0000
ENDCHAR
STARTCHAR LtSmlZLhook
ENCODING 656
SWIDTH 1320 0
DWIDTH 11 0
BBX 11 22 0 -5
BITMAP
0000
0000
0000
0000
0000
0000
0000
7fc0
63c0
6380
0700
0f00
1e00
1c00
38c0
79c0
7fc0
0380
0380
03a0
01e0
0000
ENDCHAR
STARTCHAR LtSmlZCurl
ENCODING 657
SWIDTH 1320 0
DWIDTH 11 0
BBX 11 22 0 -5
BITMAP
0000
0000
0000
0000
0000
0000
0000
7fc0
63c0
6380
0700
0f00
1e00
1d80
3bc0
7ac0
7f80
0600
0400
0000
0000
0000
ENDCHAR
STARTCHAR LtSmlEzh
ENCODING 658
SWIDTH 1320 0
DWIDTH 11 0
BBX 11 22 0 -5
BITMAP
0000
0000
0000
0000
0000
0000
0000
7fc0
61c0
6380
0380
0700
0e00
0f00
0380
01c0
01c0
01c0
61c0
6380
3f00
0000
ENDCHAR
STARTCHAR LtSmlEzhCurl
ENCODING 659
SWIDTH 1320 0
DWIDTH 11 0
BBX 11 22 0 -5
BITMAP
0000
0000
0000
0000
0000
0000
0000
7fc0
61c0
6380
0380
0700
0e00
0f00
0380
01c0
01c0
3dc0
6780
6700
3dc0
0000
ENDCHAR
STARTCHAR LtSmlGlot
ENCODING 660
SWIDTH 1320 0
DWIDTH 11 0
BBX 11 22 0 -5
BITMAP
0000
0000
0000
3f80
71c0
71c0
71c0
0380
0700
0e00
0e00
0e00
0e00
0e00
0e00
0e00
0e00
0000
0000
0000
0000
0000
ENDCHAR
STARTCHAR LtSmlAin
ENCODING 661
SWIDTH 1320 0
DWIDTH 11 0
BBX 11 22 0 -5
BITMAP
0000
0000
0000
3f80
71c0
71c0
71c0
3800
1c00
0e00
0e00
0e00
0e00
0e00
0e00
0e00
0e00
0000
0000
0000
0000
0000
ENDCHAR
STARTCHAR LtSmlGlotInv
ENCODING 662
SWIDTH 1320 0
DWIDTH 11 0
BBX 11 22 0 -5
BITMAP
0000
0000
0000
0e00
0e00
0e00
0e00
0e00
0e00
0e00
0e00
0700
0380
71c0
71c0
71c0
3f80
0000
0000
0000
0000
0000
ENDCHAR
STARTCHAR LtSmlCStretch
ENCODING 663
SWIDTH 1320 0
DWIDTH 11 0
BBX 11 22 0 -5
BITMAP
0000
0000
0000
0000
0000
0000
0000
1f80
39c0
70c0
7000
7000
7000
7000
7000
7000
7000
7000
70c0
39c0
1f80
0000
ENDCHAR
STARTCHAR LtSmlBullseye
ENCODING 664
SWIDTH 1320 0
DWIDTH 11 0
BBX 11 22 0 -5
BITMAP
0000
0000
0000
0000
0000
0000
0000
1e00
7f80
7380
e1c0
ccc0
ccc0
e1c0
7380
7f80
1e00
0000
0000
0000
0000
0000
ENDCHAR
STARTCHAR LtSmlBSmc
ENCODING 665
SWIDTH 1320 0
DWIDTH 11 0
BBX 11 22 0 -5
BITMAP
0000
0000
0000
0000
0000
0000
0000
7f00
7380
71c0
7380
7f00
7380
71c0
71c0
7380
7f00
0000
0000
0000
0000
0000
ENDCHAR
STARTCHAR LtSmlEpsClsd
ENCODING 666
SWIDTH 1320 0
DWIDTH 11 0
BBX 11 22 0 -5
BITMAP
0000
0000
0000
0000
0000
0000
0000
3f00
7380
71c0
70c0
3cc0
30c0
70c0
71c0
7380
3f00
0000
0000
0000
0000
0000
ENDCHAR
STARTCHAR LtSmlGSmcHook
ENCODING 667
SWIDTH 1320 0
DWIDTH 11 0
BBX 11 22 0 -5
BITMAP
0000
0000
0000
0000
01c0
0340
0300
1f80
38c0
70c0
7000
77c0
71c0
71c0
71c0
39c0
1fc0
0000
0000
0000
0000
0000
ENDCHAR
STARTCHAR LtSmlHSmc
ENCODING 668
SWIDTH 1320 0
DWIDTH 11 0
BBX 11 22 0 -5
BITMAP
0000
0000
0000
0000
0000
0000
0000
71c0
71c0
71c0
71c0
7fc0
71c0
71c0
71c0
71c0
71c0
0000
0000
0000
0000
0000
ENDCHAR
STARTCHAR LtSmlJCurl
ENCODING 669
SWIDTH 1320 0
DWIDTH 11 0
BBX 11 22 0 -5
BITMAP
0000
0000
0200
0700
0700
0200
0000
3f00
0700
0700
0700
0700
0700
0700
0700
0700
3fc0
6700
6700
6700
3e00
0000
ENDCHAR
STARTCHAR LtSmlKTrnd
ENCODING 670
SWIDTH 1320 0
DWIDTH 11 0
BBX 11 22 0 -5
BITMAP
0000
0000
0000
0000
0000
0000
0000
71c0
71c0
39c0
39c0
1fc0
0fc0
0dc0
19c0
31c0
61c0
01c0
01c0
01c0
01c0
0000
ENDCHAR
STARTCHAR LtSmlLSmc
ENCODING 671
SWIDTH 1320 0
DWIDTH 11 0
BBX 11 22 0 -5
BITMAP
0000
0000
0000
0000
0000
0000
0000
7000
7000
7000
7000
7000
7000
7000
70c0
70c0
7fc0
0000
0000
0000
0000
0000
ENDCHAR
STARTCHAR LtSmlQHook
ENCODING 672
SWIDTH 1320 0
DWIDTH 11 0
BBX 11 22 0 -5
BITMAP
0000
0000
0000
01e0
03a0
0380
0380
3b80
7780
e380
e380
e380
e380
e380
e380
7780
3b80
0380
0380
0380
0380
0000
ENDCHAR
STARTCHAR LtSmlGlotStroke
ENCODING 673
SWIDTH 1320 0
DWIDTH 11 0
BBX 11 22 0 -5
BITMAP
0000
0000
0000
3f80
71c0
71c0
71c0
0380
0700
0e00
0e00
3f80
3f80
0e00
0e00
0e00
0e00
0000
0000
0000
0000
0000
ENDCHAR
STARTCHAR LtSmlAinStroke
ENCODING 674
SWIDTH 1320 0
DWIDTH 11 0
BBX 11 22 0 -5
BITMAP
0000
0000
0000
3f80
71c0
71c0
71c0
3800
1c00
0e00
0e00
3f80
3f80
0e00
0e00
0e00
0e00
0000
0000
0000
0000
0000
ENDCHAR
STARTCHAR LtSmlDZIpa
ENCODING 675
SWIDTH 1320 0
DWIDTH 11 0
BBX 11 22 0 -5
BITMAP
0000
0000
0000
1800
1800
1800
1800
7bc0
fac0
d8c0
d9c0
d980
d980
db80
db00
fb40
7bc0
0000
0000
0000
0000
0000
ENDCHAR
STARTCHAR LtSmlDEzh
ENCODING 676
SWIDTH 1320 0
DWIDTH 11 0
BBX 11 22 0 -5
BITMAP
0000
0000
0000
1800
1800
1800
1800
7fc0
fcc0
d9c0
d980
db80
db00
db80
d9c0
f8c0
78c0
00c0
0cc0
0dc0
0780
0000
ENDCHAR
STARTCHAR LtSmlDZCurl
ENCODING 677
SWIDTH 1320 0
DWIDTH 11 0
BBX 11 22 0 -5
BITMAP
0000
0000
0000
1800
1800
1800
1800
7bc0
fac0
d8c0
d9c0
d980
d980
db00
db00
fbc0
7bc0
0180
0300
0000
0000
0000
ENDCHAR
STARTCHAR LtSmlTS
ENCODING 678
SWIDTH 1320 0
DWIDTH 11 0
BBX 11 22 0 -5
BITMAP
0000
0000
0000
0000
3000
3000
7000
fbc0
7640
7600
7700
7780
73c0
71c0
70c0
76c0
3b80
0000
0000
0000
0000
0000
ENDCHAR
STARTCHAR LtSmlTEsh
ENCODING 679
SWIDTH 1320 0
DWIDTH 11 0
BBX 11 22 0 -5
BITMAP
0000
0000
0000
01e0
33a0
3380
7380
fb80
7380
7380
7380
7380
7380
7380
7380
7380
3b80
0380
0380
1b80
1f00
0000
ENDCHAR
STARTCHAR LtSmlTCCurl
ENCODING 680
SWIDTH 1320 0
DWIDTH 11 0
BBX 11 22 0 -5
BITMAP
0000
0000
0000
0000
3000
3000
7000
fbc0
77c0
76c0
7600
7600
7600
7600
76c0
77c0
3bc0
0180
0300
0000
0000
0000
ENDCHAR
STARTCHAR LtSmlFEng
ENCODING 681
SWIDTH 1320 0
DWIDTH 11 0
BBX 11 22 0 -5
BITMAP
0000
0000
0000
7c00
ec00
e000
e000
ef80
fdc0
edc0
edc0
edc0
edc0
edc0
edc0
edc0
edc0
01c0
0dc0
0dc0
0780
0000
ENDCHAR
STARTCHAR LtSmlLS
ENCODING 682
SWIDTH 1320 0
DWIDTH 11 0
BBX 11 22 0 -5
BITMAP
0000
0000
0000
f000
7000
7000
7000
7780
7cc0
7cc0
7e00
7700
7380
71c0
74c0
74c0
ff80
0000
0000
0000
0000
0000
ENDCHAR
STARTCHAR LtSmlLZ
ENCODING 683
SWIDTH 1320 0
DWIDTH 11 0
BBX 11 22 0 -5
BITMAP
0000
0000
0000
f000
7000
7000
7000
7fc0
7dc0
7180
7380
7300
7700
7600
76c0
7ec0
ffc0
0000
0000
0000
0000
0000
ENDCHAR
STARTCHAR LtSmlW2
ENCODING 684
SWIDTH 1320 0
DWIDTH 11 0
BBX 11 22 0 -5
BITMAP
0000
0000
0000
60c0
64c0
6ec0
3f80
3b80
3180
0000
0000
60c0
64c0
6ec0
3f80
3b80
3180
0000
0000
0000
0000
0000
ENDCHAR
STARTCHAR LtSmlBridge2
ENCODING 685
SWIDTH 1320 0
DWIDTH 11 0
BBX 11 22 0 -5
BITMAP
0000
0000
0000
7fc0
71c0
71c0
71c0
71c0
71c0
0000
0000
7fc0
71c0
71c0
71c0
71c0
71c0
0000
0000
0000
0000
0000
ENDCHAR
STARTCHAR LtSmlHTrndHook
ENCODING 686
SWIDTH 1320 0
DWIDTH 11 0
BBX 11 22 0 -5
BITMAP
0000
0000
0000
0000
0000
0000
0000
f1c0
b9c0
39c0
39c0
39c0
39c0
39c0
39c0
3bc0
1dc0
01c0
01c0
01c0
01c0
0000
ENDCHAR
STARTCHAR LtSmlHTrndHookLhook
ENCODING 687
SWIDTH 1320 0
DWIDTH 11 0
BBX 11 22 0 -5
BITMAP
0000
0000
0000
0000
0000
0000
0000
f380
bb80
3b80
3b80
3b80
3b80
3b80
3b80
3b80
1f80
0380
0380
03a0
01e0
0000
ENDCHAR
STARTCHAR SupSmlH
ENCODING 688
SWIDTH 1320 0
DWIDTH 11 0
BBX 11 22 0 -5
BITMAP
0000
3800
3800
3f00
3b80
3b80
3b80
3b80
3b80
3b80
0000
0000
0000
0000
0000
0000
0000
0000
0000
0000
0000
0000
ENDCHAR
STARTCHAR SupSmlHHook
ENCODING 689
SWIDTH 1320 0
DWIDTH 11 0
BBX 11 22 0 -5
BITMAP
0000
1f00
3800
3f00
3b80
3b80
3b80
3b80
3b80
3b80
0000
0000
0000
0000
0000
0000
0000
0000
0000
0000
0000
0000
ENDCHAR
STARTCHAR SupSmlJ
ENCODING 690
SWIDTH 1320 0
DWIDTH 11 0
BBX 11 22 0 -5
BITMAP
0e00
0e00
0000
0e00
0e00
0e00
0e00
0e00
0e00
2e00
3c00
0000
0000
0000
0000
0000
0000
0000
0000
0000
0000
0000
ENDCHAR
STARTCHAR SupSmlR
ENCODING 691
SWIDTH 1320 0
DWIDTH 11 0
BBX 11 22 0 -5
BITMAP
0000
0000
0000
3b80
3d80
3800
3800
3800
3800
3800
0000
0000
0000
0000
0000
0000
0000
0000
0000
0000
0000
0000
ENDCHAR
STARTCHAR SupSmlRTrnd
ENCODING 692
SWIDTH 1320 0
DWIDTH 11 0
BBX 11 22 0 -5
BITMAP
0000
0000
0000
0380
0380
0380
0380
0380
3780
3b80
0000
0000
0000
0000
0000
0000
0000
0000
0000
0000
0000
0000
ENDCHAR
STARTCHAR SupSmlRTrndLhook
ENCODING 693
SWIDTH 1320 0
DWIDTH 11 0
BBX 11 22 0 -5
BITMAP
0000
0000
0000
0380
0380
0380
0380
0380
3780
3b80
03c0
0000
0000
0000
0000
0000
0000
0000
0000
0000
0000
0000
ENDCHAR
STARTCHAR SupSmlRSmcInv
ENCODING 694
SWIDTH 1320 0
DWIDTH 11 0
BBX 11 22 0 -5
BITMAP
0000
0000
0000
3980
3b00
3e00
3f00
3b80
3b80
3f00
0000
0000
0000
0000
0000
0000
0000
0000
0000
0000
0000
0000
ENDCHAR
STARTCHAR SupSmlW
ENCODING 695
SWIDTH 1320 0
DWIDTH 11 0
BBX 11 22 0 -5
BITMAP
0000
0000
0000
70c0
70c0
76c0
76c0
3f80
3b80
3b80
0000
0000
0000
0000
0000
0000
0000
0000
0000
0000
0000
0000
ENDCHAR
STARTCHAR SupSmlY
ENCODING 696
SWIDTH 1320 0
DWIDTH 11 0
BBX 11 22 0 -5
BITMAP
0000
0000
0000
3980
3980
1d80
0f00
0f00
0600
3600
3c00
0000
0000
0000
0000
0000
0000
0000
0000
0000
0000
0000
ENDCHAR
STARTCHAR AccPrime
ENCODING 697
SWIDTH 1320 0
DWIDTH 11 0
BBX 11 22 0 -5
BITMAP
0000
0000
0600
0e00
0c00
1800
1000
0000
0000
0000
0000
0000
0000
0000
0000
0000
0000
0000
0000
0000
0000
0000
ENDCHAR
STARTCHAR AccPrime2
ENCODING 698
SWIDTH 1320 0
DWIDTH 11 0
BBX 11 22 0 -5
BITMAP
0000
0000
0d80
1f80
1b00
3600
2400
0000
0000
0000
0000
0000
0000
0000
0000
0000
0000
0000
0000
0000
0000
0000
ENDCHAR
STARTCHAR AccQuoteL
ENCODING 699
SWIDTH 1320 0
DWIDTH 11 0
BBX 11 22 0 -5
BITMAP
0000
0000
0e00
1800
1c00
1e00
0e00
0000
0000
0000
0000
0000
0000
0000
0000
0000
0000
0000
0000
0000
0000
0000
ENDCHAR
STARTCHAR AccQuoteR
ENCODING 700
SWIDTH 1320 0
DWIDTH 11 0
BBX 11 22 0 -5
BITMAP
0000
0000
1c00
1e00
0e00
0600
1c00
0000
0000
0000
0000
0000
0000
0000
0000
0000
0000
0000
0000
0000
0000
0000
ENDCHAR
STARTCHAR AccQuoteHe
ENCODING 701
SWIDTH 1320 0
DWIDTH 11 0
BBX 11 22 0 -5
BITMAP
0000
0000
0e00
1e00
1c00
1800
0e00
0000
0000
0000
0000
0000
0000
0000
0000
0000
0000
0000
0000
0000
0000
0000
ENDCHAR
STARTCHAR AccRingHalfR
ENCODING 702
SWIDTH 1320 0
DWIDTH 11 0
BBX 11 22 0 -5
BITMAP
0000
0000
1c00
1e00
0600
0600
1e00
1c00
0000
0000
0000
0000
0000
0000
0000
0000
0000
0000
0000
0000
0000
0000
ENDCHAR
STARTCHAR AccRingHalfL
ENCODING 703
SWIDTH 1320 0
DWIDTH 11 0
BBX 11 22 0 -5
BITMAP
0000
0000
0e00
1e00
1800
1800
1e00
0e00
0000
0000
0000
0000
0000
0000
0000
0000
0000
0000
0000
0000
0000
0000
ENDCHAR
STARTCHAR AccGlot
ENCODING 704
SWIDTH 1320 0
DWIDTH 11 0
BBX 11 22 0 -5
BITMAP
0000
0000
3f00
7380
7380
0380
0700
0e00
0c00
0000
0000
0000
0000
0000
0000
0000
0000
0000
0000
0000
0000
0000
ENDCHAR
STARTCHAR AccAin
ENCODING 705
SWIDTH 1320 0
DWIDTH 11 0
BBX 11 22 0 -5
BITMAP
0000
0000
3f00
7380
7380
7000
3800
1c00
0c00
0000
0000
0000
0000
0000
0000
0000
0000
0000
0000
0000
0000
0000
ENDCHAR
STARTCHAR AccArrowheadl
ENCODING 706
SWIDTH 1320 0
DWIDTH 11 0
BBX 11 22 0 -5
BITMAP
0000
0300
0700
1e00
3c00
1e00
0700
0300
0000
0000
0000
0000
0000
0000
0000
0000
0000
0000
0000
0000
0000
0000
ENDCHAR
STARTCHAR AccArrowheadr
ENCODING 707
SWIDTH 1320 0
DWIDTH 11 0
BBX 11 22 0 -5
BITMAP
0000
3000
3800
1e00
0f00
1e00
3800
3000
0000
0000
0000
0000
0000
0000
0000
0000
0000
0000
0000
0000
0000
0000
ENDCHAR
STARTCHAR AccArrowheadu
ENCODING 708
SWIDTH 1320 0
DWIDTH 11 0
BBX 11 22 0 -5
BITMAP
0000
0000
0400
0e00
0e00
1f00
3b80
3180
0000
0000
0000
0000
0000
0000
0000
0000
0000
0000
0000
0000
0000
0000
ENDCHAR
STARTCHAR AccArrowheadd
ENCODING 709
SWIDTH 1320 0
DWIDTH 11 0
BBX 11 22 0 -5
BITMAP
0000
0000
3180
3b80
1f00
0e00
0e00
0400
0000
0000
0000
0000
0000
0000
0000
0000
0000
0000
0000
0000
0000
0000
ENDCHAR
STARTCHAR AccCircum
ENCODING 710
SWIDTH 1320 0
DWIDTH 11 0
BBX 11 22 0 -5
BITMAP
0000
0000
0400
0e00
1f00
3b80
71c0
0000
0000
0000
0000
0000
0000
0000
0000
0000
0000
0000
0000
0000
0000
0000
ENDCHAR
STARTCHAR AccCaron
ENCODING 711
SWIDTH 1320 0
DWIDTH 11 0
BBX 11 22 0 -5
BITMAP
0000
0000
71c0
3b80
1f00
0e00
0400
0000
0000
0000
0000
0000
0000
0000
0000
0000
0000
0000
0000
0000
0000
0000
ENDCHAR
STARTCHAR AccStress
ENCODING 712
SWIDTH 1320 0
DWIDTH 11 0
BBX 11 22 0 -5
BITMAP
0000
0000
0e00
0e00
0e00
0e00
0e00
0e00
0000
0000
0000
0000
0000
0000
0000
0000
0000
0000
0000
0000
0000
0000
ENDCHAR
STARTCHAR AccMacron
ENCODING 713
SWIDTH 1320 0
DWIDTH 11 0
BBX 11 22 0 -5
BITMAP
0000
0000
0000
3f80
3f80
0000
0000
0000
0000
0000
0000
0000
0000
0000
0000
0000
0000
0000
0000
0000
0000
0000
ENDCHAR
STARTCHAR AccAcuteSml
ENCODING 714
SWIDTH 1320 0
DWIDTH 11 0
BBX 11 22 0 -5
BITMAP
0000
0000
0300
0700
0e00
1c00
1800
0000
0000
0000
0000
0000
0000
0000
0000
0000
0000
0000
0000
0000
0000
0000
ENDCHAR
STARTCHAR AccGrave
ENCODING 715
SWIDTH 1320 0
DWIDTH 11 0
BBX 11 22 0 -5
BITMAP
0000
0000
1800
1c00
0e00
0700
0300
0000
0000
0000
0000
0000
0000
0000
0000
0000
0000
0000
0000
0000
0000
0000
ENDCHAR
STARTCHAR AccLvline
ENCODING 716
SWIDTH 1320 0
DWIDTH 11 0
BBX 11 22 0 -5
BITMAP
0000
0000
0000
0000
0000
0000
0000
0000
0000
0000
0000
0000
0000
0000
0e00
0e00
0e00
0e00
0e00
0e00
0000
0000
ENDCHAR
STARTCHAR AccLmacron
ENCODING 717
SWIDTH 1320 0
DWIDTH 11 0
BBX 11 22 0 -5
BITMAP
0000
0000
0000
0000
0000
0000
0000
0000
0000
0000
0000
0000
0000
0000
0000
0000
0000
0000
3f80
3f80
0000
0000
ENDCHAR
STARTCHAR AccLgrave
ENCODING 718
SWIDTH 1320 0
DWIDTH 11 0
BBX 11 22 0 -5
BITMAP
0000
0000
0000
0000
0000
0000
0000
0000
0000
0000
0000
0000
0000
0000
0000
0000
1800
1c00
0e00
0700
0300
0000
ENDCHAR
STARTCHAR AccLacute
ENCODING 719
SWIDTH 1320 0
DWIDTH 11 0
BBX 11 22 0 -5
BITMAP
0000
0000
0000
0000
0000
0000
0000
0000
0000
0000
0000
0000
0000
0000
0000
0000
0300
0700
0e00
1c00
1800
0000
ENDCHAR
STARTCHAR PColonTrng
ENCODING 720
SWIDTH 1320 0
DWIDTH 11 0
BBX 11 22 0 -5
BITMAP
0000
0000
0000
0000
0000
0000
0000
0000
0000
1e00
1e00
0c00
0000
0000
0c00
1e00
1e00
0000
0000
0000
0000
0000
ENDCHAR
STARTCHAR PColonTrngHalf
ENCODING 721
SWIDTH 1320 0
DWIDTH 11 0
BBX 11 22 0 -5
BITMAP
0000
0000
0000
0000
0000
0000
0000
0000
0000
1e00
1e00
0c00
0000
0000
0000
0000
0000
0000
0000
0000
0000
0000
ENDCHAR
STARTCHAR AccCntrdhalfringr
ENCODING 722
SWIDTH 1320 0
DWIDTH 11 0
BBX 11 22 0 -5
BITMAP
0000
0000
0000
0000
0000
0000
0000
0000
1c00
1e00
0600
0600
1e00
1c00
0000
0000
0000
0000
0000
0000
0000
0000
ENDCHAR
STARTCHAR AccCntrdhalfringl
ENCODING 723
SWIDTH 1320 0
DWIDTH 11 0
BBX 11 22 0 -5
BITMAP
0000
0000
0000
0000
0000
0000
0000
0000
0e00
1e00
1800
1800
1e00
0e00
0000
0000
0000
0000
0000
0000
0000
0000
ENDCHAR
STARTCHAR AccTacku
ENCODING 724
SWIDTH 1320 0
DWIDTH 11 0
BBX 11 22 0 -5
BITMAP
0000
0000
0000
0000
0000
0000
0000
0000
0e00
0e00
0e00
3f80
3f80
3f80
0000
0000
0000
0000
0000
0000
0000
0000
ENDCHAR
STARTCHAR AccTackd
ENCODING 725
SWIDTH 1320 0
DWIDTH 11 0
BBX 11 22 0 -5
BITMAP
0000
0000
0000
0000
0000
0000
0000
0000
0000
3f80
3f80
3f80
0e00
0e00
0e00
0000
0000
0000
0000
0000
0000
0000
ENDCHAR
STARTCHAR AccPlus
ENCODING 726
SWIDTH 1320 0
DWIDTH 11 0
BBX 11 22 0 -5
BITMAP
0000
0000
0000
0000
0000
0000
0000
0000
0c00
0c00
3f00
3f00
0c00
0c00
0000
0000
0000
0000
0000
0000
0000
0000
ENDCHAR
STARTCHAR AccMinus
ENCODING 727
SWIDTH 1320 0
DWIDTH 11 0
BBX 11 22 0 -5
BITMAP
0000
0000
0000
0000
0000
0000
0000
0000
0000
0000
3f00
3f00
0000
0000
0000
0000
0000
0000
0000
0000
0000
0000
ENDCHAR
STARTCHAR AccBreve
ENCODING 728
SWIDTH 1320 0
DWIDTH 11 0
BBX 11 22 0 -5
BITMAP
0000
0000
6180
6180
3f00
1e00
0000
0000
0000
0000
0000
0000
0000
0000
0000
0000
0000
0000
0000
0000
0000
0000
ENDCHAR
STARTCHAR AccDot
ENCODING 729
SWIDTH 1320 0
DWIDTH 11 0
BBX 11 22 0 -5
BITMAP
0000
0000
0e00
0e00
0e00
0000
0000
0000
0000
0000
0000
0000
0000
0000
0000
0000
0000
0000
0000
0000
0000
0000
ENDCHAR
STARTCHAR AccRing
ENCODING 730
SWIDTH 1320 0
DWIDTH 11 0
BBX 11 22 0 -5
BITMAP
0000
0000
1e00
3f00
3300
3300
3f00
1e00
0000
0000
0000
0000
0000
0000
0000
0000
0000
0000
0000
0000
0000
0000
ENDCHAR
STARTCHAR AccOgonek
ENCODING 731
SWIDTH 1320 0
DWIDTH 11 0
BBX 11 22 0 -5
BITMAP
0000
0000
0000
0000
0000
0000
0000
0000
0000
0000
0000
0000
0000
0000
0000
0000
0600
0e00
1c00
1c00
0f80
0000
ENDCHAR
STARTCHAR AccTilde
ENCODING 732
SWIDTH 1320 0
DWIDTH 11 0
BBX 11 22 0 -5
BITMAP
0000
0000
1980
3d80
3780
3300
0000
0000
0000
0000
0000
0000
0000
0000
0000
0000
0000
0000
0000
0000
0000
0000
ENDCHAR
STARTCHAR AccAcute2
ENCODING 733
SWIDTH 1320 0
DWIDTH 11 0
BBX 11 22 0 -5
BITMAP
0000
0000
1dc0
3b80
7700
6600
0000
0000
0000
0000
0000
0000
0000
0000
0000
0000
0000
0000
0000
0000
0000
0000
ENDCHAR
STARTCHAR AccRhothook
ENCODING 734
SWIDTH 1320 0
DWIDTH 11 0
BBX 11 22 0 -5
BITMAP
0000
0000
0000
0000
0000
0000
0000
1000
3080
7180
ff80
df00
8e00
0000
0000
0000
0000
0000
0000
0000
0000
0000
ENDCHAR
STARTCHAR AccCross
ENCODING 735
SWIDTH 1320 0
DWIDTH 11 0
BBX 11 22 0 -5
BITMAP
0000
0000
3180
3b80
1f00
0e00
1f00
3b80
3180
0000
0000
0000
0000
0000
0000
0000
0000
0000
0000
0000
0000
0000
ENDCHAR
STARTCHAR SupSmlGam
ENCODING 736
SWIDTH 1320 0
DWIDTH 11 0
BBX 11 22 0 -5
BITMAP
0000
0000
0000
3980
3980
1f00
0e00
0e00
1b00
1f00
0e00
0000
0000
0000
0000
0000
0000
0000
0000
0000
0000
0000
ENDCHAR
STARTCHAR SupSmlL
ENCODING 737
SWIDTH 1320 0
DWIDTH 11 0
BBX 11 22 0 -5
BITMAP
0000
1e00
0e00
0e00
0e00
0e00
0e00
0e00
0e00
1f00
0000
0000
0000
0000
0000
0000
0000
0000
0000
0000
0000
0000
ENDCHAR
STARTCHAR SupSmlS
ENCODING 738
SWIDTH 1320 0
DWIDTH 11 0
BBX 11 22 0 -5
BITMAP
0000
0000
0000
1f00
3b80
3800
1f00
0380
3b80
1f00
0000
0000
0000
0000
0000
0000
0000
0000
0000
0000
0000
0000
ENDCHAR
STARTCHAR SupSmlX
ENCODING 739
SWIDTH 1320 0
DWIDTH 11 0
BBX 11 22 0 -5
BITMAP
0000
0000
0000
3980
3b00
1e00
0e00
0f00
1b80
3380
0000
0000
0000
0000
0000
0000
0000
0000
0000
0000
0000
0000
ENDCHAR
STARTCHAR SupSmlAin
ENCODING 740
SWIDTH 1320 0
DWIDTH 11 0
BBX 11 22 0 -5
BITMAP
0000
1f00
3b80
3800
3800
1c00
0e00
0e00
0e00
0e00
0000
0000
0000
0000
0000
0000
0000
0000
0000
0000
0000
0000
ENDCHAR
STARTCHAR LtToneHhigh
ENCODING 741
SWIDTH 1320 0
DWIDTH 11 0
BBX 11 22 0 -5
BITMAP
0000
0000
0000
3f00
3f00
0700
0700
0700
0700
0700
0700
0700
0700
0700
0700
0700
0700
0000
0000
0000
0000
0000
ENDCHAR
STARTCHAR LtToneHigh
ENCODING 742
SWIDTH 1320 0
DWIDTH 11 0
BBX 11 22 0 -5
BITMAP
0000
0000
0000
0700
0700
0700
3f00
3f00
0700
0700
0700
0700
0700
0700
0700
0700
0700
0000
0000
0000
0000
0000
ENDCHAR
STARTCHAR LtToneMid
ENCODING 743
SWIDTH 1320 0
DWIDTH 11 0
BBX 11 22 0 -5
BITMAP
0000
0000
0000
0700
0700
0700
0700
0700
0700
3f00
3f00
0700
0700
0700
0700
0700
0700
0000
0000
0000
0000
0000
ENDCHAR
STARTCHAR LtToneLow
ENCODING 744
SWIDTH 1320 0
DWIDTH 11 0
BBX 11 22 0 -5
BITMAP
0000
0000
0000
0700
0700
0700
0700
0700
0700
0700
0700
0700
3f00
3f00
0700
0700
0700
0000
0000
0000
0000
0000
ENDCHAR
STARTCHAR LtToneLlow
ENCODING 745
SWIDTH 1320 0
DWIDTH 11 0
BBX 11 22 0 -5
BITMAP
0000
0000
0000
0700
0700
0700
0700
0700
0700
0700
0700
0700
0700
0700
0700
3f00
3f00
0000
0000
0000
0000
0000
ENDCHAR
STARTCHAR AccToneYin
ENCODING 746
SWIDTH 1320 0
DWIDTH 11 0
BBX 11 22 0 -5
BITMAP
0000
0000
0000
0000
0000
0000
0000
3800
3800
3800
3800
3800
3800
3800
3800
3f80
3f80
0000
0000
0000
0000
0000
ENDCHAR
STARTCHAR AccToneYang
ENCODING 747
SWIDTH 1320 0
DWIDTH 11 0
BBX 11 22 0 -5
BITMAP
0000
0000
0000
0000
0000
0000
0000
3800
3800
3800
3800
3f80
3f80
3800
3800
3800
3800
0000
0000
0000
0000
0000
ENDCHAR
STARTCHAR AccLcaron
ENCODING 748
SWIDTH 1320 0
DWIDTH 11 0
BBX 11 22 0 -5
BITMAP
0000
0000
0000
0000
0000
0000
0000
0000
0000
0000
0000
0000
0000
0000
0000
0000
71c0
3b80
1f00
0e00
0400
0000
ENDCHAR
STARTCHAR AccMacron2
ENCODING 749
SWIDTH 1320 0
DWIDTH 11 0
BBX 11 22 0 -5
BITMAP
0000
3f80
3f80
0000
3f80
3f80
0000
0000
0000
0000
0000
0000
0000
0000
0000
0000
0000
0000
0000
0000
0000
0000
ENDCHAR
STARTCHAR AccApostr2
ENCODING 750
SWIDTH 1320 0
DWIDTH 11 0
BBX 11 22 0 -5
BITMAP
0000
0000
7700
7f80
3b80
1980
7700
0000
0000
0000
0000
0000
0000
0000
0000
0000
0000
0000
0000
0000
0000
0000
ENDCHAR
STARTCHAR CombGrave
ENCODING 768
SWIDTH 1320 0
DWIDTH 11 0
BBX 11 22 0 -5
BITMAP
0000
0000
3800
1800
0c00
0400
0000
0000
0000
0000
0000
0000
0000
0000
0000
0000
0000
0000
0000
0000
0000
0000
ENDCHAR
STARTCHAR CombAcute
ENCODING 769
SWIDTH 1320 0
DWIDTH 11 0
BBX 11 22 0 -5
BITMAP
0000
0000
0380
0300
0600
0400
0000
0000
0000
0000
0000
0000
0000
0000
0000
0000
0000
0000
0000
0000
0000
0000
ENDCHAR
STARTCHAR CombCircum
ENCODING 770
SWIDTH 1320 0
DWIDTH 11 0
BBX 11 22 0 -5
BITMAP
0000
0000
0600
0f00
1980
0000
0000
0000
0000
0000
0000
0000
0000
0000
0000
0000
0000
0000
0000
0000
0000
0000
ENDCHAR
STARTCHAR CombTilde
ENCODING 771
SWIDTH 1320 0
DWIDTH 11 0
BBX 11 22 0 -5
BITMAP
0000
0000
0000
0c80
1f80
1300
0000
0000
0000
0000
0000
0000
0000
0000
0000
0000
0000
0000
0000
0000
0000
0000
ENDCHAR
STARTCHAR CombMacron
ENCODING 772
SWIDTH 1320 0
DWIDTH 11 0
BBX 11 22 0 -5
BITMAP
0000
0000
0000
1f00
1f00
0000
0000
0000
0000
0000
0000
0000
0000
0000
0000
0000
0000
0000
0000
0000
0000
0000
ENDCHAR
STARTCHAR CombOverline
ENCODING 773
SWIDTH 1320 0
DWIDTH 11 0
BBX 11 22 0 -5
BITMAP
ffe0
ffe0
0000
0000
0000
0000
0000
0000
0000
0000
0000
0000
0000
0000
0000
0000
0000
0000
0000
0000
0000
0000
ENDCHAR
STARTCHAR CombBreve
ENCODING 774
SWIDTH 1320 0
DWIDTH 11 0
BBX 11 22 0 -5
BITMAP
0000
0000
0000
1100
1b00
0e00
0000
0000
0000
0000
0000
0000
0000
0000
0000
0000
0000
0000
0000
0000
0000
0000
ENDCHAR
STARTCHAR CombDot
ENCODING 775
SWIDTH 1320 0
DWIDTH 11 0
BBX 11 22 0 -5
BITMAP
0000
0000
0400
0e00
0e00
0400
0000
0000
0000
0000
0000
0000
0000
0000
0000
0000
0000
0000
0000
0000
0000
0000
ENDCHAR
STARTCHAR CombDrss
ENCODING 776
SWIDTH 1320 0
DWIDTH 11 0
BBX 11 22 0 -5
BITMAP
0000
0000
1980
1980
1980
0000
0000
0000
0000
0000
0000
0000
0000
0000
0000
0000
0000
0000
0000
0000
0000
0000
ENDCHAR
STARTCHAR CombVhook
ENCODING 777
SWIDTH 1320 0
DWIDTH 11 0
BBX 11 22 0 -5
BITMAP
0000
0e00
0b00
0300
0600
0400
0000
0000
0000
0000
0000
0000
0000
0000
0000
0000
0000
0000
0000
0000
0000
0000
ENDCHAR
STARTCHAR CombRing
ENCODING 778
SWIDTH 1320 0
DWIDTH 11 0
BBX 11 22 0 -5
BITMAP
0000
0e00
1b00
1100
1b00
0e00
0000
0000
0000
0000
0000
0000
0000
0000
0000
0000
0000
0000
0000
0000
0000
0000
ENDCHAR
STARTCHAR CombAcute2
ENCODING 779
SWIDTH 1320 0
DWIDTH 11 0
BBX 11 22 0 -5
BITMAP
0000
0000
06c0
0d80
1b00
1200
0000
0000
0000
0000
0000
0000
0000
0000
0000
0000
0000
0000
0000
0000
0000
0000
ENDCHAR
STARTCHAR CombCaron
ENCODING 780
SWIDTH 1320 0
DWIDTH 11 0
BBX 11 22 0 -5
BITMAP
0000
0000
0000
1980
0f00
0600
0000
0000
0000
0000
0000
0000
0000
0000
0000
0000
0000
0000
0000
0000
0000
0000
ENDCHAR
STARTCHAR CombStress
ENCODING 781
SWIDTH 1320 0
DWIDTH 11 0
BBX 11 22 0 -5
BITMAP
0000
0000
0600
0600
0600
0600
0000
0000
0000
0000
0000
0000
0000
0000
0000
0000
0000
0000
0000
0000
0000
0000
ENDCHAR
STARTCHAR CombVline2
ENCODING 782
SWIDTH 1320 0
DWIDTH 11 0
BBX 11 22 0 -5
BITMAP
0000
0000
1980
1980
1980
1980
0000
0000
0000
0000
0000
0000
0000
0000
0000
0000
0000
0000
0000
0000
0000
0000
ENDCHAR
STARTCHAR CombGrave2
ENCODING 783
SWIDTH 1320 0
DWIDTH 11 0
BBX 11 22 0 -5
BITMAP
0000
0000
6c00
3600
1b00
0900
0000
0000
0000
0000
0000
0000
0000
0000
0000
0000
0000
0000
0000
0000
0000
0000
ENDCHAR
STARTCHAR CombCandra
ENCODING 784
SWIDTH 1320 0
DWIDTH 11 0
BBX 11 22 0 -5
BITMAP
0000
0c00
0c00
2100
3300
1e00
0000
0000
0000
0000
0000
0000
0000
0000
0000
0000
0000
0000
0000
0000
0000
0000
ENDCHAR
STARTCHAR CombInvbreve
ENCODING 785
SWIDTH 1320 0
DWIDTH 11 0
BBX 11 22 0 -5
BITMAP
0000
0000
0000
0e00
1b00
1100
0000
0000
0000
0000
0000
0000
0000
0000
0000
0000
0000
0000
0000
0000
0000
0000
ENDCHAR
STARTCHAR CombQuoteL
ENCODING 786
SWIDTH 1320 0
DWIDTH 11 0
BBX 11 22 0 -5
BITMAP
0000
0000
0000
0c00
1800
1800
0c00
0000
0000
0000
0000
0000
0000
0000
0000
0000
0000
0000
0000
0000
0000
0000
ENDCHAR
STARTCHAR CombGkPsili
ENCODING 787
SWIDTH 1320 0
DWIDTH 11 0
BBX 11 22 0 -5
BITMAP
0000
0000
0c00
0600
0600
0c00
0000
0000
0000
0000
0000
0000
0000
0000
0000
0000
0000
0000
0000
0000
0000
0000
ENDCHAR
STARTCHAR CombGkDasia
ENCODING 788
SWIDTH 1320 0
DWIDTH 11 0
BBX 11 22 0 -5
BITMAP
0000
0000
0600
0c00
0c00
0600
0000
0000
0000
0000
0000
0000
0000
0000
0000
0000
0000
0000
0000
0000
0000
0000
ENDCHAR
STARTCHAR CombQuoteRRight
ENCODING 789
SWIDTH 1320 0
DWIDTH 11 0
BBX 11 22 0 -5
BITMAP
0000
0000
00e0
0060
0060
00c0
0000
0000
0000
0000
0000
0000
0000
0000
0000
0000
0000
0000
0000
0000
0000
0000
ENDCHAR
STARTCHAR CombLgrave
ENCODING 790
SWIDTH 1320 0
DWIDTH 11 0
BBX 11 22 0 -5
BITMAP
0000
0000
0000
0000
0000
0000
0000
0000
0000
0000
0000
0000
0000
0000
0000
0000
0000
0000
1c00
0c00
0600
0000
ENDCHAR
STARTCHAR CombLacute
ENCODING 791
SWIDTH 1320 0
DWIDTH 11 0
BBX 11 22 0 -5
BITMAP
0000
0000
0000
0000
0000
0000
0000
0000
0000
0000
0000
0000
0000
0000
0000
0000
0000
0000
0e00
0c00
1800
0000
ENDCHAR
STARTCHAR CombLtackl
ENCODING 792
SWIDTH 1320 0
DWIDTH 11 0
BBX 11 22 0 -5
BITMAP
0000
0000
0000
0000
0000
0000
0000
0000
0000
0000
0000
0000
0000
0000
0000
0000
0000
0200
0e00
0e00
0200
0000
ENDCHAR
STARTCHAR CombLtackr
ENCODING 793
SWIDTH 1320 0
DWIDTH 11 0
BBX 11 22 0 -5
BITMAP
0000
0000
0000
0000
0000
0000
0000
0000
0000
0000
0000
0000
0000
0000
0000
0000
0000
0800
0e00
0e00
0800
0000
ENDCHAR
STARTCHAR CombAngle
ENCODING 794
SWIDTH 1320 0
DWIDTH 11 0
BBX 11 22 0 -5
BITMAP
01e0
01e0
0020
0020
0000
0000
0000
0000
0000
0000
0000
0000
0000
0000
0000
0000
0000
0000
0000
0000
0000
0000
ENDCHAR
STARTCHAR CombHorn
ENCODING 795
SWIDTH 1320 0
DWIDTH 11 0
BBX 11 22 0 -5
BITMAP
0000
0000
0000
0000
00e0
0060
0060
00c0
0000
0000
0000
0000
0000
0000
0000
0000
0000
0000
0000
0000
0000
0000
ENDCHAR
STARTCHAR CombLhalfringl
ENCODING 796
SWIDTH 1320 0
DWIDTH 11 0
BBX 11 22 0 -5
BITMAP
0000
0000
0000
0000
0000
0000
0000
0000
0000
0000
0000
0000
0000
0000
0000
0000
0000
0000
0600
0c00
0c00
0600
ENDCHAR
STARTCHAR CombLtacku
ENCODING 797
SWIDTH 1320 0
DWIDTH 11 0
BBX 11 22 0 -5
BITMAP
0000
0000
0000
0000
0000
0000
0000
0000
0000
0000
0000
0000
0000
0000
0000
0000
0000
0400
0400
0e00
0e00
0000
ENDCHAR
STARTCHAR CombLtackd
ENCODING 798
SWIDTH 1320 0
DWIDTH 11 0
BBX 11 22 0 -5
BITMAP
0000
0000
0000
0000
0000
0000
0000
0000
0000
0000
0000
0000
0000
0000
0000
0000
0000
0000
0e00
0e00
0400
0400
ENDCHAR
STARTCHAR CombLplus
ENCODING 799
SWIDTH 1320 0
DWIDTH 11 0
BBX 11 22 0 -5
BITMAP
0000
0000
0000
0000
0000
0000
0000
0000
0000
0000
0000
0000
0000
0000
0000
0000
0000
0400
0e00
0e00
0400
0000
ENDCHAR
STARTCHAR CombLminus
ENCODING 800
SWIDTH 1320 0
DWIDTH 11 0
BBX 11 22 0 -5
BITMAP
0000
0000
0000
0000
0000
0000
0000
0000
0000
0000
0000
0000
0000
0000
0000
0000
0000
0000
0e00
0e00
0000
0000
ENDCHAR
STARTCHAR CombLdot
ENCODING 803
SWIDTH 1320 0
DWIDTH 11 0
BBX 11 22 0 -5
BITMAP
0000
0000
0000
0000
0000
0000
0000
0000
0000
0000
0000
0000
0000
0000
0000
0000
0000
0000
0400
0e00
0e00
0400
ENDCHAR
STARTCHAR CombLdrss
ENCODING 804
SWIDTH 1320 0
DWIDTH 11 0
BBX 11 22 0 -5
BITMAP
0000
0000
0000
0000
0000
0000
0000
0000
0000
0000
0000
0000
0000
0000
0000
0000
0000
0000
3300
3300
3300
0000
ENDCHAR
STARTCHAR CombLring
ENCODING 805
SWIDTH 1320 0
DWIDTH 11 0
BBX 11 22 0 -5
BITMAP
0000
0000
0000
0000
0000
0000
0000
0000
0000
0000
0000
0000
0000
0000
0000
0000
0000
0e00
1b00
1b00
0e00
0000
ENDCHAR
STARTCHAR CombComma
ENCODING 806
SWIDTH 1320 0
DWIDTH 11 0
BBX 11 22 0 -5
BITMAP
0000
0000
0000
0000
0000
0000
0000
0000
0000
0000
0000
0000
0000
0000
0000
0000
0000
0000
0600
0700
0e00
0000
ENDCHAR
STARTCHAR CombCedilla
ENCODING 807
SWIDTH 1320 0
DWIDTH 11 0
BBX 11 22 0 -5
BITMAP
0000
0000
0000
0000
0000
0000
0000
0000
0000
0000
0000
0000
0000
0000
0000
0000
0000
0400
0600
0700
1e00
0000
ENDCHAR
STARTCHAR CombOgonek
ENCODING 808
SWIDTH 1320 0
DWIDTH 11 0
BBX 11 22 0 -5
BITMAP
0000
0000
0000
0000
0000
0000
0000
0000
0000
0000
0000
0000
0000
0000
0000
0000
0000
00c0
0180
0180
00e0
0000
ENDCHAR
STARTCHAR CombLvline
ENCODING 809
SWIDTH 1320 0
DWIDTH 11 0
BBX 11 22 0 -5
BITMAP
0000
0000
0000
0000
0000
0000
0000
0000
0000
0000
0000
0000
0000
0000
0000
0000
0000
0000
0c00
0c00
0c00
0c00
ENDCHAR
STARTCHAR CombLbridge
ENCODING 810
SWIDTH 1320 0
DWIDTH 11 0
BBX 11 22 0 -5
BITMAP
0000
0000
0000
0000
0000
0000
0000
0000
0000
0000
0000
0000
0000
0000
0000
0000
0000
0000
3f00
3300
3300
0000
ENDCHAR
STARTCHAR CombLinvarch2
ENCODING 811
SWIDTH 1320 0
DWIDTH 11 0
BBX 11 22 0 -5
BITMAP
0000
0000
0000
0000
0000
0000
0000
0000
0000
0000
0000
0000
0000
0000
0000
0000
0000
0000
4c80
7f80
3300
0000
ENDCHAR
STARTCHAR CombLcaron
ENCODING 812
SWIDTH 1320 0
DWIDTH 11 0
BBX 11 22 0 -5
BITMAP
0000
0000
0000
0000
0000
0000
0000
0000
0000
0000
0000
0000
0000
0000
0000
0000
0000
0000
3300
1e00
0c00
0000
ENDCHAR
STARTCHAR CombLcircum
ENCODING 813
SWIDTH 1320 0
DWIDTH 11 0
BBX 11 22 0 -5
BITMAP
0000
0000
0000
0000
0000
0000
0000
0000
0000
0000
0000
0000
0000
0000
0000
0000
0000
0000
0c00
1e00
3300
0000
ENDCHAR
STARTCHAR CombLbreve
ENCODING 814
SWIDTH 1320 0
DWIDTH 11 0
BBX 11 22 0 -5
BITMAP
0000
0000
0000
0000
0000
0000
0000
0000
0000
0000
0000
0000
0000
0000
0000
0000
0000
0000
1100
1b00
0e00
0000
ENDCHAR
STARTCHAR CombLinvbreve
ENCODING 815
SWIDTH 1320 0
DWIDTH 11 0
BBX 11 22 0 -5
BITMAP
0000
0000
0000
0000
0000
0000
0000
0000
0000
0000
0000
0000
0000
0000
0000
0000
0000
0000
0e00
1b00
1100
0000
ENDCHAR
STARTCHAR CombLtilde
ENCODING 816
SWIDTH 1320 0
DWIDTH 11 0
BBX 11 22 0 -5
BITMAP
0000
0000
0000
0000
0000
0000
0000
0000
0000
0000
0000
0000
0000
0000
0000
0000
0000
0000
0c80
1f80
1300
0000
ENDCHAR
STARTCHAR CombLmacron
ENCODING 817
SWIDTH 1320 0
DWIDTH 11 0
BBX 11 22 0 -5
BITMAP
0000
0000
0000
0000
0000
0000
0000
0000
0000
0000
0000
0000
0000
0000
0000
0000
0000
0000
0000
1f00
1f00
0000
ENDCHAR
STARTCHAR CombLowline
ENCODING 818
SWIDTH 1320 0
DWIDTH 11 0
BBX 11 22 0 -5
BITMAP
0000
0000
0000
0000
0000
0000
0000
0000
0000
0000
0000
0000
0000
0000
0000
0000
0000
0000
0000
ffe0
ffe0
0000
ENDCHAR
STARTCHAR CombLowline2
ENCODING 819
SWIDTH 1320 0
DWIDTH 11 0
BBX 11 22 0 -5
BITMAP
0000
0000
0000
0000
0000
0000
0000
0000
0000
0000
0000
0000
0000
0000
0000
0000
0000
0000
ffe0
0000
ffe0
0000
ENDCHAR
STARTCHAR CombMtilde
ENCODING 820
SWIDTH 1320 0
DWIDTH 11 0
BBX 11 22 0 -5
BITMAP
0000
0000
0000
0000
0000
0000
0000
0000
0000
70c0
ccc0
c380
0000
0000
0000
0000
0000
0000
0000
0000
0000
0000
ENDCHAR
STARTCHAR CombStrokeHSh
ENCODING 821
SWIDTH 1320 0
DWIDTH 11 0
BBX 11 22 0 -5
BITMAP
0000
0000
0000
0000
0000
0000
0000
0000
0000
0000
3f00
3f00
0000
0000
0000
0000
0000
0000
0000
0000
0000
0000
ENDCHAR
STARTCHAR CombStrokeH
ENCODING 822
SWIDTH 1320 0
DWIDTH 11 0
BBX 11 22 0 -5
BITMAP
0000
0000
0000
0000
0000
0000
0000
0000
0000
0000
7f80
7f80
0000
0000
0000
0000
0000
0000
0000
0000
0000
0000
ENDCHAR
STARTCHAR CombStrokeSh
ENCODING 823
SWIDTH 1320 0
DWIDTH 11 0
BBX 11 22 0 -5
BITMAP
0000
0000
0000
0000
0000
0000
0080
0180
0100
0300
0600
0400
0c00
1800
1000
3000
6000
4000
0000
0000
0000
0000
ENDCHAR
STARTCHAR CombStroke
ENCODING 824
SWIDTH 1320 0
DWIDTH 11 0
BBX 11 22 0 -5
BITMAP
0000
0000
0080
0080
0180
0100
0300
0200
0600
0400
0400
0c00
0800
1800
1000
3000
2000
2000
0000
0000
0000
0000
ENDCHAR
STARTCHAR CombLhalfringr
ENCODING 825
SWIDTH 1320 0
DWIDTH 11 0
BBX 11 22 0 -5
BITMAP
0000
0000
0000
0000
0000
0000
0000
0000
0000
0000
0000
0000
0000
0000
0000
0000
0000
0000
0c00
0600
0600
0c00
ENDCHAR
STARTCHAR CombLinvbridge
ENCODING 826
SWIDTH 1320 0
DWIDTH 11 0
BBX 11 22 0 -5
BITMAP
0000
0000
0000
0000
0000
0000
0000
0000
0000
0000
0000
0000
0000
0000
0000
0000
0000
0000
3300
3300
3f00
0000
ENDCHAR
STARTCHAR CombLsquare
ENCODING 827
SWIDTH 1320 0
DWIDTH 11 0
BBX 11 22 0 -5
BITMAP
0000
0000
0000
0000
0000
0000
0000
0000
0000
0000
0000
0000
0000
0000
0000
0000
0000
0000
3f00
3300
3f00
0000
ENDCHAR
STARTCHAR CombLseagull
ENCODING 828
SWIDTH 1320 0
DWIDTH 11 0
BBX 11 22 0 -5
BITMAP
0000
0000
0000
0000
0000
0000
0000
0000
0000
0000
0000
0000
0000
0000
0000
0000
0000
0000
3300
7f80
4c80
0000
ENDCHAR
STARTCHAR CombCross
ENCODING 829
SWIDTH 1320 0
DWIDTH 11 0
BBX 11 22 0 -5
BITMAP
0000
0000
1b00
0e00
0e00
1b00
0000
0000
0000
0000
0000
0000
0000
0000
0000
0000
0000
0000
0000
0000
0000
0000
ENDCHAR
STARTCHAR CombVtilde
ENCODING 830
SWIDTH 1320 0
DWIDTH 11 0
BBX 11 22 0 -5
BITMAP
0000
0000
0600
0c00
0600
0c00
0000
0000
0000
0000
0000
0000
0000
0000
0000
0000
0000
0000
0000
0000
0000
0000
ENDCHAR
STARTCHAR CombOverline2
ENCODING 831
SWIDTH 1320 0
DWIDTH 11 0
BBX 11 22 0 -5
BITMAP
ffe0
0000
ffe0
0000
0000
0000
0000
0000
0000
0000
0000
0000
0000
0000
0000
0000
0000
0000
0000
0000
0000
0000
ENDCHAR
STARTCHAR CombGraveTone
ENCODING 832
SWIDTH 1320 0
DWIDTH 11 0
BBX 11 22 0 -5
BITMAP
c000
6000
2000
0000
0000
0000
0000
0000
0000
0000
0000
0000
0000
0000
0000
0000
0000
0000
0000
0000
0000
0000
ENDCHAR
STARTCHAR CombAcuteTone
ENCODING 833
SWIDTH 1320 0
DWIDTH 11 0
BBX 11 22 0 -5
BITMAP
00c0
0180
0100
0000
0000
0000
0000
0000
0000
0000
0000
0000
0000
0000
0000
0000
0000
0000
0000
0000
0000
0000
ENDCHAR
STARTCHAR CombGkPeri
ENCODING 834
SWIDTH 1320 0
DWIDTH 11 0
BBX 11 22 0 -5
BITMAP
0000
0000
0000
0e00
1b00
1100
0000
0000
0000
0000
0000
0000
0000
0000
0000
0000
0000
0000
0000
0000
0000
0000
ENDCHAR
STARTCHAR CombGkKoronis
ENCODING 835
SWIDTH 1320 0
DWIDTH 11 0
BBX 11 22 0 -5
BITMAP
0000
0000
0c00
0600
0600
0c00
0000
0000
0000
0000
0000
0000
0000
0000
0000
0000
0000
0000
0000
0000
0000
0000
ENDCHAR
STARTCHAR CombGkDrssTonos
ENCODING 836
SWIDTH 1320 0
DWIDTH 11 0
BBX 11 22 0 -5
BITMAP
0000
0700
0600
6cc0
68c0
0000
0000
0000
0000
0000
0000
0000
0000
0000
0000
0000
0000
0000
0000
0000
0000
0000
ENDCHAR
STARTCHAR CombGkYpog
ENCODING 837
SWIDTH 1320 0
DWIDTH 11 0
BBX 11 22 0 -5
BITMAP
0000
0000
0000
0000
0000
0000
0000
0000
0000
0000
0000
0000
0000
0000
0000
0000
0000
0000
0c00
0c00
0c00
0000
ENDCHAR
STARTCHAR CombBridge
ENCODING 838
SWIDTH 1320 0
DWIDTH 11 0
BBX 11 22 0 -5
BITMAP
0000
0000
1f80
1980
1980
0000
0000
0000
0000
0000
0000
0000
0000
0000
0000
0000
0000
0000
0000
0000
0000
0000
ENDCHAR
STARTCHAR CombLequals
ENCODING 839
SWIDTH 1320 0
DWIDTH 11 0
BBX 11 22 0 -5
BITMAP
0000
0000
0000
0000
0000
0000
0000
0000
0000
0000
0000
0000
0000
0000
0000
0000
0000
0000
1e00
0000
1e00
0000
ENDCHAR
STARTCHAR CombLvline2
ENCODING 840
SWIDTH 1320 0
DWIDTH 11 0
BBX 11 22 0 -5
BITMAP
0000
0000
0000
0000
0000
0000
0000
0000
0000
0000
0000
0000
0000
0000
0000
0000
0000
0000
3300
3300
3300
3300
ENDCHAR
STARTCHAR CombLangle
ENCODING 841
SWIDTH 1320 0
DWIDTH 11 0
BBX 11 22 0 -5
BITMAP
0000
0000
0000
0000
0000
0000
0000
0000
0000
0000
0000
0000
0000
0000
0000
0000
0000
0000
1e00
0600
0600
0000
ENDCHAR
STARTCHAR CombTildenot
ENCODING 842
SWIDTH 1320 0
DWIDTH 11 0
BBX 11 22 0 -5
BITMAP
0000
0000
0400
3d80
6f00
0800
0000
0000
0000
0000
0000
0000
0000
0000
0000
0000
0000
0000
0000
0000
0000
0000
ENDCHAR
STARTCHAR GkCapHet
ENCODING 880
SWIDTH 1320 0
DWIDTH 11 0
BBX 11 22 0 -5
BITMAP
0000
0000
0000
0000
7000
7000
7000
7000
70c0
70c0
7fc0
70c0
70c0
7000
7000
7000
7000
0000
0000
0000
0000
0000
ENDCHAR
STARTCHAR GkSmlHet
ENCODING 881
SWIDTH 1320 0
DWIDTH 11 0
BBX 11 22 0 -5
BITMAP
0000
0000
0000
0000
0000
0000
0000
7000
3800
3800
3840
3fc0
3840
3800
3800
3800
3800
0000
0000
0000
0000
0000
ENDCHAR
STARTCHAR GkCapSamArch
ENCODING 882
SWIDTH 1320 0
DWIDTH 11 0
BBX 11 22 0 -5
BITMAP
0000
0000
0000
0000
ffe0
ce60
ce60
ce60
ce60
ce60
0e00
0e00
0e00
0e00
0e00
0e00
0e00
0000
0000
0000
0000
0000
ENDCHAR
STARTCHAR GkSmlSamArch
ENCODING 883
SWIDTH 1320 0
DWIDTH 11 0
BBX 11 22 0 -5
BITMAP
0000
0000
0000
3f80
6ec0
6ec0
6ec0
6ec0
0e00
0e00
0e00
0e00
0e00
0e00
0e00
0e00
0e00
0000
0000
0000
0000
0000
ENDCHAR
STARTCHAR PGkNumsignU
ENCODING 884
SWIDTH 1320 0
DWIDTH 11 0
BBX 11 22 0 -5
BITMAP
0000
0000
0700
0f00
0e00
1c00
1800
0000
0000
0000
0000
0000
0000
0000
0000
0000
0000
0000
0000
0000
0000
0000
ENDCHAR
STARTCHAR PGkNumsignL
ENCODING 885
SWIDTH 1320 0
DWIDTH 11 0
BBX 11 22 0 -5
BITMAP
0000
0000
0000
0000
0000
0000
0000
0000
0000
0000
0000
0000
0000
0000
0700
0f00
0e00
1c00
1800
0000
0000
0000
ENDCHAR
STARTCHAR GkCapDigPamph
ENCODING 886
SWIDTH 1320 0
DWIDTH 11 0
BBX 11 22 0 -5
BITMAP
0000
0000
0000
0000
71c0
71c0
71c0
73c0
73c0
75c0
75c0
75c0
79c0
79c0
71c0
71c0
71c0
0000
0000
0000
0000
0000
ENDCHAR
STARTCHAR GkSmlDigPamph
ENCODING 887
SWIDTH 1320 0
DWIDTH 11 0
BBX 11 22 0 -5
BITMAP
0000
0000
0000
0000
0000
0000
0000
e1c0
71c0
73c0
73c0
75c0
75c0
79c0
79c0
71c0
71c0
0000
0000
0000
0000
0000
ENDCHAR
STARTCHAR AccGkYpog
ENCODING 890
SWIDTH 1320 0
DWIDTH 11 0
BBX 11 22 0 -5
BITMAP
0000
0000
0000
0000
0000
0000
0000
0000
0000
0000
0000
0000
0000
0000
0000
0000
0000
0c00
0c00
0c00
0600
0000
ENDCHAR
STARTCHAR GkSmlSigLunateRev
ENCODING 891
SWIDTH 1320 0
DWIDTH 11 0
BBX 11 22 0 -5
BITMAP
0000
0000
0000
0000
0000
0000
0000
3f00
7380
61c0
01c0
01c0
01c0
01c0
61c0
7380
3f00
0000
0000
0000
0000
0000
ENDCHAR
STARTCHAR GkSmlSigLunateDot
ENCODING 892
SWIDTH 1320 0
DWIDTH 11 0
BBX 11 22 0 -5
BITMAP
0000
0000
0000
0000
0000
0000
0000
1f80
39c0
70c0
7000
7600
7600
7000
70c0
39c0
1f80
0000
0000
0000
0000
0000
ENDCHAR
STARTCHAR GkSmlSigLunateRevDot
ENCODING 893
SWIDTH 1320 0
DWIDTH 11 0
BBX 11 22 0 -5
BITMAP
0000
0000
0000
0000
0000
0000
0000
3f00
7380
61c0
01c0
0dc0
0dc0
01c0
61c0
7380
3f00
0000
0000
0000
0000
0000
ENDCHAR
STARTCHAR PGkQuestion
ENCODING 894
SWIDTH 1320 0
DWIDTH 11 0
BBX 11 22 0 -5
BITMAP
0000
0000
0000
0000
0000
0000
0000
0000
0000
0e00
0e00
0e00
0000
0000
0e00
0e00
0e00
1c00
1800
0000
0000
0000
ENDCHAR
STARTCHAR AccGkTonos
ENCODING 900
SWIDTH 1320 0
DWIDTH 11 0
BBX 11 22 0 -5
BITMAP
0000
0000
0600
0e00
0c00
1800
1000
0000
0000
0000
0000
0000
0000
0000
0000
0000
0000
0000
0000
0000
0000
0000
ENDCHAR
STARTCHAR AccGkDrssTonos
ENCODING 901
SWIDTH 1320 0
DWIDTH 11 0
BBX 11 22 0 -5
BITMAP
0000
0300
0700
0600
0c00
6980
6180
0000
0000
0000
0000
0000
0000
0000
0000
0000
0000
0000
0000
0000
0000
0000
ENDCHAR
STARTCHAR GkCapAlpTon
ENCODING 902
SWIDTH 1320 0
DWIDTH 11 0
BBX 11 22 0 -5
BITMAP
0000
0000
0000
2000
6c00
ce00
9e00
1e00
1f00
3700
3700
2380
7f80
6380
61c0
c1c0
c1c0
0000
0000
0000
0000
0000
ENDCHAR
STARTCHAR PMiddleDotGk
ENCODING 903
SWIDTH 1320 0
DWIDTH 11 0
BBX 11 22 0 -5
BITMAP
0000
0000
0000
0000
0000
0000
0000
0e00
0e00
0e00
0000
0000
0000
0000
0000
0000
0000
0000
0000
0000
0000
0000
ENDCHAR
STARTCHAR GkCapEpsTon
ENCODING 904
SWIDTH 1320 0
DWIDTH 11 0
BBX 11 22 0 -5
BITMAP
0000
0000
0000
2000
7fc0
dcc0
9cc0
1c00
1c00
1d00
1f00
1d00
1c00
1c00
1cc0
1cc0
1fc0
0000
0000
0000
0000
0000
ENDCHAR
STARTCHAR GkCapEtaTon
ENCODING 905
SWIDTH 1320 0
DWIDTH 11 0
BBX 11 22 0 -5
BITMAP
0000
0000
0000
2000
7dc0
ddc0
9dc0
1dc0
1dc0
1dc0
1fc0
1dc0
1dc0
1dc0
1dc0
1dc0
1dc0
0000
0000
0000
0000
0000
ENDCHAR
STARTCHAR GkCapIotTon
ENCODING 906
SWIDTH 1320 0
DWIDTH 11 0
BBX 11 22 0 -5
BITMAP
0000
0000
0000
1000
37c0
6380
4380
0380
0380
0380
0380
0380
0380
0380
0380
0380
07c0
0000
0000
0000
0000
0000
ENDCHAR
STARTCHAR GkCapOmiTon
ENCODING 908
SWIDTH 1320 0
DWIDTH 11 0
BBX 11 22 0 -5
BITMAP
0000
0000
0000
2000
6f00
d980
9980
39c0
39c0
39c0
39c0
39c0
39c0
39c0
1980
1980
0f00
0000
0000
0000
0000
0000
ENDCHAR
STARTCHAR GkCapUpsTon
ENCODING 910
SWIDTH 1320 0
DWIDTH 11 0
BBX 11 22 0 -5
BITMAP
0000
0000
0000
2000
78c0
d8c0
9c80
1d80
0d80
0f00
0f00
0700
0700
0700
0700
0700
0700
0000
0000
0000
0000
0000
ENDCHAR
STARTCHAR GkCapOmeTon
ENCODING 911
SWIDTH 1320 0
DWIDTH 11 0
BBX 11 22 0 -5
BITMAP
0000
0000
0000
2000
6f00
df80
9980
30c0
30c0
30c0
30c0
1980
1980
0900
39c0
39c0
39c0
0000
0000
0000
0000
0000
ENDCHAR
STARTCHAR GkSmlIotDrssTon
ENCODING 912
SWIDTH 1320 0
DWIDTH 11 0
BBX 11 22 0 -5
BITMAP
0000
0700
0600
6cc0
68c0
0000
0000
1c00
1c00
1c00
1c00
1c00
1c00
1c00
1cc0
1cc0
0f80
0000
0000
0000
0000
0000
ENDCHAR
STARTCHAR GkCapAlp
ENCODING 913
SWIDTH 1320 0
DWIDTH 11 0
BBX 11 22 0 -5
BITMAP
0000
0000
0000
0000
0c00
0e00
1e00
1e00
1f00
3700
3700
2380
7f80
6380
61c0
c1c0
c1c0
0000
0000
0000
0000
0000
ENDCHAR
STARTCHAR GkCapBet
ENCODING 914
SWIDTH 1320 0
DWIDTH 11 0
BBX 11 22 0 -5
BITMAP
0000
0000
0000
0000
7f00
7380
71c0
71c0
71c0
7380
7f00
7380
71c0
71c0
71c0
7380
7f00
0000
0000
0000
0000
0000
ENDCHAR
STARTCHAR GkCapGam
ENCODING 915
SWIDTH 1320 0
DWIDTH 11 0
BBX 11 22 0 -5
BITMAP
0000
0000
0000
0000
3fe0
3860
3860
3800
3800
3800
3800
3800
3800
3800
3800
3800
3800
0000
0000
0000
0000
0000
ENDCHAR
STARTCHAR GkCapDel
ENCODING 916
SWIDTH 1320 0
DWIDTH 11 0
BBX 11 22 0 -5
BITMAP
0000
0000
0000
0000
0c00
0c00
1e00
1e00
1700
3700
3300
2380
6380
6180
ffc0
ffc0
ffc0
0000
0000
0000
0000
0000
ENDCHAR
STARTCHAR GkCapEps
ENCODING 917
SWIDTH 1320 0
DWIDTH 11 0
BBX 11 22 0 -5
BITMAP
0000
0000
0000
0000
7fc0
70c0
70c0
7000
7000
7200
7e00
7200
7000
7000
70c0
70c0
7fc0
0000
0000
0000
0000
0000
ENDCHAR
STARTCHAR GkCapZet
ENCODING 918
SWIDTH 1320 0
DWIDTH 11 0
BBX 11 22 0 -5
BITMAP
0000
0000
0000
0000
7fc0
61c0
6380
0380
0700
0700
0e00
1c00
1c00
3800
38c0
70c0
7fc0
0000
0000
0000
0000
0000
ENDCHAR
STARTCHAR GkCapEta
ENCODING 919
SWIDTH 1320 0
DWIDTH 11 0
BBX 11 22 0 -5
BITMAP
0000
0000
0000
0000
71c0
71c0
71c0
71c0
71c0
71c0
7fc0
71c0
71c0
71c0
71c0
71c0
71c0
0000
0000
0000
0000
0000
ENDCHAR
STARTCHAR GkCapThe
ENCODING 920
SWIDTH 1320 0
DWIDTH 11 0
BBX 11 22 0 -5
BITMAP
0000
0000
0000
0000
1e00
7380
6180
e1c0
e1c0
ffc0
ffc0
e1c0
e1c0
e1c0
6180
7380
1e00
0000
0000
0000
0000
0000
ENDCHAR
STARTCHAR GkCapIot
ENCODING 921
SWIDTH 1320 0
DWIDTH 11 0
BBX 11 22 0 -5
BITMAP
0000
0000
0000
0000
3f80
0e00
0e00
0e00
0e00
0e00
0e00
0e00
0e00
0e00
0e00
0e00
3f80
0000
0000
0000
0000
0000
ENDCHAR
STARTCHAR GkCapKap
ENCODING 922
SWIDTH 1320 0
DWIDTH 11 0
BBX 11 22 0 -5
BITMAP
0000
0000
0000
0000
70c0
70c0
7180
7300
7300
7600
7e00
7f00
7700
7380
7380
71c0
71c0
0000
0000
0000
0000
0000
ENDCHAR
STARTCHAR GkCapLam
ENCODING 923
SWIDTH 1320 0
DWIDTH 11 0
BBX 11 22 0 -5
BITMAP
0000
0000
0000
0000
0c00
0e00
0e00
1e00
1f00
1700
3700
3380
2380
6380
61c0
41c0
c1c0
0000
0000
0000
0000
0000
ENDCHAR
STARTCHAR GkCapMu
ENCODING 924
SWIDTH 1320 0
DWIDTH 11 0
BBX 11 22 0 -5
BITMAP
0000
0000
0000
0000
c0c0
c1c0
e1c0
e3c0
f3c0
f7c0
ddc0
ddc0
c9c0
c9c0
c1c0
c1c0
c1c0
0000
0000
0000
0000
0000
ENDCHAR
STARTCHAR GkCapNu
ENCODING 925
SWIDTH 1320 0
DWIDTH 11 0
BBX 11 22 0 -5
BITMAP
0000
0000
0000
0000
70c0
78c0
78c0
7cc0
7cc0
6ec0
6ec0
67c0
67c0
63c0
63c0
61c0
61c0
0000
0000
0000
0000
0000
ENDCHAR
STARTCHAR GkCapXi
ENCODING 926
SWIDTH 1320 0
DWIDTH 11 0
BBX 11 22 0 -5
BITMAP
0000
0000
0000
0000
7fc0
7fc0
7fc0
4040
0000
3f80
3f80
3f80
0000
4040
7fc0
7fc0
7fc0
0000
0000
0000
0000
0000
ENDCHAR
STARTCHAR GkCapOmi
ENCODING 927
SWIDTH 1320 0
DWIDTH 11 0
BBX 11 22 0 -5
BITMAP
0000
0000
0000
0000
1e00
7380
6180
e1c0
e1c0
e1c0
e1c0
e1c0
e1c0
e1c0
6180
7380
1e00
0000
0000
0000
0000
0000
ENDCHAR
STARTCHAR GkCapPi
ENCODING 928
SWIDTH 1320 0
DWIDTH 11 0
BBX 11 22 0 -5
BITMAP
0000
0000
0000
0000
7fc0
71c0
71c0
71c0
71c0
71c0
71c0
71c0
71c0
71c0
71c0
71c0
71c0
0000
0000
0000
0000
0000
ENDCHAR
STARTCHAR GkCapRho
ENCODING 929
SWIDTH 1320 0
DWIDTH 11 0
BBX 11 22 0 -5
BITMAP
0000
0000
0000
0000
7f00
7380
71c0
71c0
71c0
71c0
7380
7f00
7000
7000
7000
7000
7000
0000
0000
0000
0000
0000
ENDCHAR
STARTCHAR GkCapSig
ENCODING 931
SWIDTH 1320 0
DWIDTH 11 0
BBX 11 22 0 -5
BITMAP
0000
0000
0000
0000
7fc0
7fc0
70c0
3800
1c00
0e00
0600
0c00
1800
3040
7fc0
7fc0
7fc0
0000
0000
0000
0000
0000
ENDCHAR
STARTCHAR GkCapTau
ENCODING 932
SWIDTH 1320 0
DWIDTH 11 0
BBX 11 22 0 -5
BITMAP
0000
0000
0000
0000
ffe0
ce60
ce60
0e00
0e00
0e00
0e00
0e00
0e00
0e00
0e00
0e00
0e00
0000
0000
0000
0000
0000
ENDCHAR
STARTCHAR GkCapUps
ENCODING 933
SWIDTH 1320 0
DWIDTH 11 0
BBX 11 22 0 -5
BITMAP
0000
0000
0000
0000
e0c0
70c0
7180
3980
3b00
1f00
1e00
0e00
0e00
0e00
0e00
0e00
0e00
0000
0000
0000
0000
0000
ENDCHAR
STARTCHAR GkCapPhi
ENCODING 934
SWIDTH 1320 0
DWIDTH 11 0
BBX 11 22 0 -5
BITMAP
0000
0000
0000
0000
0c00
0c00
3f00
6d80
edc0
edc0
edc0
edc0
edc0
6d80
3f00
0c00
0c00
0000
0000
0000
0000
0000
ENDCHAR
STARTCHAR GkCapChi
ENCODING 935
SWIDTH 1320 0
DWIDTH 11 0
BBX 11 22 0 -5
BITMAP
0000
0000
0000
0000
70c0
70c0
7980
3900
1f00
1e00
0e00
0f00
1f00
1380
33c0
61c0
61c0
0000
0000
0000
0000
0000
ENDCHAR
STARTCHAR GkCapPsi
ENCODING 936
SWIDTH 1320 0
DWIDTH 11 0
BBX 11 22 0 -5
BITMAP
0000
0000
0000
0000
edc0
edc0
edc0
edc0
edc0
edc0
edc0
7f80
0c00
0c00
0c00
0c00
0c00
0000
0000
0000
0000
0000
ENDCHAR
STARTCHAR GkCapOme
ENCODING 937
SWIDTH 1320 0
DWIDTH 11 0
BBX 11 22 0 -5
BITMAP
0000
0000
0000
0000
1e00
7380
6180
e1c0
e1c0
e1c0
e1c0
6180
7380
1200
f3c0
f3c0
f3c0
0000
0000
0000
0000
0000
ENDCHAR
STARTCHAR GkCapIotDrss
ENCODING 938
SWIDTH 1320 0
DWIDTH 11 0
BBX 11 22 0 -5
BITMAP
1b00
1b00
1b00
0000
3f80
0e00
0e00
0e00
0e00
0e00
0e00
0e00
0e00
0e00
0e00
0e00
3f80
0000
0000
0000
0000
0000
ENDCHAR
STARTCHAR GkCapUpsDrss
ENCODING 939
SWIDTH 1320 0
DWIDTH 11 0
BBX 11 22 0 -5
BITMAP
3180
3180
3180
0000
e0c0
70c0
7180
3980
3b00
1f00
1e00
0e00
0e00
0e00
0e00
0e00
0e00
0000
0000
0000
0000
0000
ENDCHAR
STARTCHAR GkSmlAlpTon
ENCODING 940
SWIDTH 1320 0
DWIDTH 11 0
BBX 11 22 0 -5
BITMAP
0000
0000
0e00
0c00
1800
1000
0000
38c0
7cc0
fd80
cf80
c700
c700
c700
cfc0
7dc0
39c0
0000
0000
0000
0000
0000
ENDCHAR
STARTCHAR GkSmlEpsTon
ENCODING 941
SWIDTH 1320 0
DWIDTH 11 0
BBX 11 22 0 -5
BITMAP
0000
0000
0700
0600
0c00
0800
0000
3f80
71c0
70c0
7000
3e00
3000
7000
70c0
71c0
3f80
0000
0000
0000
0000
0000
ENDCHAR
STARTCHAR GkSmlEtaTon
ENCODING 942
SWIDTH 1320 0
DWIDTH 11 0
BBX 11 22 0 -5
BITMAP
0000
0000
0700
0600
0c00
0800
0000
7780
79c0
71c0
71c0
71c0
71c0
71c0
71c0
71c0
71c0
01c0
01c0
01c0
01c0
0000
ENDCHAR
STARTCHAR GkSmlIotTon
ENCODING 943
SWIDTH 1320 0
DWIDTH 11 0
BBX 11 22 0 -5
BITMAP
0000
0000
0700
0600
0c00
0800
0000
1c00
1c00
1c00
1c00
1c00
1c00
1c00
1cc0
1cc0
0f80
0000
0000
0000
0000
0000
ENDCHAR
STARTCHAR GkSmlUpsDrssTon
ENCODING 944
SWIDTH 1320 0
DWIDTH 11 0
BBX 11 22 0 -5
BITMAP
0000
0700
0600
6cc0
68c0
0000
0000
e180
71c0
39c0
38c0
38c0
38c0
38c0
38c0
1d80
0f00
0000
0000
0000
0000
0000
ENDCHAR
STARTCHAR GkSmlAlp
ENCODING 945
SWIDTH 1320 0
DWIDTH 11 0
BBX 11 22 0 -5
BITMAP
0000
0000
0000
0000
0000
0000
0000
38c0
7cc0
fd80
cf80
c700
c700
c700
cfc0
7dc0
39c0
0000
0000
0000
0000
0000
ENDCHAR
STARTCHAR GkSmlBet
ENCODING 946
SWIDTH 1320 0
DWIDTH 11 0
BBX 11 22 0 -5
BITMAP
0000
0000
0000
3e00
7300
7380
7380
7380
7700
7700
7380
71c0
71c0
71c0
71c0
7b80
7700
7000
7000
7000
7000
0000
ENDCHAR
STARTCHAR GkSmlGam
ENCODING 947
SWIDTH 1320 0
DWIDTH 11 0
BBX 11 22 0 -5
BITMAP
0000
0000
0000
0000
0000
0000
0000
e0c0
f0c0
7980
3980
1f00
1f00
0e00
0e00
0e00
0e00
0e00
0e00
0e00
0e00
0000
ENDCHAR
STARTCHAR GkSmlDel
ENCODING 948
SWIDTH 1320 0
DWIDTH 11 0
BBX 11 22 0 -5
BITMAP
0000
0000
0000
1f00
3980
3980
1c00
0e00
0f00
1b80
31c0
71c0
71c0
71c0
71c0
3b80
1f00
0000
0000
0000
0000
0000
ENDCHAR
STARTCHAR GkSmlEps
ENCODING 949
SWIDTH 1320 0
DWIDTH 11 0
BBX 11 22 0 -5
BITMAP
0000
0000
0000
0000
0000
0000
0000
3f80
71c0
70c0
7000
3e00
3000
7000
70c0
71c0
3f80
0000
0000
0000
0000
0000
ENDCHAR
STARTCHAR GkSmlZet
ENCODING 950
SWIDTH 1320 0
DWIDTH 11 0
BBX 11 22 0 -5
BITMAP
0000
0000
0000
7f80
7f80
0300
0600
0600
0c00
1c00
1800
3800
3000
7000
7f00
3f80
1fc0
00c0
01c0
0180
0000
0000
ENDCHAR
STARTCHAR GkSmlEta
ENCODING 951
SWIDTH 1320 0
DWIDTH 11 0
BBX 11 22 0 -5
BITMAP
0000
0000
0000
0000
0000
0000
0000
7780
79c0
71c0
71c0
71c0
71c0
71c0
71c0
71c0
71c0
01c0
01c0
01c0
01c0
0000
ENDCHAR
STARTCHAR GkSmlThe
ENCODING 952
SWIDTH 1320 0
DWIDTH 11 0
BBX 11 22 0 -5
BITMAP
0000
0000
0000
1f00
3b80
3180
71c0
71c0
71c0
7fc0
71c0
71c0
71c0
71c0
3180
3b80
1f00
0000
0000
0000
0000
0000
ENDCHAR
STARTCHAR GkSmlIot
ENCODING 953
SWIDTH 1320 0
DWIDTH 11 0
BBX 11 22 0 -5
BITMAP
0000
0000
0000
0000
0000
0000
0000
1c00
1c00
1c00
1c00
1c00
1c00
1c00
1cc0
1cc0
0f80
0000
0000
0000
0000
0000
ENDCHAR
STARTCHAR GkSmlKap
ENCODING 954
SWIDTH 1320 0
DWIDTH 11 0
BBX 11 22 0 -5
BITMAP
0000
0000
0000
0000
0000
0000
0000
70c0
7180
7300
7600
7e00
7f00
7380
7380
71c0
71c0
0000
0000
0000
0000
0000
ENDCHAR
STARTCHAR GkSmlLam
ENCODING 955
SWIDTH 1320 0
DWIDTH 11 0
BBX 11 22 0 -5
BITMAP
0000
0000
0000
7000
7800
7c00
1c00
0e00
0e00
0f00
1f00
1b80
3380
3380
31c0
61c0
61c0
0000
0000
0000
0000
0000
ENDCHAR
STARTCHAR GkSmlMu
ENCODING 956
SWIDTH 1320 0
DWIDTH 11 0
BBX 11 22 0 -5
BITMAP
0000
0000
0000
0000
0000
0000
0000
71c0
71c0
71c0
71c0
71c0
71c0
71c0
71c0
7fc0
76c0
7000
7000
7000
7000
0000
ENDCHAR
STARTCHAR GkSmlNu
ENCODING 957
SWIDTH 1320 0
DWIDTH 11 0
BBX 11 22 0 -5
BITMAP
0000
0000
0000
0000
0000
0000
0000
71c0
71c0
38c0
38c0
1cc0
1d80
0f00
0f00
0600
0600
0000
0000
0000
0000
0000
ENDCHAR
STARTCHAR GkSmlXi
ENCODING 958
SWIDTH 1320 0
DWIDTH 11 0
BBX 11 22 0 -5
BITMAP
0000
0000
0000
7f00
7f00
3f00
2000
6000
6000
3f00
3f00
2000
6000
6000
7f00
7f80
3fc0
00c0
01c0
0180
0000
0000
ENDCHAR
STARTCHAR GkSmlOmi
ENCODING 959
SWIDTH 1320 0
DWIDTH 11 0
BBX 11 22 0 -5
BITMAP
0000
0000
0000
0000
0000
0000
0000
1f00
3b80
71c0
71c0
71c0
71c0
71c0
71c0
3b80
1f00
0000
0000
0000
0000
0000
ENDCHAR
STARTCHAR GkSmlPi
ENCODING 960
SWIDTH 1320 0
DWIDTH 11 0
BBX 11 22 0 -5
BITMAP
0000
0000
0000
0000
0000
0000
0000
7fc0
ffc0
ffc0
3300
3300
3300
3300
3380
73c0
61c0
0000
0000
0000
0000
0000
ENDCHAR
STARTCHAR GkSmlRho
ENCODING 961
SWIDTH 1320 0
DWIDTH 11 0
BBX 11 22 0 -5
BITMAP
0000
0000
0000
0000
0000
0000
0000
1f00
3b80
71c0
71c0
71c0
71c0
71c0
71c0
7b80
7700
7000
7000
7000
7000
0000
ENDCHAR
STARTCHAR GkSmlSigTrm
ENCODING 962
SWIDTH 1320 0
DWIDTH 11 0
BBX 11 22 0 -5
BITMAP
0000
0000
0000
0000
0000
0000
0000
1f00
3f80
7180
6000
4000
4000
6000
7f00
3f80
1fc0
00c0
01c0
0180
0000
0000
ENDCHAR
STARTCHAR GkSmlSig
ENCODING 963
SWIDTH 1320 0
DWIDTH 11 0
BBX 11 22 0 -5
BITMAP
0000
0000
0000
0000
0000
0000
0000
1fe0
7fc0
7f80
e200
e300
e380
e380
6380
7700
3e00
0000
0000
0000
0000
0000
ENDCHAR
STARTCHAR GkSmlTau
ENCODING 964
SWIDTH 1320 0
DWIDTH 11 0
BBX 11 22 0 -5
BITMAP
0000
0000
0000
0000
0000
0000
0000
7fc0
ffc0
ffc0
0c00
0c00
0c00
0c00
0cc0
0fc0
0780
0000
0000
0000
0000
0000
ENDCHAR
STARTCHAR GkSmlUps
ENCODING 965
SWIDTH 1320 0
DWIDTH 11 0
BBX 11 22 0 -5
BITMAP
0000
0000
0000
0000
0000
0000
0000
e180
71c0
39c0
38c0
38c0
38c0
38c0
38c0
1d80
0f00
0000
0000
0000
0000
0000
ENDCHAR
STARTCHAR GkSmlPhi
ENCODING 966
SWIDTH 1320 0
DWIDTH 11 0
BBX 11 22 0 -5
BITMAP
0000
0000
0000
0000
0000
0000
0000
0700
6f80
edc0
edc0
edc0
edc0
edc0
edc0
6d80
3f00
0c00
0c00
0c00
0c00
0000
ENDCHAR
STARTCHAR GkSmlChi
ENCODING 967
SWIDTH 1320 0
DWIDTH 11 0
BBX 11 22 0 -5
BITMAP
0000
0000
0000
0000
0000
0000
0000
70c0
7980
7980
1d00
1f00
0e00
0e00
0e00
0e00
1f00
1700
33c0
33c0
61c0
0000
ENDCHAR
STARTCHAR GkSmlPsi
ENCODING 968
SWIDTH 1320 0
DWIDTH 11 0
BBX 11 22 0 -5
BITMAP
0000
0000
0000
0c00
0c00
0c00
0c00
ccc0
edc0
edc0
edc0
edc0
edc0
edc0
6d80
6d80
3f00
0c00
0c00
0c00
0c00
0000
ENDCHAR
STARTCHAR GkSmlOme
ENCODING 969
SWIDTH 1320 0
DWIDTH 11 0
BBX 11 22 0 -5
BITMAP
0000
0000
0000
0000
0000
0000
0000
6380
e1c0
e1c0
e1c0
edc0
edc0
edc0
edc0
7f80
3300
0000
0000
0000
0000
0000
ENDCHAR
STARTCHAR GkSmlIotDrss
ENCODING 970
SWIDTH 1320 0
DWIDTH 11 0
BBX 11 22 0 -5
BITMAP
0000
0000
3300
3300
3300
0000
0000
1c00
1c00
1c00
1c00
1c00
1c00
1c00
1cc0
1cc0
0f80
0000
0000
0000
0000
0000
ENDCHAR
STARTCHAR GkSmlUpsDrss
ENCODING 971
SWIDTH 1320 0
DWIDTH 11 0
BBX 11 22 0 -5
BITMAP
0000
0000
1980
1980
1980
0000
0000
e180
71c0
39c0
38c0
38c0
38c0
38c0
38c0
1d80
0f00
0000
0000
0000
0000
0000
ENDCHAR
STARTCHAR GkSmlOmiTon
ENCODING 972
SWIDTH 1320 0
DWIDTH 11 0
BBX 11 22 0 -5
BITMAP
0000
0000
0700
0600
0c00
0800
0000
1f00
3b80
71c0
71c0
71c0
71c0
71c0
71c0
3b80
1f00
0000
0000
0000
0000
0000
ENDCHAR
STARTCHAR GkSmlUpsTon
ENCODING 973
SWIDTH 1320 0
DWIDTH 11 0
BBX 11 22 0 -5
BITMAP
0000
0000
0700
0600
0c00
0800
0000
e180
71c0
39c0
38c0
38c0
38c0
38c0
38c0
1d80
0f00
0000
0000
0000
0000
0000
ENDCHAR
STARTCHAR GkSmlOmeTon
ENCODING 974
SWIDTH 1320 0
DWIDTH 11 0
BBX 11 22 0 -5
BITMAP
0000
0000
0700
0600
0c00
0800
0000
6380
e1c0
e1c0
e1c0
edc0
edc0
edc0
edc0
7f80
3300
0000
0000
0000
0000
0000
ENDCHAR
STARTCHAR SGkCapKai
ENCODING 975
SWIDTH 1320 0
DWIDTH 11 0
BBX 11 22 0 -5
BITMAP
0000
0000
0000
0000
70c0
70c0
7180
7300
7300
7600
7e00
7f00
7700
7380
71c0
71c0
7380
0700
0e00
0e00
0000
0000
ENDCHAR
STARTCHAR GkSmlBetAlt
ENCODING 976
SWIDTH 1320 0
DWIDTH 11 0
BBX 11 22 0 -5
BITMAP
0000
0000
0000
1f00
3980
3980
7f00
7000
7700
7b80
71c0
71c0
71c0
71c0
71c0
3b80
1f00
0000
0000
0000
0000
0000
ENDCHAR
STARTCHAR GkSmlTheAlt
ENCODING 977
SWIDTH 1320 0
DWIDTH 11 0
BBX 11 22 0 -5
BITMAP
0000
0000
0000
1e00
3b80
3980
39c0
1dc0
0fe0
01c0
01c0
e1c0
71c0
71c0
7180
7380
3e00
0000
0000
0000
0000
0000
ENDCHAR
STARTCHAR GkCapUpsAlt
ENCODING 978
SWIDTH 1320 0
DWIDTH 11 0
BBX 11 22 0 -5
BITMAP
0000
0000
0000
0000
e0e0
f9e0
3b00
1f00
1e00
0e00
0e00
0e00
0e00
0e00
0e00
0e00
0e00
0000
0000
0000
0000
0000
ENDCHAR
STARTCHAR GkCapUpsAltTon
ENCODING 979
SWIDTH 1320 0
DWIDTH 11 0
BBX 11 22 0 -5
BITMAP
0000
0000
0000
2000
7820
dc60
8ec0
0680
0780
0380
0380
0380
0380
0380
0380
0380
0380
0000
0000
0000
0000
0000
ENDCHAR
STARTCHAR GkCapUpsAltDrss
ENCODING 980
SWIDTH 1320 0
DWIDTH 11 0
BBX 11 22 0 -5
BITMAP
3180
3180
3180
0000
e0e0
f9e0
3b00
1f00
1e00
0e00
0e00
0e00
0e00
0e00
0e00
0e00
0e00
0000
0000
0000
0000
0000
ENDCHAR
STARTCHAR GkSmlPhiAlt
ENCODING 981
SWIDTH 1320 0
DWIDTH 11 0
BBX 11 22 0 -5
BITMAP
0000
0000
0000
0c00
0c00
0c00
0c00
3f00
6d80
6d80
edc0
edc0
edc0
edc0
6d80
6d80
3f00
0c00
0c00
0c00
0c00
0000
ENDCHAR
STARTCHAR GkSmlPiAlt
ENCODING 982
SWIDTH 1320 0
DWIDTH 11 0
BBX 11 22 0 -5
BITMAP
0000
0000
0000
0000
0000
0000
0000
ffc0
ffc0
e180
e1c0
edc0
edc0
edc0
edc0
7f80
3300
0000
0000
0000
0000
0000
ENDCHAR
STARTCHAR SGkKai
ENCODING 983
SWIDTH 1320 0
DWIDTH 11 0
BBX 11 22 0 -5
BITMAP
0000
0000
0000
0000
0000
0000
0000
70c0
7180
7300
7600
7e00
7f00
7380
71c0
71c0
71c0
0380
1f00
3800
3000
0000
ENDCHAR
STARTCHAR GkCapKopAlt1
ENCODING 984
SWIDTH 1320 0
DWIDTH 11 0
BBX 11 22 0 -5
BITMAP
0000
0000
0000
0000
1f00
3b80
71c0
71c0
71c0
71c0
3b80
1f00
0e00
0e00
0e00
0e00
0e00
0000
0000
0000
0000
0000
ENDCHAR
STARTCHAR GkSmlKopAlt1
ENCODING 985
SWIDTH 1320 0
DWIDTH 11 0
BBX 11 22 0 -5
BITMAP
0000
0000
0000
0000
0000
0000
0000
1f00
3b80
71c0
71c0
71c0
71c0
71c0
71c0
3b80
1f00
0e00
0e00
0e00
0e00
0000
ENDCHAR
STARTCHAR GkCapSti
ENCODING 986
SWIDTH 1320 0
DWIDTH 11 0
BBX 11 22 0 -5
BITMAP
0000
0000
0000
0000
1fc0
3fc0
7fc0
7000
6000
6000
3000
1f80
0380
0380
0380
0380
0380
0000
0000
0000
0000
0000
ENDCHAR
STARTCHAR GkSmlSti
ENCODING 987
SWIDTH 1320 0
DWIDTH 11 0
BBX 11 22 0 -5
BITMAP
0000
0000
0000
0000
0000
0000
0060
1fe0
3fc0
7000
6000
4000
4000
6000
7e00
3f00
1f00
0300
0700
0600
0000
0000
ENDCHAR
STARTCHAR GkCapDig
ENCODING 988
SWIDTH 1320 0
DWIDTH 11 0
BBX 11 22 0 -5
BITMAP
0000
0000
0000
0000
3fe0
3860
3860
3800
3800
3900
3f00
3900
3800
3800
3800
3800
3800
0000
0000
0000
0000
0000
ENDCHAR
STARTCHAR GkSmlDig
ENCODING 989
SWIDTH 1320 0
DWIDTH 11 0
BBX 11 22 0 -5
BITMAP
0000
0000
0000
0000
0000
0000
0000
3fc0
3fc0
7fc0
6000
6000
7e00
7e00
7e00
6000
6000
6000
6000
e000
c000
0000
ENDCHAR
STARTCHAR GkCapKop
ENCODING 990
SWIDTH 1320 0
DWIDTH 11 0
BBX 11 22 0 -5
BITMAP
0000
0000
0000
0000
0c00
0c00
1800
1800
3000
3fc0
7fc0
7f80
0180
0300
0300
0600
0600
0000
0000
0000
0000
0000
ENDCHAR
STARTCHAR GkSmlKop
ENCODING 991
SWIDTH 1320 0
DWIDTH 11 0
BBX 11 22 0 -5
BITMAP
0000
0000
0000
c000
e000
6000
6000
60c0
61c0
63c0
67c0
6fc0
7ec0
7cc0
78c0
70c0
60c0
00c0
00c0
00c0
00c0
0000
ENDCHAR
STARTCHAR GkCapSam
ENCODING 992
SWIDTH 1320 0
DWIDTH 11 0
BBX 11 22 0 -5
BITMAP
0000
0000
0000
0000
0c00
0e00
1e00
1e00
1700
3700
3300
2780
6580
6d80
4dc0
c8c0
d8c0
0000
0000
0000
0000
0000
ENDCHAR
STARTCHAR GkSmlSam
ENCODING 993
SWIDTH 1320 0
DWIDTH 11 0
BBX 11 22 0 -5
BITMAP
0000
0000
0000
7000
7800
1c00
0e00
0600
0f00
1f00
3b80
7380
6780
0fc0
1dc0
39c0
31c0
01c0
01c0
01c0
0180
0000
ENDCHAR
STARTCHAR GkSmlKapAlt
ENCODING 1008
SWIDTH 1320 0
DWIDTH 11 0
BBX 11 22 0 -5
BITMAP
0000
0000
0000
0000
0000
0000
0000
61c0
71c0
33c0
1780
1f00
1f00
3d00
7980
71c0
70c0
0000
0000
0000
0000
0000
ENDCHAR
STARTCHAR GkSmlRhoAlt
ENCODING 1009
SWIDTH 1320 0
DWIDTH 11 0
BBX 11 22 0 -5
BITMAP
0000
0000
0000
0000
0000
0000
0000
1f00
3b80
71c0
71c0
71c0
71c0
71c0
71c0
7b80
6f00
6000
6000
7f00
3f80
0000
ENDCHAR
STARTCHAR GkSmlSigLunate
ENCODING 1010
SWIDTH 1320 0
DWIDTH 11 0
BBX 11 22 0 -5
BITMAP
0000
0000
0000
0000
0000
0000
0000
1f80
39c0
70c0
7000
7000
7000
7000
70c0
39c0
1f80
0000
0000
0000
0000
0000
ENDCHAR
STARTCHAR GkSmlYot
ENCODING 1011
SWIDTH 1320 0
DWIDTH 11 0
BBX 11 22 0 -5
BITMAP
0000
0000
0200
0700
0700
0200
0000
3f00
0700
0700
0700
0700
0700
0700
0700
0700
0700
0700
e700
e700
7e00
0000
ENDCHAR
STARTCHAR GkCapTheAlt
ENCODING 1012
SWIDTH 1320 0
DWIDTH 11 0
BBX 11 22 0 -5
BITMAP
0000
0000
0000
0000
1e00
7380
6180
e1c0
e1c0
ffc0
ffc0
e1c0
e1c0
e1c0
6180
7380
1e00
0000
0000
0000
0000
0000
ENDCHAR
STARTCHAR GkSmlEpsAlt
ENCODING 1013
SWIDTH 1320 0
DWIDTH 11 0
BBX 11 22 0 -5
BITMAP
0000
0000
0000
0000
0000
0000
0000
1f80
38c0
7000
7000
7f00
7e00
7000
7000
38c0
1f80
0000
0000
0000
0000
0000
ENDCHAR
STARTCHAR GkSmlEpsRevAlt
ENCODING 1014
SWIDTH 1320 0
DWIDTH 11 0
BBX 11 22 0 -5
BITMAP
0000
0000
0000
0000
0000
0000
0000
3f00
6380
01c0
01c0
0fc0
1fc0
01c0
01c0
6380
3f00
0000
0000
0000
0000
0000
ENDCHAR
STARTCHAR GkCapSho
ENCODING 1015
SWIDTH 1320 0
DWIDTH 11 0
BBX 11 22 0 -5
BITMAP
0000
0000
0000
0000
7000
7000
7000
7f00
7380
71c0
71c0
71c0
7380
7f00
7000
7000
7000
0000
0000
0000
0000
0000
ENDCHAR
STARTCHAR GkSmlSho
ENCODING 1016
SWIDTH 1320 0
DWIDTH 11 0
BBX 11 22 0 -5
BITMAP
0000
0000
0000
7000
7000
7000
7000
7700
7b80
71c0
71c0
71c0
71c0
71c0
71c0
7b80
7700
7000
7000
7000
7000
0000
ENDCHAR
STARTCHAR GkCapSigLunate
ENCODING 1017
SWIDTH 1320 0
DWIDTH 11 0
BBX 11 22 0 -5
BITMAP
0000
0000
0000
0000
0f80
39c0
30c0
7000
7000
7000
7000
7000
7000
7000
30c0
39c0
0f80
0000
0000
0000
0000
0000
ENDCHAR
STARTCHAR GkCapSan
ENCODING 1018
SWIDTH 1320 0
DWIDTH 11 0
BBX 11 22 0 -5
BITMAP
0000
0000
0000
0000
6180
7380
7f80
7f80
ddc0
c9c0
c1c0
c1c0
c1c0
c1c0
c1c0
c1c0
c1c0
0000
0000
0000
0000
0000
ENDCHAR
STARTCHAR GkSmlSan
ENCODING 1019
SWIDTH 1320 0
DWIDTH 11 0
BBX 11 22 0 -5
BITMAP
0000
0000
0000
0000
0000
0000
0000
60c0
71c0
7bc0
7fc0
75c0
71c0
71c0
71c0
71c0
71c0
7000
7000
7000
7000
0000
ENDCHAR
STARTCHAR GkSmlRhoStroke
ENCODING 1020
SWIDTH 1320 0
DWIDTH 11 0
BBX 11 22 0 -5
BITMAP
0000
0000
0000
0000
0000
0000
0000
1f00
3b80
71c0
71c0
71c0
71c0
71c0
71c0
7b80
7700
7000
ff00
7000
7000
0000
ENDCHAR
STARTCHAR GkCapSigLunateRev
ENCODING 1021
SWIDTH 1320 0
DWIDTH 11 0
BBX 11 22 0 -5
BITMAP
0000
0000
0000
0000
3e00
7380
6180
01c0
01c0
01c0
01c0
01c0
01c0
01c0
6180
7380
3e00
0000
0000
0000
0000
0000
ENDCHAR
STARTCHAR GkCapSigLunateDot
ENCODING 1022
SWIDTH 1320 0
DWIDTH 11 0
BBX 11 22 0 -5
BITMAP
0000
0000
0000
0000
0f80
39c0
30c0
7000
7000
7300
7300
7300
7000
7000
30c0
39c0
0f80
0000
0000
0000
0000
0000
ENDCHAR
STARTCHAR GkCapSigLunateRevDot
ENCODING 1023
SWIDTH 1320 0
DWIDTH 11 0
BBX 11 22 0 -5
BITMAP
0000
0000
0000
0000
3e00
7380
6180
01c0
01c0
19c0
19c0
19c0
01c0
01c0
6180
7380
3e00
0000
0000
0000
0000
0000
ENDCHAR
STARTCHAR CyCapIeGrave
ENCODING 1024
SWIDTH 1320 0
DWIDTH 11 0
BBX 11 22 0 -5
BITMAP
1c00
0c00
0600
0000
7fc0
70c0
70c0
7000
7000
7200
7e00
7200
7000
7000
70c0
70c0
7fc0
0000
0000
0000
0000
0000
ENDCHAR
STARTCHAR CyCapIeDrss
ENCODING 1025
SWIDTH 1320 0
DWIDTH 11 0
BBX 11 22 0 -5
BITMAP
1980
1980
1980
0000
7fc0
70c0
70c0
7000
7000
7200
7e00
7200
7000
7000
70c0
70c0
7fc0
0000
0000
0000
0000
0000
ENDCHAR
STARTCHAR CyCapDje
ENCODING 1026
SWIDTH 1320 0
DWIDTH 11 0
BBX 11 22 0 -5
BITMAP
0000
0000
0000
0000
fe00
fe00
ba00
3800
3800
3f80
39c0
39c0
39c0
39c0
39c0
39c0
39c0
01c0
01c0
1980
1f00
0000
ENDCHAR
STARTCHAR CyCapGheAcute
ENCODING 1027
SWIDTH 1320 0
DWIDTH 11 0
BBX 11 22 0 -5
BITMAP
0380
0300
0600
0000
3fe0
3860
3860
3800
3800
3800
3800
3800
3800
3800
3800
3800
3800
0000
0000
0000
0000
0000
ENDCHAR
STARTCHAR CyCapIeUkr
ENCODING 1028
SWIDTH 1320 0
DWIDTH 11 0
BBX 11 22 0 -5
BITMAP
0000
0000
0000
0000
0f80
39c0
30c0
7000
7000
7100
7f00
7100
7000
7000
30c0
39c0
0f80
0000
0000
0000
0000
0000
ENDCHAR
STARTCHAR CyCapDze
ENCODING 1029
SWIDTH 1320 0
DWIDTH 11 0
BBX 11 22 0 -5
BITMAP
0000
0000
0000
0000
1fc0
38c0
70c0
7000
7800
3c00
1f00
0780
03c0
01c0
61c0
6380
7f00
0000
0000
0000
0000
0000
ENDCHAR
STARTCHAR CyCapIUkr
ENCODING 1030
SWIDTH 1320 0
DWIDTH 11 0
BBX 11 22 0 -5
BITMAP
0000
0000
0000
0000
3f80
0e00
0e00
0e00
0e00
0e00
0e00
0e00
0e00
0e00
0e00
0e00
3f80
0000
0000
0000
0000
0000
ENDCHAR
STARTCHAR CyCapIUkrDrss
ENCODING 1031
SWIDTH 1320 0
DWIDTH 11 0
BBX 11 22 0 -5
BITMAP
1980
1980
1980
0000
3f80
0e00
0e00
0e00
0e00
0e00
0e00
0e00
0e00
0e00
0e00
0e00
3f80
0000
0000
0000
0000
0000
ENDCHAR
STARTCHAR CyCapJe
ENCODING 1032
SWIDTH 1320 0
DWIDTH 11 0
BBX 11 22 0 -5
BITMAP
0000
0000
0000
0000
07c0
0380
0380
0380
0380
0380
0380
0380
0380
6380
6380
7700
3f00
0000
0000
0000
0000
0000
ENDCHAR
STARTCHAR CyCapLje
ENCODING 1033
SWIDTH 1320 0
DWIDTH 11 0
BBX 11 22 0 -5
BITMAP
0000
0000
0000
0000
7e00
6e00
6e00
6e00
6e00
6e00
6f80
6ec0
6ec0
6ec0
6ec0
eec0
cf80
0000
0000
0000
0000
0000
ENDCHAR
STARTCHAR CyCapNje
ENCODING 1034
SWIDTH 1320 0
DWIDTH 11 0
BBX 11 22 0 -5
BITMAP
0000
0000
0000
0000
ee00
ee00
ee00
ee00
ee00
ee00
ff80
eec0
eec0
eec0
eec0
eec0
ef80
0000
0000
0000
0000
0000
ENDCHAR
STARTCHAR CyCapTshe
ENCODING 1035
SWIDTH 1320 0
DWIDTH 11 0
BBX 11 22 0 -5
BITMAP
0000
0000
0000
0000
fe00
fe00
ba00
3800
3800
3f80
39c0
39c0
39c0
39c0
39c0
39c0
39c0
0000
0000
0000
0000
0000
ENDCHAR
STARTCHAR CyCapKaAcute
ENCODING 1036
SWIDTH 1320 0
DWIDTH 11 0
BBX 11 22 0 -5
BITMAP
0700
0600
0c00
0000
70c0
70c0
7180
7300
7300
7600
7e00
7f00
7700
7380
7380
71c0
71c0
0000
0000
0000
0000
0000
ENDCHAR
STARTCHAR CyCapIGrave
ENCODING 1037
SWIDTH 1320 0
DWIDTH 11 0
BBX 11 22 0 -5
BITMAP
1c00
0c00
0600
0000
71c0
71c0
71c0
73c0
73c0
75c0
75c0
75c0
79c0
79c0
71c0
71c0
71c0
0000
0000
0000
0000
0000
ENDCHAR
STARTCHAR CyCapUBreve
ENCODING 1038
SWIDTH 1320 0
DWIDTH 11 0
BBX 11 22 0 -5
BITMAP
1980
1980
0f00
0000
70c0
70c0
38c0
3980
1d80
1d00
0f00
0f00
0600
0200
3600
3c00
1800
0000
0000
0000
0000
0000
ENDCHAR
STARTCHAR CyCapDzhe
ENCODING 1039
SWIDTH 1320 0
DWIDTH 11 0
BBX 11 22 0 -5
BITMAP
0000
0000
0000
0000
71c0
71c0
71c0
71c0
71c0
71c0
71c0
71c0
71c0
71c0
71c0
71c0
7fc0
0e00
0e00
0e00
0000
0000
ENDCHAR
STARTCHAR CyCapA
ENCODING 1040
SWIDTH 1320 0
DWIDTH 11 0
BBX 11 22 0 -5
BITMAP
0000
0000
0000
0000
0c00
0e00
1e00
1e00
1f00
3700
3700
2380
7f80
6380
61c0
c1c0
c1c0
0000
0000
0000
0000
0000
ENDCHAR
STARTCHAR CyCapBe
ENCODING 1041
SWIDTH 1320 0
DWIDTH 11 0
BBX 11 22 0 -5
BITMAP
0000
0000
0000
0000
7f80
7180
7180
7000
7000
7000
7f00
7380
71c0
71c0
71c0
7380
7f00
0000
0000
0000
0000
0000
ENDCHAR
STARTCHAR CyCapVe
ENCODING 1042
SWIDTH 1320 0
DWIDTH 11 0
BBX 11 22 0 -5
BITMAP
0000
0000
0000
0000
7f00
7380
71c0
71c0
71c0
7380
7f00
7380
71c0
71c0
71c0
7380
7f00
0000
0000
0000
0000
0000
ENDCHAR
STARTCHAR CyCapGhe
ENCODING 1043
SWIDTH 1320 0
DWIDTH 11 0
BBX 11 22 0 -5
BITMAP
0000
0000
0000
0000
3fe0
3860
3860
3800
3800
3800
3800
3800
3800
3800
3800
3800
3800
0000
0000
0000
0000
0000
ENDCHAR
STARTCHAR CyCapDe
ENCODING 1044
SWIDTH 1320 0
DWIDTH 11 0
BBX 11 22 0 -5
BITMAP
0000
0000
0000
0000
3f80
3380
3380
3380
3380
3380
3380
3380
3380
3380
3380
6380
ffc0
e1c0
e1c0
e1c0
0000
0000
ENDCHAR
STARTCHAR CyCapIe
ENCODING 1045
SWIDTH 1320 0
DWIDTH 11 0
BBX 11 22 0 -5
BITMAP
0000
0000
0000
0000
7fc0
70c0
70c0
7000
7000
7200
7e00
7200
7000
7000
70c0
70c0
7fc0
0000
0000
0000
0000
0000
ENDCHAR
STARTCHAR CyCapZhe
ENCODING 1046
SWIDTH 1320 0
DWIDTH 11 0
BBX 11 22 0 -5
BITMAP
0000
0000
0000
0000
edc0
edc0
6d80
6d80
2d00
1e00
3f00
6d80
edc0
edc0
edc0
edc0
edc0
0000
0000
0000
0000
0000
ENDCHAR
STARTCHAR CyCapZe
ENCODING 1047
SWIDTH 1320 0
DWIDTH 11 0
BBX 11 22 0 -5
BITMAP
0000
0000
0000
0000
3f00
7380
61c0
01c0
01c0
0380
0f00
0380
01c0
01c0
61c0
7380
3f00
0000
0000
0000
0000
0000
ENDCHAR
STARTCHAR CyCapI
ENCODING 1048
SWIDTH 1320 0
DWIDTH 11 0
BBX 11 22 0 -5
BITMAP
0000
0000
0000
0000
71c0
71c0
71c0
73c0
73c0
75c0
75c0
75c0
79c0
79c0
71c0
71c0
71c0
0000
0000
0000
0000
0000
ENDCHAR
STARTCHAR CyCapIBreve
ENCODING 1049
SWIDTH 1320 0
DWIDTH 11 0
BBX 11 22 0 -5
BITMAP
1980
1980
0f00
0000
71c0
71c0
71c0
73c0
73c0
75c0
75c0
75c0
79c0
79c0
71c0
71c0
71c0
0000
0000
0000
0000
0000
ENDCHAR
STARTCHAR CyCapKa
ENCODING 1050
SWIDTH 1320 0
DWIDTH 11 0
BBX 11 22 0 -5
BITMAP
0000
0000
0000
0000
70c0
70c0
7180
7300
7300
7600
7e00
7f00
7700
7380
7380
71c0
71c0
0000
0000
0000
0000
0000
ENDCHAR
STARTCHAR CyCapEl
ENCODING 1051
SWIDTH 1320 0
DWIDTH 11 0
BBX 11 22 0 -5
BITMAP
0000
0000
0000
0000
1fc0
19c0
19c0
19c0
19c0
19c0
19c0
19c0
19c0
19c0
39c0
f1c0
f1c0
0000
0000
0000
0000
0000
ENDCHAR
STARTCHAR CyCapEm
ENCODING 1052
SWIDTH 1320 0
DWIDTH 11 0
BBX 11 22 0 -5
BITMAP
0000
0000
0000
0000
c0c0
c1c0
e1c0
e3c0
f3c0
f7c0
ddc0
ddc0
c9c0
c9c0
c1c0
c1c0
c1c0
0000
0000
0000
0000
0000
ENDCHAR
STARTCHAR CyCapEn
ENCODING 1053
SWIDTH 1320 0
DWIDTH 11 0
BBX 11 22 0 -5
BITMAP
0000
0000
0000
0000
71c0
71c0
71c0
71c0
71c0
71c0
7fc0
71c0
71c0
71c0
71c0
71c0
71c0
0000
0000
0000
0000
0000
ENDCHAR
STARTCHAR CyCapO
ENCODING 1054
SWIDTH 1320 0
DWIDTH 11 0
BBX 11 22 0 -5
BITMAP
0000
0000
0000
0000
1e00
7380
6180
e1c0
e1c0
e1c0
e1c0
e1c0
e1c0
e1c0
6180
7380
1e00
0000
0000
0000
0000
0000
ENDCHAR
STARTCHAR CyCapPe
ENCODING 1055
SWIDTH 1320 0
DWIDTH 11 0
BBX 11 22 0 -5
BITMAP
0000
0000
0000
0000
7fc0
71c0
71c0
71c0
71c0
71c0
71c0
71c0
71c0
71c0
71c0
71c0
71c0
0000
0000
0000
0000
0000
ENDCHAR
STARTCHAR CyCapEr
ENCODING 1056
SWIDTH 1320 0
DWIDTH 11 0
BBX 11 22 0 -5
BITMAP
0000
0000
0000
0000
7f00
7380
71c0
71c0
71c0
71c0
7380
7f00
7000
7000
7000
7000
7000
0000
0000
0000
0000
0000
ENDCHAR
STARTCHAR CyCapEs
ENCODING 1057
SWIDTH 1320 0
DWIDTH 11 0
BBX 11 22 0 -5
BITMAP
0000
0000
0000
0000
0fc0
38c0
30c0
7000
7000
7000
7000
7000
7000
7000
30c0
39c0
0f80
0000
0000
0000
0000
0000
ENDCHAR
STARTCHAR CyCapTe
ENCODING 1058
SWIDTH 1320 0
DWIDTH 11 0
BBX 11 22 0 -5
BITMAP
0000
0000
0000
0000
ffe0
ce60
ce60
0e00
0e00
0e00
0e00
0e00
0e00
0e00
0e00
0e00
0e00
0000
0000
0000
0000
0000
ENDCHAR
STARTCHAR CyCapU
ENCODING 1059
SWIDTH 1320 0
DWIDTH 11 0
BBX 11 22 0 -5
BITMAP
0000
0000
0000
0000
70c0
70c0
38c0
3980
1d80
1d00
0f00
0f00
0600
0200
3600
3c00
1800
0000
0000
0000
0000
0000
ENDCHAR
STARTCHAR CyCapEf
ENCODING 1060
SWIDTH 1320 0
DWIDTH 11 0
BBX 11 22 0 -5
BITMAP
0000
0000
0000
0c00
0c00
3f00
6d80
edc0
edc0
edc0
edc0
edc0
edc0
edc0
6d80
3f00
0c00
0c00
0000
0000
0000
0000
ENDCHAR
STARTCHAR CyCapHa
ENCODING 1061
SWIDTH 1320 0
DWIDTH 11 0
BBX 11 22 0 -5
BITMAP
0000
0000
0000
0000
70c0
70c0
7980
3900
1f00
1e00
0e00
0f00
1f00
1380
33c0
61c0
61c0
0000
0000
0000
0000
0000
ENDCHAR
STARTCHAR CyCapTse
ENCODING 1062
SWIDTH 1320 0
DWIDTH 11 0
BBX 11 22 0 -5
BITMAP
0000
0000
0000
0000
71c0
71c0
71c0
71c0
71c0
71c0
71c0
71c0
71c0
71c0
71c0
71c0
7fe0
00e0
00e0
00e0
0000
0000
ENDCHAR
STARTCHAR CyCapChe
ENCODING 1063
SWIDTH 1320 0
DWIDTH 11 0
BBX 11 22 0 -5
BITMAP
0000
0000
0000
0000
71c0
71c0
71c0
71c0
71c0
71c0
3fc0
01c0
01c0
01c0
01c0
01c0
01c0
0000
0000
0000
0000
0000
ENDCHAR
STARTCHAR CyCapSha
ENCODING 1064
SWIDTH 1320 0
DWIDTH 11 0
BBX 11 22 0 -5
BITMAP
0000
0000
0000
0000
edc0
edc0
edc0
edc0
edc0
edc0
edc0
edc0
edc0
edc0
edc0
edc0
ffc0
0000
0000
0000
0000
0000
ENDCHAR
STARTCHAR CyCapShcha
ENCODING 1065
SWIDTH 1320 0
DWIDTH 11 0
BBX 11 22 0 -5
BITMAP
0000
0000
0000
0000
edc0
edc0
edc0
edc0
edc0
edc0
edc0
edc0
edc0
edc0
edc0
edc0
ffe0
00e0
00e0
00e0
0000
0000
ENDCHAR
STARTCHAR CyCapHardsign
ENCODING 1066
SWIDTH 1320 0
DWIDTH 11 0
BBX 11 22 0 -5
BITMAP
0000
0000
0000
0000
f800
f800
b800
3800
3800
3800
3f00
3b80
39c0
39c0
39c0
3b80
3f00
0000
0000
0000
0000
0000
ENDCHAR
STARTCHAR CyCapYeru
ENCODING 1067
SWIDTH 1320 0
DWIDTH 11 0
BBX 11 22 0 -5
BITMAP
0000
0000
0000
0000
e1c0
e1c0
e1c0
e1c0
e1c0
e1c0
f9c0
edc0
e7c0
e7c0
e7c0
edc0
f9c0
0000
0000
0000
0000
0000
ENDCHAR
STARTCHAR CyCapSoftsign
ENCODING 1068
SWIDTH 1320 0
DWIDTH 11 0
BBX 11 22 0 -5
BITMAP
0000
0000
0000
0000
7000
7000
7000
7000
7000
7000
7f00
7380
71c0
71c0
71c0
7380
7f00
0000
0000
0000
0000
0000
ENDCHAR
STARTCHAR CyCapE
ENCODING 1069
SWIDTH 1320 0
DWIDTH 11 0
BBX 11 22 0 -5
BITMAP
0000
0000
0000
0000
3f00
7380
6180
01c0
01c0
11c0
1fc0
11c0
01c0
01c0
6180
7380
3f00
0000
0000
0000
0000
0000
ENDCHAR
STARTCHAR CyCapYu
ENCODING 1070
SWIDTH 1320 0
DWIDTH 11 0
BBX 11 22 0 -5
BITMAP
0000
0000
0000
0000
e780
edc0
edc0
edc0
edc0
edc0
fdc0
edc0
edc0
edc0
edc0
edc0
e780
0000
0000
0000
0000
0000
ENDCHAR
STARTCHAR CyCapYa
ENCODING 1071
SWIDTH 1320 0
DWIDTH 11 0
BBX 11 22 0 -5
BITMAP
0000
0000
0000
0000
1fc0
39c0
71c0
71c0
71c0
39c0
1fc0
0dc0
1dc0
19c0
39c0
71c0
71c0
0000
0000
0000
0000
0000
ENDCHAR
STARTCHAR CySmlA
ENCODING 1072
SWIDTH 1320 0
DWIDTH 11 0
BBX 11 22 0 -5
BITMAP
0000
0000
0000
0000
0000
0000
0000
1f80
39c0
31c0
01c0
1fc0
39c0
71c0
71c0
73c0
3dc0
0000
0000
0000
0000
0000
ENDCHAR
STARTCHAR CySmlBe
ENCODING 1073
SWIDTH 1320 0
DWIDTH 11 0
BBX 11 22 0 -5
BITMAP
0000
0000
0000
0180
0f00
3800
3000
6700
7b80
71c0
71c0
71c0
71c0
71c0
71c0
3b80
1f00
0000
0000
0000
0000
0000
ENDCHAR
STARTCHAR CySmlVe
ENCODING 1074
SWIDTH 1320 0
DWIDTH 11 0
BBX 11 22 0 -5
BITMAP
0000
0000
0000
0000
0000
0000
0000
7f00
7380
71c0
7380
7f00
7380
71c0
71c0
7380
7f00
0000
0000
0000
0000
0000
ENDCHAR
STARTCHAR CySmlGhe
ENCODING 1075
SWIDTH 1320 0
DWIDTH 11 0
BBX 11 22 0 -5
BITMAP
0000
0000
0000
0000
0000
0000
0000
7fc0
70c0
70c0
7000
7000
7000
7000
7000
7000
7000
0000
0000
0000
0000
0000
ENDCHAR
STARTCHAR CySmlDe
ENCODING 1076
SWIDTH 1320 0
DWIDTH 11 0
BBX 11 22 0 -5
BITMAP
0000
0000
0000
0000
0000
0000
0000
3f80
3380
3380
3380
3380
3380
3380
3380
6380
ffc0
e1c0
e1c0
e1c0
0000
0000
ENDCHAR
STARTCHAR CySmlIe
ENCODING 1077
SWIDTH 1320 0
DWIDTH 11 0
BBX 11 22 0 -5
BITMAP
0000
0000
0000
0000
0000
0000
0000
1f80
39c0
71c0
71c0
7fc0
7000
7000
70c0
39c0
1f80
0000
0000
0000
0000
0000
ENDCHAR
STARTCHAR CySmlZhe
ENCODING 1078
SWIDTH 1320 0
DWIDTH 11 0
BBX 11 22 0 -5
BITMAP
0000
0000
0000
0000
0000
0000
0000
ccc0
edc0
6d80
6d80
3f00
7f80
edc0
edc0
edc0
edc0
0000
0000
0000
0000
0000
ENDCHAR
STARTCHAR CySmlZe
ENCODING 1079
SWIDTH 1320 0
DWIDTH 11 0
BBX 11 22 0 -5
BITMAP
0000
0000
0000
0000
0000
0000
0000
3f80
71c0
61c0
01c0
0f80
0180
01c0
61c0
71c0
3f80
0000
0000
0000
0000
0000
ENDCHAR
STARTCHAR CySmlI
ENCODING 1080
SWIDTH 1320 0
DWIDTH 11 0
BBX 11 22 0 -5
BITMAP
0000
0000
0000
0000
0000
0000
0000
71c0
71c0
73c0
73c0
75c0
75c0
79c0
79c0
71c0
71c0
0000
0000
0000
0000
0000
ENDCHAR
STARTCHAR CySmlIBreve
ENCODING 1081
SWIDTH 1320 0
DWIDTH 11 0
BBX 11 22 0 -5
BITMAP
0000
0000
0000
1980
1980
0f00
0000
71c0
71c0
73c0
73c0
75c0
75c0
79c0
79c0
71c0
71c0
0000
0000
0000
0000
0000
ENDCHAR
STARTCHAR CySmlKa
ENCODING 1082
SWIDTH 1320 0
DWIDTH 11 0
BBX 11 22 0 -5
BITMAP
0000
0000
0000
0000
0000
0000
0000
70c0
7180
7300
7600
7e00
7f00
7380
7380
71c0
71c0
0000
0000
0000
0000
0000
ENDCHAR
STARTCHAR CySmlEl
ENCODING 1083
SWIDTH 1320 0
DWIDTH 11 0
BBX 11 22 0 -5
BITMAP
0000
0000
0000
0000
0000
0000
0000
1fc0
19c0
19c0
19c0
19c0
19c0
19c0
59c0
79c0
71c0
0000
0000
0000
0000
0000
ENDCHAR
STARTCHAR CySmlEm
ENCODING 1084
SWIDTH 1320 0
DWIDTH 11 0
BBX 11 22 0 -5
BITMAP
0000
0000
0000
0000
0000
0000
0000
c1c0
e1c0
e3c0
f3c0
ffc0
ddc0
ddc0
c9c0
c9c0
c1c0
0000
0000
0000
0000
0000
ENDCHAR
STARTCHAR CySmlEn
ENCODING 1085
SWIDTH 1320 0
DWIDTH 11 0
BBX 11 22 0 -5
BITMAP
0000
0000
0000
0000
0000
0000
0000
71c0
71c0
71c0
71c0
7fc0
71c0
71c0
71c0
71c0
71c0
0000
0000
0000
0000
0000
ENDCHAR
STARTCHAR CySmlO
ENCODING 1086
SWIDTH 1320 0
DWIDTH 11 0
BBX 11 22 0 -5
BITMAP
0000
0000
0000
0000
0000
0000
0000
1f00
3b80
71c0
71c0
71c0
71c0
71c0
71c0
3b80
1f00
0000
0000
0000
0000
0000
ENDCHAR
STARTCHAR CySmlPe
ENCODING 1087
SWIDTH 1320 0
DWIDTH 11 0
BBX 11 22 0 -5
BITMAP
0000
0000
0000
0000
0000
0000
0000
7fc0
71c0
71c0
71c0
71c0
71c0
71c0
71c0
71c0
71c0
0000
0000
0000
0000
0000
ENDCHAR
STARTCHAR CySmlEr
ENCODING 1088
SWIDTH 1320 0
DWIDTH 11 0
BBX 11 22 0 -5
BITMAP
0000
0000
0000
0000
0000
0000
0000
7700
7b80
71c0
71c0
71c0
71c0
71c0
71c0
7b80
7700
7000
7000
7000
7000
0000
ENDCHAR
STARTCHAR CySmlEs
ENCODING 1089
SWIDTH 1320 0
DWIDTH 11 0
BBX 11 22 0 -5
BITMAP
0000
0000
0000
0000
0000
0000
0000
1f80
39c0
70c0
7000
7000
7000
7000
70c0
39c0
1f80
0000
0000
0000
0000
0000
ENDCHAR
STARTCHAR CySmlTe
ENCODING 1090
SWIDTH 1320 0
DWIDTH 11 0
BBX 11 22 0 -5
BITMAP
0000
0000
0000
0000
0000
0000
0000
ffe0
ce60
ce60
0e00
0e00
0e00
0e00
0e00
0e00
0e00
0000
0000
0000
0000
0000
ENDCHAR
STARTCHAR CySmlU
ENCODING 1091
SWIDTH 1320 0
DWIDTH 11 0
BBX 11 22 0 -5
BITMAP
0000
0000
0000
0000
0000
0000
0000
60c0
70c0
7080
3980
3980
1d00
1f00
0f00
0e00
0600
0600
6400
6c00
3800
0000
ENDCHAR
STARTCHAR CySmlEf
ENCODING 1092
SWIDTH 1320 0
DWIDTH 11 0
BBX 11 22 0 -5
BITMAP
0000
0000
0000
1600
0c00
0c00
0c00
3f00
6d80
edc0
edc0
edc0
edc0
edc0
edc0
6d80
3f00
0c00
0c00
0c00
1a00
0000
ENDCHAR
STARTCHAR CySmlHa
ENCODING 1093
SWIDTH 1320 0
DWIDTH 11 0
BBX 11 22 0 -5
BITMAP
0000
0000
0000
0000
0000
0000
0000
70c0
7180
3980
1f00
1e00
0f00
1f00
3380
31c0
61c0
0000
0000
0000
0000
0000
ENDCHAR
STARTCHAR CySmlTse
ENCODING 1094
SWIDTH 1320 0
DWIDTH 11 0
BBX 11 22 0 -5
BITMAP
0000
0000
0000
0000
0000
0000
0000
71c0
71c0
71c0
71c0
71c0
71c0
71c0
71c0
71c0
7fe0
00e0
00e0
00e0
0000
0000
ENDCHAR
STARTCHAR CySmlChe
ENCODING 1095
SWIDTH 1320 0
DWIDTH 11 0
BBX 11 22 0 -5
BITMAP
0000
0000
0000
0000
0000
0000
0000
71c0
71c0
71c0
71c0
3fc0
01c0
01c0
01c0
01c0
01c0
0000
0000
0000
0000
0000
ENDCHAR
STARTCHAR CySmlSha
ENCODING 1096
SWIDTH 1320 0
DWIDTH 11 0
BBX 11 22 0 -5
BITMAP
0000
0000
0000
0000
0000
0000
0000
edc0
edc0
edc0
edc0
edc0
edc0
edc0
edc0
edc0
ffc0
0000
0000
0000
0000
0000
ENDCHAR
STARTCHAR CySmlShcha
ENCODING 1097
SWIDTH 1320 0
DWIDTH 11 0
BBX 11 22 0 -5
BITMAP
0000
0000
0000
0000
0000
0000
0000
edc0
edc0
edc0
edc0
edc0
edc0
edc0
edc0
edc0
ffe0
00e0
00e0
00e0
0000
0000
ENDCHAR
STARTCHAR CySmlHardsign
ENCODING 1098
SWIDTH 1320 0
DWIDTH 11 0
BBX 11 22 0 -5
BITMAP
0000
0000
0000
0000
0000
0000
0000
7c00
7c00
5c00
1c00
1f80
1dc0
1dc0
1dc0
1dc0
1f80
0000
0000
0000
0000
0000
ENDCHAR
STARTCHAR CySmlYeru
ENCODING 1099
SWIDTH 1320 0
DWIDTH 11 0
BBX 11 22 0 -5
BITMAP
0000
0000
0000
0000
0000
0000
0000
e1c0
e1c0
e1c0
e1c0
f9c0
edc0
efc0
efc0
edc0
f9c0
0000
0000
0000
0000
0000
ENDCHAR
STARTCHAR CySmlSoftsign
ENCODING 1100
SWIDTH 1320 0
DWIDTH 11 0
BBX 11 22 0 -5
BITMAP
0000
0000
0000
0000
0000
0000
0000
7000
7000
7000
7000
7f00
7380
71c0
71c0
7380
7f00
0000
0000
0000
0000
0000
ENDCHAR
STARTCHAR CySmlE
ENCODING 1101
SWIDTH 1320 0
DWIDTH 11 0
BBX 11 22 0 -5
BITMAP
0000
0000
0000
0000
0000
0000
0000
3f00
7380
61c0
09c0
0fc0
09c0
01c0
61c0
7380
3f00
0000
0000
0000
0000
0000
ENDCHAR
STARTCHAR CySmlYu
ENCODING 1102
SWIDTH 1320 0
DWIDTH 11 0
BBX 11 22 0 -5
BITMAP
0000
0000
0000
0000
0000
0000
0000
7380
77c0
76c0
76c0
7ec0
7ec0
76c0
76c0
77c0
7380
0000
0000
0000
0000
0000
ENDCHAR
STARTCHAR CySmlYa
ENCODING 1103
SWIDTH 1320 0
DWIDTH 11 0
BBX 11 22 0 -5
BITMAP
0000
0000
0000
0000
0000
0000
0000
3fc0
71c0
71c0
71c0
3fc0
0dc0
1dc0
19c0
39c0
71c0
0000
0000
0000
0000
0000
ENDCHAR
STARTCHAR CySmlIeGrave
ENCODING 1104
SWIDTH 1320 0
DWIDTH 11 0
BBX 11 22 0 -5
BITMAP
0000
0000
1c00
0c00
0600
0200
0000
1f80
39c0
71c0
71c0
7fc0
7000
7000
70c0
39c0
1f80
0000
0000
0000
0000
0000
ENDCHAR
STARTCHAR CySmlIeDrss
ENCODING 1105
SWIDTH 1320 0
DWIDTH 11 0
BBX 11 22 0 -5
BITMAP
0000
0000
1980
1980
1980
0000
0000
1f80
39c0
71c0
71c0
7fc0
7000
7000
70c0
39c0
1f80
0000
0000
0000
0000
0000
ENDCHAR
STARTCHAR CySmlDje
ENCODING 1106
SWIDTH 1320 0
DWIDTH 11 0
BBX 11 22 0 -5
BITMAP
0000
0000
0000
7000
fe00
7000
7000
7700
7b80
71c0
71c0
71c0
71c0
71c0
71c0
71c0
7180
0380
0300
1e00
0c00
0000
ENDCHAR
STARTCHAR CySmlGheAcute
ENCODING 1107
SWIDTH 1320 0
DWIDTH 11 0
BBX 11 22 0 -5
BITMAP
0000
0000
0700
0600
0c00
0800
0000
7fc0
70c0
70c0
7000
7000
7000
7000
7000
7000
7000
0000
0000
0000
0000
0000
ENDCHAR
STARTCHAR CySmlIeUkr
ENCODING 1108
SWIDTH 1320 0
DWIDTH 11 0
BBX 11 22 0 -5
BITMAP
0000
0000
0000
0000
0000
0000
0000
1f80
39c0
70c0
7200
7e00
7200
7000
70c0
39c0
1f80
0000
0000
0000
0000
0000
ENDCHAR
STARTCHAR CySmlDze
ENCODING 1109
SWIDTH 1320 0
DWIDTH 11 0
BBX 11 22 0 -5
BITMAP
0000
0000
0000
0000
0000
0000
0000
3f80
70c0
70c0
7800
3e00
0f80
03c0
61c0
61c0
3f80
0000
0000
0000
0000
0000
ENDCHAR
STARTCHAR CySmlIUkr
ENCODING 1110
SWIDTH 1320 0
DWIDTH 11 0
BBX 11 22 0 -5
BITMAP
0000
0000
0400
0e00
0e00
0400
0000
3e00
0e00
0e00
0e00
0e00
0e00
0e00
0e00
0e00
3f80
0000
0000
0000
0000
0000
ENDCHAR
STARTCHAR CySmlIUkrDrss
ENCODING 1111
SWIDTH 1320 0
DWIDTH 11 0
BBX 11 22 0 -5
BITMAP
0000
0000
3300
3300
3300
0000
0000
3e00
0e00
0e00
0e00
0e00
0e00
0e00
0e00
0e00
3f80
0000
0000
0000
0000
0000
ENDCHAR
STARTCHAR CySmlJe
ENCODING 1112
SWIDTH 1320 0
DWIDTH 11 0
BBX 11 22 0 -5
BITMAP
0000
0000
0200
0700
0700
0200
0000
3f00
0700
0700
0700
0700
0700
0700
0700
0700
0700
0700
e700
e700
7e00
0000
ENDCHAR
STARTCHAR CySmlLje
ENCODING 1113
SWIDTH 1320 0
DWIDTH 11 0
BBX 11 22 0 -5
BITMAP
0000
0000
0000
0000
0000
0000
0000
7e00
6e00
6e00
6e00
6f80
6ec0
6ec0
6ec0
eec0
cf80
0000
0000
0000
0000
0000
ENDCHAR
STARTCHAR CySmlNje
ENCODING 1114
SWIDTH 1320 0
DWIDTH 11 0
BBX 11 22 0 -5
BITMAP
0000
0000
0000
0000
0000
0000
0000
ee00
ee00
ee00
ee00
ff80
eec0
eec0
eec0
eec0
ef80
0000
0000
0000
0000
0000
ENDCHAR
STARTCHAR CySmlTshe
ENCODING 1115
SWIDTH 1320 0
DWIDTH 11 0
BBX 11 22 0 -5
BITMAP
0000
0000
0000
7000
fe00
7000
7000
7780
79c0
71c0
71c0
71c0
71c0
71c0
71c0
71c0
71c0
0000
0000
0000
0000
0000
ENDCHAR
STARTCHAR CySmlKaAcute
ENCODING 1116
SWIDTH 1320 0
DWIDTH 11 0
BBX 11 22 0 -5
BITMAP
0000
0000
0380
0300
0600
0400
0000
70c0
7180
7300
7600
7e00
7f00
7380
7380
71c0
71c0
0000
0000
0000
0000
0000
ENDCHAR
STARTCHAR CySmlIGrave
ENCODING 1117
SWIDTH 1320 0
DWIDTH 11 0
BBX 11 22 0 -5
BITMAP
0000
0000
1c00
0c00
0600
0200
0000
71c0
71c0
73c0
73c0
75c0
75c0
79c0
79c0
71c0
71c0
0000
0000
0000
0000
0000
ENDCHAR
STARTCHAR CySmlUBreve
ENCODING 1118
SWIDTH 1320 0
DWIDTH 11 0
BBX 11 22 0 -5
BITMAP
0000
0000
0000
1980
1980
0f00
0000
60c0
70c0
7080
3980
3980
1d00
1f00
0f00
0e00
0600
0600
6400
6c00
3800
0000
ENDCHAR
STARTCHAR CySmlDzhe
ENCODING 1119
SWIDTH 1320 0
DWIDTH 11 0
BBX 11 22 0 -5
BITMAP
0000
0000
0000
0000
0000
0000
0000
71c0
71c0
71c0
71c0
71c0
71c0
71c0
71c0
71c0
7fc0
0e00
0e00
0e00
0000
0000
ENDCHAR
STARTCHAR CyCapOmega
ENCODING 1120
SWIDTH 1320 0
DWIDTH 11 0
BBX 11 22 0 -5
BITMAP
0000
0000
0000
0000
e1c0
edc0
edc0
edc0
edc0
edc0
edc0
edc0
edc0
6d80
7f80
3300
3300
0000
0000
0000
0000
0000
ENDCHAR
STARTCHAR CySmlOmega
ENCODING 1121
SWIDTH 1320 0
DWIDTH 11 0
BBX 11 22 0 -5
BITMAP
0000
0000
0000
0000
0000
0000
0000
e1c0
edc0
edc0
edc0
edc0
edc0
6d80
7f80
3300
3300
0000
0000
0000
0000
0000
ENDCHAR
STARTCHAR CyCapYat
ENCODING 1122
SWIDTH 1320 0
DWIDTH 11 0
BBX 11 22 0 -5
BITMAP
0000
0000
0000
0000
3800
3800
fe00
fe00
ba00
3800
3f00
3b80
39c0
39c0
39c0
3b80
3f00
0000
0000
0000
0000
0000
ENDCHAR
STARTCHAR CySmlYat
ENCODING 1123
SWIDTH 1320 0
DWIDTH 11 0
BBX 11 22 0 -5
BITMAP
0000
0000
0000
3600
1c00
1c00
1c00
ff80
dd80
dd80
1c00
1f80
1dc0
1dc0
1dc0
1dc0
1f80
0000
0000
0000
0000
0000
ENDCHAR
STARTCHAR CyCapIE
ENCODING 1124
SWIDTH 1320 0
DWIDTH 11 0
BBX 11 22 0 -5
BITMAP
0000
0000
0000
0000
e380
e7c0
ee40
ee00
ee00
ee80
ff80
ee80
ee00
ee00
ee40
e7c0
e380
0000
0000
0000
0000
0000
ENDCHAR
STARTCHAR CySmlIE
ENCODING 1125
SWIDTH 1320 0
DWIDTH 11 0
BBX 11 22 0 -5
BITMAP
0000
0000
0000
0000
0000
0000
0000
e380
e7c0
ee40
ee00
ff80
ee00
ee00
ee40
e7c0
e380
0000
0000
0000
0000
0000
ENDCHAR
STARTCHAR CyCapLittleyus
ENCODING 1126
SWIDTH 1320 0
DWIDTH 11 0
BBX 11 22 0 -5
BITMAP
0000
0000
0000
0000
0c00
0e00
1e00
1e00
1f00
3700
3700
2380
7f80
5d80
5dc0
ddc0
ddc0
0000
0000
0000
0000
0000
ENDCHAR
STARTCHAR CySmlLittleyus
ENCODING 1127
SWIDTH 1320 0
DWIDTH 11 0
BBX 11 22 0 -5
BITMAP
0000
0000
0000
0000
0000
0000
0000
0c00
0e00
1e00
1f00
3700
2380
7f80
5dc0
ddc0
ddc0
0000
0000
0000
0000
0000
ENDCHAR
STARTCHAR CyCapILittleyus
ENCODING 1128
SWIDTH 1320 0
DWIDTH 11 0
BBX 11 22 0 -5
BITMAP
0000
0000
0000
0000
c200
c200
c700
c700
c700
ff80
f980
cf80
cf80
dfc0
d6c0
d6c0
d6c0
0000
0000
0000
0000
0000
ENDCHAR
STARTCHAR CySmlILittleyus
ENCODING 1129
SWIDTH 1320 0
DWIDTH 11 0
BBX 11 22 0 -5
BITMAP
0000
0000
0000
0000
0000
0000
0000
c200
c700
c700
c700
fd80
f980
cf80
dfc0
d6c0
d6c0
0000
0000
0000
0000
0000
ENDCHAR
STARTCHAR CyCapBigyus
ENCODING 1130
SWIDTH 1320 0
DWIDTH 11 0
BBX 11 22 0 -5
BITMAP
0000
0000
0000
0000
ffc0
e0c0
7180
3b00
1e00
0c00
1e00
3f80
6d80
edc0
edc0
edc0
edc0
0000
0000
0000
0000
0000
ENDCHAR
STARTCHAR CySmlBigyus
ENCODING 1131
SWIDTH 1320 0
DWIDTH 11 0
BBX 11 22 0 -5
BITMAP
0000
0000
0000
0000
0000
0000
0000
ffc0
e0c0
7180
3b00
1e00
3f00
6d80
edc0
edc0
edc0
0000
0000
0000
0000
0000
ENDCHAR
ENDFONT
